<svg width="242" height="127" viewBox="0 0 242 127" fill="none" xmlns="http://www.w3.org/2000/svg">
<path d="M55.1099 51.356V57.4557H74.3477C77.8668 57.4557 80.3692 58.316 81.8551 60.0364C83.3409 61.6787 84.0838 63.6728 84.0838 66.0189C84.0838 68.365 83.3409 70.4764 81.8551 72.3533C80.3692 74.1519 77.8668 75.0512 74.3477 75.0512H16.869C13.3499 75.0512 10.8474 74.1519 9.36158 72.3533C7.87573 70.4764 7.13281 68.365 7.13281 66.0189C7.13281 63.6728 7.87573 61.6787 9.36158 60.0364C10.8474 58.316 13.3499 57.4557 16.869 57.4557H33.0569V51.356H32.0011C28.2474 51.356 24.9629 50.8476 22.1476 49.831C19.4106 48.8144 17.1036 47.4067 15.2267 45.6081C13.3499 43.7312 11.9423 41.5416 11.0038 39.0391C10.1436 36.4584 9.71349 33.6431 9.71349 30.5933C9.71349 27.5434 10.1436 24.7281 11.0038 22.1474C11.9423 19.5667 13.3499 17.338 15.2267 15.4611C17.1036 13.5061 19.4106 12.0202 22.1476 11.0036C24.9629 9.90875 28.2474 9.36133 32.0011 9.36133H57.456C61.2097 9.36133 64.4551 9.90875 67.1922 11.0036C70.0074 12.0202 72.3144 13.5061 74.1131 15.4611C75.9899 17.338 77.3585 19.5667 78.2187 22.1474C79.1571 24.7281 79.6263 27.5434 79.6263 30.5933C79.6263 33.6431 79.1571 36.4584 78.2187 39.0391C77.3585 41.5416 75.9899 43.7312 74.1131 45.6081C72.3144 47.4067 70.0074 48.8144 67.1922 49.831C64.4551 50.8476 61.2097 51.356 57.456 51.356H55.1099ZM92.1778 117.28C91.2394 114.622 89.7926 112.393 87.8376 110.594C85.8825 108.796 83.6537 107.466 81.1513 106.606C78.6488 105.667 75.8726 105.198 72.8227 105.198C69.851 105.198 66.8402 105.628 63.7904 106.489C61.2097 108.522 58.2771 110.32 54.9926 111.885C51.7863 113.449 48.3454 114.7 44.6699 115.638C40.9944 116.655 37.2016 117.32 33.2915 117.632C29.3814 117.945 25.5103 117.906 21.6784 117.515C18.1593 117.124 15.5787 115.912 13.9364 113.879C12.2942 111.924 11.5512 109.695 11.7076 107.192C11.8641 104.534 12.8416 102.305 14.6402 100.506C16.4389 98.7074 19.1369 98.0818 22.7342 98.6292C25.8623 99.0984 28.9512 99.1375 32.0011 98.7465C35.1292 98.2773 37.9445 97.4953 40.447 96.4005C43.0277 95.2274 45.1782 93.7807 46.8987 92.0602C48.6973 90.3398 49.9095 88.4238 50.5351 86.3124C51.0825 84.4355 51.8254 82.9106 52.7638 81.7375C53.7805 80.4863 54.9144 79.5088 56.1656 78.805C57.4169 78.1011 58.7854 77.671 60.2713 77.5146C61.7571 77.28 63.282 77.2409 64.8461 77.3973C67.896 77.7883 70.3203 78.9614 72.1189 80.9164C73.9958 82.7933 74.7387 85.6086 74.3477 89.3623C78.8052 88.8148 83.3018 88.893 87.8376 89.5969C92.3733 90.3007 96.5571 91.7474 100.389 93.9371C104.221 96.1268 107.505 99.1375 110.243 102.969C113.058 106.801 114.974 111.572 115.99 117.28H92.1778ZM87.6029 18.7456C87.6029 14.9137 88.7369 12.0202 91.0048 10.0652C93.3508 8.1101 96.0879 7.13257 99.216 7.13257C102.266 7.13257 104.964 8.1492 107.31 10.1825C109.656 12.1375 110.829 14.9919 110.829 18.7456V32.2355H114.465C116.264 32.2355 117.75 32.5483 118.923 33.1739C120.096 33.7995 121.034 34.5816 121.738 35.52C122.442 36.4584 122.95 37.5533 123.263 38.8045C123.576 39.9775 123.732 41.1506 123.732 42.3236C123.732 43.4966 123.576 44.7088 123.263 45.96C122.95 47.133 122.442 48.2279 121.738 49.2445C121.034 50.1829 120.057 50.9649 118.806 51.5906C117.633 52.138 116.186 52.4117 114.465 52.4117H110.829V82.4414H87.6029V18.7456ZM37.0452 25.3146C35.2465 25.3146 33.9171 25.8229 33.0569 26.8395C32.2748 27.778 31.8838 29.0292 31.8838 30.5933C31.8838 32.0791 32.2748 33.3303 33.0569 34.347C33.9171 35.3636 35.2465 35.8719 37.0452 35.8719H52.2946C54.0933 35.8719 55.3836 35.3636 56.1656 34.347C57.0259 33.3303 57.456 32.0791 57.456 30.5933C57.456 29.0292 57.0259 27.778 56.1656 26.8395C55.3836 25.8229 54.0933 25.3146 52.2946 25.3146H37.0452Z" fill="black"/>
<path d="M143.034 103.439C144.989 103.282 146.631 102.305 147.961 100.506C149.369 98.6292 150.072 96.205 150.072 93.2333V89.245H135.058C131.538 89.245 128.997 88.2674 127.433 86.3124C125.947 84.3573 125.204 82.1677 125.204 79.7434C125.204 78.5704 125.36 77.4364 125.673 76.3416C126.064 75.1685 126.651 74.1128 127.433 73.1744C128.215 72.236 129.231 71.493 130.483 70.9456C131.734 70.3982 133.259 70.1245 135.058 70.1245H225.147C226.945 70.1245 228.47 70.3982 229.721 70.9456C230.973 71.493 231.989 72.236 232.771 73.1744C233.553 74.1128 234.101 75.1685 234.413 76.3416C234.805 77.4364 235 78.5704 235 79.7434C235 82.1677 234.218 84.3573 232.654 86.3124C231.168 88.2674 228.666 89.245 225.147 89.245H215.528V117.867H191.715V89.245H172.947V93.2333C172.947 97.6908 172.243 101.601 170.835 104.964C169.506 108.248 167.668 110.985 165.322 113.175C163.054 115.365 160.395 117.007 157.345 118.102C154.373 119.275 151.206 119.9 147.844 119.978C146.436 119.978 144.95 119.822 143.386 119.509C141.9 119.196 140.493 118.688 139.163 117.984C137.912 117.28 136.895 116.342 136.113 115.169C135.331 113.996 134.979 112.549 135.058 110.829C135.214 108.639 135.996 106.919 137.404 105.667C138.811 104.338 140.688 103.595 143.034 103.439ZM191.598 20.0359C191.52 20.8962 191.441 21.7173 191.363 22.4993C191.363 23.2031 191.285 23.9461 191.129 24.7281C196.133 24.7281 201.021 25.5492 205.791 27.1915C210.64 28.7555 214.941 31.1798 218.695 34.4643C222.527 37.7488 225.694 41.9326 228.196 47.0157C230.699 52.0989 232.185 58.1205 232.654 65.0805H208.959C207.864 58.1205 204.97 52.7245 200.278 48.8926C195.586 44.9825 189.838 43.1056 183.035 43.262C180.454 46.7029 177.404 49.831 173.885 52.6463C170.366 55.3834 166.612 57.7294 162.624 59.6845C158.714 61.5614 154.647 63.0472 150.424 64.142C146.201 65.1587 142.057 65.667 137.99 65.667C135.097 65.667 132.594 64.885 130.483 63.3209C128.449 61.6787 127.315 59.4108 127.081 56.5173C126.846 53.702 127.472 51.2387 128.958 49.1272C130.522 47.0157 132.79 45.7254 135.761 45.2562C139.515 44.7088 143.151 43.6921 146.671 42.2063C150.268 40.7204 153.474 38.8436 156.289 36.5757C159.183 34.2297 161.607 31.5317 163.562 28.4818C165.595 25.3537 166.925 21.9128 167.551 18.1591C168.176 14.4054 169.701 11.6683 172.125 9.94783C174.55 8.14918 177.404 7.36715 180.689 7.60176C184.129 7.91457 186.827 9.12671 188.782 11.2382C190.816 13.3496 191.754 16.2822 191.598 20.0359Z" fill="black"/>
<path fill-rule="evenodd" clip-rule="evenodd" d="M81.2045 73.0266C79.8268 74.2479 77.8245 74.9166 75.1977 75.0329C74.9213 75.0452 74.6379 75.0513 74.3476 75.0513H16.8689C13.3498 75.0513 10.8473 74.152 9.36151 72.3533C7.87566 70.4765 7.13274 68.365 7.13274 66.0189C7.13274 63.6729 7.87566 61.6787 9.36151 60.0365C10.8473 58.316 13.3498 57.4558 16.8689 57.4558H33.0568V51.356H32.0011C30.3401 51.356 28.771 51.2565 27.2937 51.0574C25.4325 50.8066 23.7171 50.3978 22.1476 49.8311C19.4105 48.8144 17.1035 47.4068 15.2267 45.6081C13.3498 43.7313 11.9422 41.5416 11.0038 39.0392C10.1435 36.4585 9.71342 33.6432 9.71342 30.5933C9.71342 27.5434 10.1435 24.7281 11.0038 22.1475C11.9422 19.5668 13.3498 17.338 15.2267 15.4612C17.1035 13.5061 19.4105 12.0203 22.1476 11.0036C24.9629 9.9088 28.2474 9.36138 32.0011 9.36138H57.4559C61.2096 9.36138 64.455 9.9088 67.1921 11.0036C70.0074 12.0203 72.3143 13.5061 74.113 15.4612C75.9898 17.338 77.3584 19.5668 78.2186 22.1475C79.157 24.7281 79.6263 27.5434 79.6263 30.5933C79.6263 33.6432 79.157 36.4585 78.2186 39.0392C77.3584 41.5416 75.9898 43.7313 74.113 45.6081C72.3143 47.4068 70.0074 48.8144 67.1921 49.8311C65.6661 50.3978 63.9822 50.8066 62.1403 51.0574C60.6784 51.2565 59.1169 51.356 57.4559 51.356H55.1098V57.4558H74.3476C77.3962 57.4558 79.6818 58.1014 81.2045 59.3925C81.4395 59.5918 81.6564 59.8064 81.855 60.0365C83.3409 61.6787 84.0838 63.6729 84.0838 66.0189C84.0838 68.365 83.3409 70.4765 81.855 72.3533C81.6564 72.5938 81.4395 72.8182 81.2045 73.0266ZM87.6029 82.4414H110.829V52.4117H114.465C116.186 52.4117 117.633 52.138 118.806 51.5906C120.031 50.9779 120.994 50.2153 121.694 49.3026C121.709 49.2833 121.724 49.264 121.738 49.2445C122.377 48.3213 122.855 47.3335 123.172 46.2812C123.204 46.1748 123.234 46.0678 123.263 45.9601C123.576 44.7088 123.732 43.4967 123.732 42.3236C123.732 41.1506 123.576 39.9776 123.263 38.8045C122.95 37.5533 122.442 36.4585 121.738 35.52L126.857 31.681C128.111 33.3527 128.957 35.2254 129.458 37.2028C129.73 38.2313 129.921 39.2726 130.029 40.3238C131.51 39.6562 133.101 39.1987 134.763 38.9362L134.801 38.9303L134.838 38.9248C138.05 38.4565 141.16 37.5876 144.182 36.3119L144.205 36.3021L144.228 36.2926C147.299 35.0242 149.965 33.453 152.266 31.6005C154.642 29.6734 156.601 27.4855 158.176 25.0289L158.186 25.0118L158.197 24.9948C159.741 22.6197 160.755 20.0106 161.239 17.1073C162.059 12.189 164.228 7.73289 168.366 4.77001C172.122 2.00341 176.505 0.888368 181.144 1.21973L181.206 1.22414L181.268 1.22974C185.93 1.65362 190.203 3.38028 193.435 6.84584C196.605 10.1639 197.922 14.3746 198.008 18.7914C201.328 19.2409 204.599 20.0183 207.815 21.1215C213.44 22.9443 218.482 25.782 222.884 29.6278C227.438 33.5376 231.104 38.4353 233.937 44.1897C236.883 50.1733 238.525 57.0441 239.038 64.6501L239.498 71.4789H239.318C239.825 72.4116 240.228 73.3991 240.524 74.4344C241.107 76.1508 241.398 77.9301 241.398 79.7434C241.398 83.6463 240.106 87.2144 237.697 90.2511C234.538 94.3527 229.728 95.6434 225.146 95.6434H221.926V124.265H185.317V95.6434H179.283C179.064 99.8456 178.256 103.792 176.752 107.4C175.117 111.425 172.794 114.941 169.727 117.815C166.822 120.61 163.424 122.703 159.601 124.09C155.919 125.53 152.035 126.281 147.992 126.375L147.918 126.377H147.843C145.963 126.377 144.055 126.168 142.131 125.783L142.099 125.777L142.068 125.77C140.003 125.336 138.031 124.625 136.169 123.639L136.097 123.601L136.026 123.561C133.913 122.372 132.141 120.746 130.789 118.718C129.097 116.18 128.54 113.312 128.666 110.538L128.669 110.456L128.675 110.373C128.927 106.845 130.269 103.486 133.08 100.95C135.746 98.4665 139.066 97.311 142.496 97.0624C142.55 97.0168 142.661 96.9118 142.815 96.703L142.829 96.685L142.842 96.6671C143.014 96.4383 143.201 96.1134 143.354 95.6434H135.057C130.423 95.6434 125.652 94.329 122.436 90.3094L122.387 90.2473L122.339 90.184C120.018 87.1311 118.806 83.5855 118.806 79.7434C118.806 77.994 119.04 76.2675 119.521 74.5839L119.559 74.4502L119.603 74.3183C120.243 72.3979 121.218 70.6373 122.517 69.0783C123.229 68.2246 124.024 67.48 124.885 66.8373C122.508 64.3086 121.173 61.1617 120.77 57.7081C119.618 58.1646 118.426 58.4571 117.227 58.6252V88.8398H104.342C108.679 91.4644 112.373 94.9529 115.425 99.2164C118.919 103.985 121.141 109.709 122.29 116.159L123.629 123.679H87.6508L86.1441 119.41C85.5316 117.675 84.6439 116.35 83.5054 115.303C82.1978 114.1 80.735 113.229 79.0712 112.657L78.9875 112.628L78.9046 112.597C77.2143 111.963 75.2124 111.597 72.8227 111.597C70.8275 111.597 68.7746 111.841 66.6545 112.352C63.9556 114.354 60.9873 116.115 57.7704 117.649C54.1753 119.4 50.3519 120.787 46.3141 121.822C42.256 122.94 38.0829 123.668 33.8016 124.01C29.5125 124.354 25.2532 124.312 21.0288 123.88L21.0003 123.878L20.9718 123.874C16.4064 123.367 12.0308 121.67 8.99857 117.948C6.34964 114.773 5.06442 110.956 5.32093 106.805C5.56686 102.667 7.15604 98.9416 10.1158 95.9818C13.901 92.1967 19.0007 91.5905 23.6897 92.3027C26.2251 92.6824 28.6964 92.7132 31.1204 92.4087C33.7286 92.0123 35.9528 91.3778 37.8406 90.5568C39.8152 89.6543 41.2854 88.6248 42.3743 87.536L42.4245 87.4857L42.4759 87.4366C43.572 86.3881 44.1267 85.4116 44.3973 84.5047C44.7027 83.4602 45.0724 82.4356 45.5199 81.4497H16.8689C12.428 81.4497 7.64298 80.3194 4.42861 76.4283L4.38621 76.377L4.34489 76.3248C1.98393 73.3425 0.734375 69.8382 0.734375 66.0189C0.734375 62.2124 1.98439 58.6793 4.56978 55.796C6.67268 53.391 9.40394 52.1108 12.2493 51.509C11.7501 51.1022 11.2667 50.6753 10.7996 50.2277L10.7505 50.1806L10.7023 50.1325C8.17504 47.6052 6.26962 44.6373 5.01278 41.2858L4.97119 41.1749L4.93373 41.0625C3.83142 37.7556 3.31505 34.2485 3.31505 30.5933C3.31505 26.9381 3.83142 23.431 4.93373 20.1241L4.96107 20.0421L4.99061 19.9609C6.22973 16.5533 8.1185 13.5343 10.6564 10.9829C13.2318 8.3149 16.3441 6.34076 19.8742 5.0226C23.5721 3.59237 27.6576 2.96302 32.0011 2.96302H57.4559C61.7701 2.96302 65.8243 3.5839 69.4665 5.0224C73.0413 6.32879 76.1899 8.30303 78.7304 11.0305C79.8065 12.1186 80.7592 13.2925 81.5876 14.5459C82.2685 10.9977 83.9004 7.74187 86.8269 5.21902L86.8675 5.18409L86.9085 5.14984C90.4346 2.21146 94.6307 0.734253 99.2159 0.734253C103.815 0.734253 107.977 2.31189 111.455 5.30795C115.554 8.75128 117.227 13.5898 117.227 18.7457V26.0285C118.832 26.2614 120.431 26.7267 121.934 27.5284C123.823 28.5358 125.521 29.8994 126.857 31.681L121.738 35.52C121.034 34.5816 120.096 33.7996 118.923 33.174C117.75 32.5484 116.264 32.2355 114.465 32.2355H110.829V18.7457C110.829 14.9919 109.656 12.1376 107.31 10.1825C104.964 8.14925 102.266 7.13262 99.2159 7.13262C96.0878 7.13262 93.3508 8.11015 91.0047 10.0652C88.7368 12.0203 87.6029 14.9137 87.6029 18.7457V82.4414ZM81.2045 47.1007V52.1418C79.9821 51.6995 78.7102 51.415 77.4338 51.2488C77.8479 50.8925 78.2493 50.5205 78.6373 50.1325C79.5857 49.1841 80.4421 48.1725 81.2045 47.1007ZM53.0039 81.4497C52.9232 81.544 52.8431 81.64 52.7638 81.7376C51.8253 82.9106 51.0824 84.4356 50.535 86.3124C49.9094 88.4239 48.6973 90.3398 46.8986 92.0603C45.1781 93.7807 43.0276 95.2275 40.4469 96.4005C37.9444 97.4954 35.1292 98.2774 32.0011 98.7466C28.9512 99.1376 25.8622 99.0985 22.7341 98.6293C19.1368 98.0819 16.4388 98.7075 14.6402 100.506C12.8415 102.305 11.864 104.534 11.7076 107.192C11.5512 109.695 12.2941 111.924 13.9363 113.879C15.5786 115.912 18.1593 117.124 21.6784 117.515C25.5103 117.906 29.3813 117.945 33.2914 117.632C37.2015 117.32 40.9943 116.655 44.6698 115.638C48.3453 114.7 51.7862 113.449 54.9925 111.885C58.277 110.321 61.2096 108.522 63.7903 106.489C66.8402 105.628 69.851 105.198 72.8227 105.198C75.8725 105.198 78.6487 105.667 81.1512 106.606C83.6537 107.466 85.8824 108.796 87.8375 110.594C89.7925 112.393 91.2393 114.622 92.1777 117.281H115.99C115.584 114.998 115.033 112.865 114.339 110.882C113.298 107.907 111.932 105.269 110.242 102.97C107.505 99.1376 104.221 96.1268 100.389 93.9371C96.557 91.7475 92.3732 90.3007 87.8375 89.5969C85.4802 89.2311 83.1334 89.0343 80.7972 89.0065C78.6383 88.9808 76.4884 89.0994 74.3476 89.3623C74.6133 86.812 74.3555 84.6948 73.5743 83.0109C73.3098 82.4408 72.9854 81.9204 72.601 81.4497C72.4496 81.2642 72.2889 81.0865 72.1188 80.9165C70.3202 78.9614 67.8959 77.7884 64.846 77.3974C63.282 77.241 61.757 77.2801 60.2712 77.5147C58.7853 77.6711 57.4168 78.1012 56.1656 78.805C55.012 79.4539 53.9581 80.3355 53.0039 81.4497ZM79.6087 80.8316C79.8495 81.411 80.0511 82.0032 80.217 82.6047C80.546 82.6047 80.8752 82.6076 81.2045 82.6135V80.3338C80.6809 80.5281 80.1478 80.693 79.6087 80.8316ZM127.081 56.5174C127.315 59.4108 128.449 61.6787 130.483 63.321C130.822 63.5725 131.172 63.8038 131.532 64.0149C132.615 64.6506 133.79 65.1028 135.057 65.3716C135.986 65.5686 136.963 65.667 137.99 65.667C142.057 65.667 146.201 65.1587 150.424 64.1421C150.937 64.0092 151.447 63.8706 151.955 63.7262C155.632 62.6808 159.188 61.3336 162.624 59.6846C166.612 57.7295 170.366 55.3834 173.885 52.6463C177.404 49.8311 180.454 46.703 183.035 43.2621C189.838 43.1057 195.586 44.9825 200.278 48.8926C204.661 52.4723 207.475 57.4168 208.719 63.7262C208.807 64.1709 208.887 64.6223 208.959 65.0805H232.654C232.504 62.8515 232.249 60.7187 231.89 58.6821C231.129 54.3598 229.897 50.471 228.196 47.0158C225.694 41.9326 222.527 37.7488 218.695 34.4643C214.941 31.1798 210.64 28.7555 205.791 27.1915C203.08 26.2582 200.332 25.5901 197.545 25.1872C195.428 24.8812 193.289 24.7281 191.128 24.7281C191.285 23.9461 191.363 23.2032 191.363 22.4994C191.441 21.7173 191.519 20.8962 191.598 20.036C191.622 19.4478 191.62 18.8797 191.591 18.3318C191.433 15.3833 190.497 13.0188 188.782 11.2382C186.827 9.12678 184.129 7.91464 180.688 7.60183C177.404 7.36723 174.55 8.14925 172.125 9.9479C169.701 11.6684 168.176 14.4054 167.55 18.1591C166.925 21.9129 165.595 25.3538 163.562 28.4818C161.607 31.5317 159.183 34.2297 156.289 36.5758C153.474 38.8436 150.268 40.7205 146.67 42.2063C143.151 43.6922 139.515 44.7088 135.761 45.2562C132.796 45.7245 130.531 47.0103 128.968 49.1138C128.964 49.1183 128.961 49.1228 128.958 49.1273C128.301 50.061 127.812 51.0635 127.491 52.1348C127.087 53.4862 126.95 54.947 127.081 56.5174ZM202.168 63.7262C201.077 59.3056 199.034 56.1378 196.231 53.8484L196.206 53.8283L196.182 53.808C193.431 51.5152 190.129 50.1144 186.04 49.748C183.616 52.6027 180.893 55.2338 177.882 57.6426L177.848 57.67L177.813 57.6969C174.922 59.9459 171.883 61.9563 168.7 63.7262H202.168ZM135.057 70.1246C133.445 70.1246 132.053 70.3445 130.881 70.7843C130.745 70.8351 130.612 70.8889 130.483 70.9457C129.231 71.4931 128.215 72.236 127.433 73.1744C126.651 74.1129 126.064 75.1686 125.673 76.3416C125.36 77.4365 125.204 78.5704 125.204 79.7434C125.204 82.1677 125.947 84.3574 127.433 86.3124C128.997 88.2675 131.538 89.245 135.057 89.245H150.072V93.2333C150.072 94.0813 150.015 94.8846 149.9 95.6434C149.613 97.5439 148.967 99.1648 147.961 100.506C146.631 102.305 144.989 103.282 143.034 103.439C140.688 103.595 138.811 104.338 137.404 105.667C135.996 106.919 135.214 108.639 135.057 110.829C134.979 112.549 135.331 113.996 136.113 115.169C136.895 116.342 137.912 117.281 139.163 117.984C140.492 118.688 141.9 119.196 143.386 119.509C144.95 119.822 146.436 119.979 147.843 119.979C151.206 119.9 154.373 119.275 157.345 118.102C160.395 117.007 163.054 115.365 165.322 113.175C167.668 110.985 169.506 108.248 170.835 104.964C172.243 101.601 172.946 97.6909 172.946 93.2333V89.245H191.715V117.867H215.528V89.245H225.146C228.666 89.245 231.168 88.2675 232.654 86.3124C234.218 84.3574 235 82.1677 235 79.7434C235 78.5704 234.804 77.4365 234.413 76.3416C234.101 75.1686 233.553 74.1129 232.771 73.1744C232.219 72.5118 231.55 71.9466 230.763 71.4789C230.436 71.2843 230.089 71.1065 229.721 70.9457C228.47 70.3983 226.945 70.1246 225.146 70.1246H135.057ZM33.0568 26.8396C33.917 25.823 35.2465 25.3147 37.0451 25.3147H52.2946C54.0932 25.3147 55.3835 25.823 56.1656 26.8396C57.0258 27.778 57.4559 29.0293 57.4559 30.5933C57.4559 32.0791 57.0258 33.3304 56.1656 34.347C55.3835 35.3636 54.0932 35.872 52.2946 35.872H37.0451C35.2465 35.872 33.917 35.3636 33.0568 34.347C32.2748 33.3304 31.8838 32.0791 31.8838 30.5933C31.8838 29.0293 32.2748 27.778 33.0568 26.8396ZM52.5106 29.463C52.5106 29.463 52.5097 29.4632 52.5079 29.4634L52.5106 29.463Z" fill="black"/>
<path d="M52.9771 49.2234V55.3232H72.2149C75.734 55.3232 78.2364 56.1834 79.7223 57.9038C81.2081 59.5461 81.951 61.5402 81.951 63.8863C81.951 66.2324 81.2081 68.3438 79.7223 70.2207C78.2364 72.0194 75.734 72.9187 72.2149 72.9187H14.7362C11.2171 72.9187 8.71461 72.0194 7.22876 70.2207C5.74292 68.3438 5 66.2324 5 63.8863C5 61.5402 5.74292 59.5461 7.22876 57.9038C8.71461 56.1834 11.2171 55.3232 14.7362 55.3232H30.9241V49.2234H29.8683C26.1146 49.2234 22.8301 48.7151 20.0148 47.6984C17.2778 46.6818 14.9708 45.2742 13.0939 43.4755C11.2171 41.5987 9.80944 39.409 8.87101 36.9065C8.01079 34.3259 7.58067 31.5106 7.58067 28.4607C7.58067 25.4108 8.01079 22.5955 8.87101 20.0148C9.80944 17.4342 11.2171 15.2054 13.0939 13.3285C14.9708 11.3735 17.2778 9.88764 20.0148 8.87101C22.8301 7.77618 26.1146 7.22876 29.8683 7.22876H55.3232C59.0769 7.22876 62.3223 7.77618 65.0593 8.87101C67.8746 9.88764 70.1816 11.3735 71.9802 13.3285C73.8571 15.2054 75.2256 17.4342 76.0859 20.0148C77.0243 22.5955 77.4935 25.4108 77.4935 28.4607C77.4935 31.5106 77.0243 34.3259 76.0859 36.9065C75.2256 39.409 73.8571 41.5987 71.9802 43.4755C70.1816 45.2742 67.8746 46.6818 65.0593 47.6984C62.3223 48.7151 59.0769 49.2234 55.3232 49.2234H52.9771ZM90.045 115.148C89.1065 112.489 87.6598 110.26 85.7048 108.462C83.7497 106.663 81.5209 105.334 79.0184 104.473C76.516 103.535 73.7398 103.066 70.6899 103.066C67.7182 103.066 64.7074 103.496 61.6575 104.356C59.0769 106.389 56.1443 108.188 52.8598 109.752C49.6535 111.316 46.2126 112.567 42.5371 113.506C38.8616 114.522 35.0688 115.187 31.1587 115.5C27.2485 115.813 23.3775 115.774 19.5456 115.383C16.0265 114.992 13.4458 113.779 11.8036 111.746C10.1613 109.791 9.41843 107.562 9.57483 105.06C9.73124 102.401 10.7088 100.172 12.5074 98.3735C14.3061 96.5749 17.004 95.9493 20.6014 96.4967C23.7294 96.9659 26.8184 97.005 29.8683 96.614C32.9964 96.1448 35.8117 95.3627 38.3142 94.2679C40.8948 93.0949 43.0454 91.6481 44.7659 89.9277C46.5645 88.2072 47.7766 86.2913 48.4023 84.1798C48.9497 82.3029 49.6926 80.778 50.631 79.605C51.6477 78.3537 52.7816 77.3762 54.0328 76.6724C55.2841 75.9686 56.6526 75.5385 58.1384 75.382C59.6243 75.1474 61.1492 75.1084 62.7133 75.2648C65.7632 75.6558 68.1874 76.8288 69.9861 78.7839C71.8629 80.6607 72.6059 83.476 72.2149 87.2297C76.6724 86.6823 81.169 86.7605 85.7048 87.4643C90.2405 88.1681 94.4243 89.6149 98.2562 91.8045C102.088 93.9942 105.373 97.005 108.11 100.837C110.925 104.669 112.841 109.439 113.858 115.148H90.045ZM85.4701 16.613C85.4701 12.7811 86.6041 9.88764 88.8719 7.93258C91.218 5.97753 93.9551 5 97.0832 5C100.133 5 102.831 6.01663 105.177 8.04989C107.523 10.0049 108.696 12.8593 108.696 16.613V30.1029H112.333C114.131 30.1029 115.617 30.4157 116.79 31.0414C117.963 31.667 118.902 32.449 119.605 33.3874C120.309 34.3259 120.818 35.4207 121.13 36.6719C121.443 37.845 121.6 39.018 121.6 40.191C121.6 41.3641 121.443 42.5762 121.13 43.8274C120.818 45.0005 120.309 46.0953 119.605 47.1119C118.902 48.0504 117.924 48.8324 116.673 49.458C115.5 50.0054 114.053 50.2791 112.333 50.2791H108.696V80.3088H85.4701V16.613ZM34.9124 23.182C33.1137 23.182 31.7843 23.6903 30.9241 24.707C30.142 25.6454 29.751 26.8966 29.751 28.4607C29.751 29.9465 30.142 31.1978 30.9241 32.2144C31.7843 33.231 33.1137 33.7393 34.9124 33.7393H50.1618C51.9605 33.7393 53.2508 33.231 54.0328 32.2144C54.893 31.1978 55.3232 29.9465 55.3232 28.4607C55.3232 26.8966 54.893 25.6454 54.0328 24.707C53.2508 23.6903 51.9605 23.182 50.1618 23.182H34.9124Z" fill="white"/>
<path d="M140.901 101.306C142.856 101.15 144.499 100.172 145.828 98.3735C147.236 96.4967 147.94 94.0724 147.94 91.1007V87.1124H132.925C129.406 87.1124 126.864 86.1349 125.3 84.1798C123.814 82.2247 123.071 80.0351 123.071 77.6108C123.071 76.4378 123.228 75.3038 123.54 74.209C123.931 73.036 124.518 71.9803 125.3 71.0418C126.082 70.1034 127.099 69.3605 128.35 68.8131C129.601 68.2656 131.126 67.9919 132.925 67.9919H223.014C224.812 67.9919 226.337 68.2656 227.589 68.8131C228.84 69.3605 229.856 70.1034 230.638 71.0418C231.42 71.9803 231.968 73.036 232.281 74.209C232.672 75.3038 232.867 76.4378 232.867 77.6108C232.867 80.0351 232.085 82.2247 230.521 84.1798C229.035 86.1349 226.533 87.1124 223.014 87.1124H213.395V115.734H189.582V87.1124H170.814V91.1007C170.814 95.5582 170.11 99.4684 168.702 102.831C167.373 106.116 165.535 108.853 163.189 111.042C160.921 113.232 158.262 114.874 155.212 115.969C152.241 117.142 149.073 117.768 145.711 117.846C144.303 117.846 142.817 117.689 141.253 117.377C139.767 117.064 138.36 116.556 137.03 115.852C135.779 115.148 134.762 114.209 133.98 113.036C133.198 111.863 132.846 110.417 132.925 108.696C133.081 106.507 133.863 104.786 135.271 103.535C136.678 102.205 138.555 101.463 140.901 101.306ZM189.465 17.9034C189.387 18.7636 189.309 19.5847 189.23 20.3667C189.23 21.0706 189.152 21.8135 188.996 22.5955C194.001 22.5955 198.888 23.4166 203.659 25.0589C208.507 26.6229 212.808 29.0472 216.562 32.3317C220.394 35.6162 223.561 39.8 226.064 44.8832C228.566 49.9663 230.052 55.9879 230.521 62.9479H206.826C205.731 55.9879 202.838 50.5919 198.145 46.76C193.453 42.8499 187.705 40.973 180.902 41.1295C178.321 44.5704 175.271 47.6984 171.752 50.5137C168.233 53.2508 164.479 55.5969 160.491 57.5519C156.581 59.4288 152.514 60.9146 148.291 62.0095C144.069 63.0261 139.924 63.5344 135.857 63.5344C132.964 63.5344 130.461 62.7524 128.35 61.1883C126.317 59.5461 125.183 57.2782 124.948 54.3847C124.713 51.5695 125.339 49.1061 126.825 46.9946C128.389 44.8832 130.657 43.5928 133.629 43.1236C137.382 42.5762 141.019 41.5596 144.538 40.0737C148.135 38.5879 151.341 36.711 154.157 34.4432C157.05 32.0971 159.474 29.3991 161.429 26.3492C163.463 23.2211 164.792 19.7802 165.418 16.0265C166.043 12.2728 167.568 9.53571 169.993 7.81526C172.417 6.01661 175.271 5.23459 178.556 5.46919C181.997 5.782 184.695 6.99414 186.65 9.1056C188.683 11.2171 189.621 14.1497 189.465 17.9034Z" fill="white"/>
</svg>
