<svg width="188" height="99" viewBox="0 0 188 99" fill="none" xmlns="http://www.w3.org/2000/svg">
<path d="M42.8127 40.0334V44.7883H57.7577C60.4916 44.7883 62.4356 45.459 63.5899 46.8001C64.7442 48.0803 65.3213 49.6347 65.3213 51.4636C65.3213 53.2924 64.7442 54.9383 63.5899 56.4014C62.4356 57.8035 60.4916 58.5045 57.7577 58.5045H13.1048C10.371 58.5045 8.42691 57.8035 7.27263 56.4014C6.11834 54.9383 5.54119 53.2924 5.54119 51.4636C5.54119 49.6347 6.11834 48.0803 7.27263 46.8001C8.42691 45.459 10.371 44.7883 13.1048 44.7883H25.6806V40.0334H24.8604C21.9443 40.0334 19.3927 39.6371 17.2056 38.8447C15.0793 38.0522 13.2871 36.9549 11.829 35.5528C10.371 34.0897 9.27749 32.3828 8.54841 30.4321C7.88015 28.4204 7.54602 26.2257 7.54602 23.8483C7.54602 21.4709 7.88015 19.2763 8.54841 17.2645C9.27749 15.2528 10.371 13.5155 11.829 12.0524C13.2871 10.5284 15.0793 9.3701 17.2056 8.57763C19.3927 7.72417 21.9443 7.29744 24.8604 7.29744H44.6352C47.5513 7.29744 50.0726 7.72417 52.1989 8.57763C54.3859 9.3701 56.1781 10.5284 57.5755 12.0524C59.0335 13.5155 60.0967 15.2528 60.7649 17.2645C61.4939 19.2763 61.8584 21.4709 61.8584 23.8483C61.8584 26.2257 61.4939 28.4204 60.7649 30.4321C60.0967 32.3828 59.0335 34.0897 57.5755 35.5528C56.1781 36.9549 54.3859 38.0522 52.1989 38.8447C50.0726 39.6371 47.5513 40.0334 44.6352 40.0334H42.8127ZM71.6092 91.423C70.8802 89.351 69.7562 87.6135 68.2375 86.2111C66.7186 84.8095 64.9872 83.7727 63.0432 83.1023C61.0991 82.3704 58.9423 82.0048 56.573 82.0048C54.2644 82.0048 51.9254 82.34 49.5562 83.0111C47.5513 84.5959 45.2731 85.9975 42.7215 87.2175C40.2307 88.4367 37.5576 89.4118 34.7022 90.143C31.8469 90.9358 28.9004 91.4542 25.8628 91.6974C22.8252 91.9414 19.8179 91.911 16.8411 91.6062C14.1072 91.3014 12.1025 90.3566 10.8266 88.7719C9.55087 87.2479 8.97366 85.5103 9.09516 83.5592C9.21674 81.4872 9.97612 79.7496 11.3734 78.3472C12.7707 76.9452 14.8667 76.4575 17.6613 76.8842C20.0914 77.25 22.491 77.2804 24.8604 76.9756C27.2905 76.6099 29.4775 76.0003 31.4216 75.1469C33.4265 74.2324 35.0971 73.1047 36.4337 71.7635C37.831 70.4224 38.7727 68.9288 39.2587 67.2829C39.6839 65.8198 40.2611 64.6311 40.9901 63.7167C41.7799 62.7413 42.6608 61.9793 43.6328 61.4307C44.6049 60.882 45.668 60.5467 46.8223 60.4248C47.9766 60.2419 49.1612 60.2114 50.3763 60.3334C52.7457 60.6382 54.629 61.5526 56.0262 63.0766C57.4843 64.5397 58.0615 66.7343 57.7577 69.6604C61.2206 69.2336 64.7138 69.2946 68.2375 69.8433C71.7611 70.3919 75.0113 71.5197 77.9882 73.2266C80.9651 74.9335 83.5163 77.2804 85.6433 80.2672C87.8302 83.2544 89.3186 86.9735 90.1079 91.423H71.6092ZM68.0551 14.6127C68.0551 11.6257 68.9361 9.3701 70.6979 7.84612C72.5205 6.32207 74.6468 5.56006 77.0769 5.56006C79.4463 5.56006 81.5423 6.35255 83.3648 7.93756C85.1873 9.46154 86.0986 11.6866 86.0986 14.6127V25.1285H88.9232C90.3208 25.1285 91.4752 25.3723 92.3865 25.86C93.2977 26.3477 94.0264 26.9573 94.5733 27.6888C95.1202 28.4204 95.5149 29.2739 95.758 30.2492C96.0012 31.1636 96.1224 32.0781 96.1224 32.9924C96.1224 33.9068 96.0012 34.8518 95.758 35.8271C95.5149 36.7415 95.1202 37.595 94.5733 38.3875C94.0264 39.119 93.2674 39.7286 92.2956 40.2163C91.3843 40.643 90.2602 40.8564 88.9232 40.8564H86.0986V64.2654H68.0551V14.6127ZM28.7789 19.7335C27.3816 19.7335 26.3488 20.1297 25.6806 20.9222C25.073 21.6537 24.7692 22.6291 24.7692 23.8483C24.7692 25.0066 25.073 25.9819 25.6806 26.7745C26.3488 27.5669 27.3816 27.9632 28.7789 27.9632H40.6256C42.0229 27.9632 43.0253 27.5669 43.6328 26.7745C44.3011 25.9819 44.6352 25.0066 44.6352 23.8483C44.6352 22.6291 44.3011 21.6537 43.6328 20.9222C43.0253 20.1297 42.0229 19.7335 40.6256 19.7335H28.7789Z" fill="black"/>
<path d="M111.117 80.6336C112.636 80.5112 113.912 79.7496 114.945 78.3472C116.039 76.8842 116.585 74.9945 116.585 72.6779V69.569H104.921C102.187 69.569 100.213 68.8069 98.9975 67.2829C97.8431 65.7589 97.2659 64.052 97.2659 62.1622C97.2659 61.2478 97.3871 60.3638 97.6303 59.5104C97.934 58.5959 98.39 57.773 98.9975 57.0415C99.605 56.31 100.394 55.7308 101.367 55.3041C102.339 54.8774 103.524 54.664 104.921 54.664H174.908C176.304 54.664 177.489 54.8774 178.461 55.3041C179.434 55.7308 180.223 56.31 180.83 57.0415C181.438 57.773 181.864 58.5959 182.106 59.5104C182.41 60.3638 182.562 61.2478 182.562 62.1622C182.562 64.052 181.954 65.7589 180.739 67.2829C179.585 68.8069 177.641 69.569 174.908 69.569H167.435V91.8806H148.936V69.569H134.356V72.6779C134.356 76.1527 133.809 79.2008 132.715 81.8223C131.682 84.3823 130.254 86.5159 128.432 88.2231C126.67 89.9302 124.604 91.2102 122.235 92.0638C119.926 92.9782 117.466 93.4654 114.854 93.5262C113.76 93.5262 112.606 93.4046 111.391 93.1606C110.236 92.9166 109.143 92.5206 108.11 91.9718C107.138 91.423 106.348 90.6918 105.741 89.7774C105.133 88.863 104.86 87.7351 104.921 86.3943C105.042 84.6871 105.65 83.3463 106.744 82.3704C107.837 81.3344 109.295 80.7552 111.117 80.6336ZM148.845 15.6186C148.784 16.2892 148.723 16.9293 148.662 17.5388C148.662 18.0875 148.602 18.6667 148.48 19.2763C152.368 19.2763 156.165 19.9163 159.871 21.1965C163.638 22.4157 166.979 24.3055 169.895 26.8659C172.872 29.4262 175.333 32.6876 177.276 36.6501C179.221 40.6126 180.375 45.3066 180.739 50.7321H162.332C161.481 45.3066 159.233 41.1002 155.588 38.1132C151.943 35.0651 147.477 33.602 142.192 33.7239C140.187 36.4062 137.818 38.8447 135.084 41.0393C132.35 43.1729 129.434 45.0017 126.336 46.5257C123.298 47.9888 120.139 49.147 116.858 50.0005C113.578 50.793 110.358 51.1893 107.199 51.1893C104.951 51.1893 103.007 50.5797 101.367 49.3604C99.7868 48.0803 98.9059 46.3124 98.7241 44.0568C98.5415 41.8622 99.0278 39.942 100.182 38.296C101.397 36.6501 103.159 35.6442 105.467 35.2785C108.384 34.8518 111.208 34.0592 113.943 32.901C116.737 31.7427 119.228 30.2797 121.415 28.5118C123.663 26.683 125.546 24.5798 127.065 22.2024C128.644 19.7639 129.677 17.0817 130.164 14.1555C130.649 11.2294 131.834 9.09578 133.717 7.75464C135.601 6.35255 137.818 5.74293 140.37 5.92582C143.042 6.16966 145.138 7.11456 146.657 8.76051C148.237 10.4064 148.966 12.6924 148.845 15.6186Z" fill="black"/>
<path fill-rule="evenodd" clip-rule="evenodd" d="M63.0845 56.9263C62.0142 57.8783 60.4587 58.3996 58.418 58.4902C58.2033 58.4998 57.9832 58.5046 57.7576 58.5046H13.1048C10.3709 58.5046 8.42683 57.8036 7.27258 56.4014C6.11828 54.9384 5.54113 53.2924 5.54113 51.4636C5.54113 49.6348 6.11828 48.0803 7.27258 46.8001C8.42683 45.459 10.3709 44.7884 13.1048 44.7884H25.6805V40.0334H24.8604C23.57 40.0334 22.351 39.9559 21.2034 39.8007C19.7575 39.6052 18.4249 39.2865 17.2056 38.8447C15.0792 38.0522 13.287 36.9549 11.829 35.5528C10.3709 34.0898 9.27741 32.3828 8.5484 30.4322C7.88007 28.4204 7.54596 26.2258 7.54596 23.8483C7.54596 21.4709 7.88007 19.2763 8.5484 17.2646C9.27741 15.2529 10.3709 13.5155 11.829 12.0524C13.287 10.5284 15.0792 9.37017 17.2056 8.57763C19.3927 7.7242 21.9443 7.29747 24.8604 7.29747H44.6352C47.5513 7.29747 50.0725 7.7242 52.1988 8.57763C54.3859 9.37017 56.178 10.5284 57.5754 12.0524C59.0334 13.5155 60.0966 15.2529 60.7649 17.2646C61.4939 19.2763 61.8584 21.4709 61.8584 23.8483C61.8584 26.2258 61.4939 28.4204 60.7649 30.4322C60.0966 32.3828 59.0334 34.0898 57.5754 35.5528C56.178 36.9549 54.3859 38.0522 52.1988 38.8447C51.0133 39.2865 49.7052 39.6052 48.2743 39.8007C47.1386 39.9559 45.9255 40.0334 44.6352 40.0334H42.8126V44.7884H57.7576C60.126 44.7884 61.9016 45.2917 63.0845 46.2981C63.267 46.4535 63.4356 46.6208 63.5898 46.8001C64.7442 48.0803 65.3213 49.6348 65.3213 51.4636C65.3213 53.2924 64.7442 54.9384 63.5898 56.4014C63.4356 56.5889 63.267 56.7638 63.0845 56.9263ZM68.0551 64.2654H86.0986V40.8564H88.9232C90.2602 40.8564 91.3843 40.643 92.2956 40.2163C93.2472 39.7387 93.9953 39.1442 94.5391 38.4328C94.5508 38.4177 94.5624 38.4027 94.5733 38.3875C95.0697 37.6678 95.4411 36.8978 95.6873 36.0775C95.7122 35.9945 95.7355 35.9111 95.758 35.8272C96.0012 34.8518 96.1224 33.9069 96.1224 32.9924C96.1224 32.078 96.0012 31.1637 95.758 30.2492C95.5149 29.2739 95.1202 28.4204 94.5733 27.6888L98.5501 24.6962C99.5242 25.9994 100.181 27.4592 100.571 29.0006C100.782 29.8024 100.93 30.6141 101.014 31.4335C102.165 30.9131 103.401 30.5565 104.692 30.3519L104.721 30.3473L104.75 30.343C107.245 29.9779 109.661 29.3006 112.009 28.3061L112.027 28.2985L112.045 28.2911C114.431 27.3023 116.502 26.0776 118.289 24.6335C120.135 23.1313 121.657 21.4257 122.881 19.5107L122.888 19.4974L122.897 19.4842C124.096 17.6327 124.884 15.5988 125.26 13.3356C125.897 9.50168 127.582 6.02802 130.797 3.71837C133.715 1.56173 137.12 0.692525 140.723 0.95083L140.772 0.954268L140.82 0.958634C144.441 1.28906 147.761 2.63504 150.272 5.33654C152.734 7.92306 153.758 11.2054 153.824 14.6484C156.404 14.9988 158.945 15.6048 161.443 16.4648C165.813 17.8857 169.73 20.0978 173.15 23.0957C176.687 26.1435 179.535 29.9614 181.736 34.4471C184.025 39.1115 185.3 44.4675 185.699 50.3966L186.056 55.7198H185.916C186.31 56.4469 186.623 57.2166 186.853 58.0237C187.306 59.3617 187.532 60.7487 187.532 62.1622C187.532 65.2046 186.529 67.986 184.657 70.3532C182.203 73.5506 178.466 74.5567 174.907 74.5567H172.405V96.868H143.965V74.5567H139.278C139.108 77.8324 138.48 80.9087 137.311 83.7213C136.041 86.8589 134.237 89.5997 131.854 91.8401C129.597 94.0188 126.957 95.6504 123.988 96.7316C121.127 97.8541 118.11 98.4395 114.969 98.5128L114.912 98.5144H114.853C113.393 98.5144 111.91 98.3515 110.416 98.0513L110.391 98.0467L110.367 98.0412C108.763 97.7029 107.231 97.1486 105.784 96.38L105.728 96.3504L105.673 96.3192C104.032 95.3924 102.655 94.1249 101.605 92.544C100.29 90.5655 99.8575 88.3298 99.9554 86.1674L99.9577 86.1035L99.9624 86.0388C100.158 83.2886 101.201 80.6702 103.384 78.6933C105.456 76.7574 108.035 75.8566 110.699 75.6628C110.741 75.6273 110.828 75.5454 110.947 75.3827L110.958 75.3686L110.968 75.3547C111.102 75.1763 111.247 74.9231 111.366 74.5567H104.92C101.32 74.5567 97.6139 73.5321 95.1156 70.3987L95.0775 70.3503L95.0402 70.3009C93.2371 67.9211 92.2956 65.1572 92.2956 62.1622C92.2956 60.7985 92.4774 59.4526 92.851 58.1402L92.8805 58.036L92.9147 57.9332C93.4119 56.4362 94.1693 55.0637 95.1785 53.8485C95.7316 53.183 96.3492 52.6025 97.0181 52.1015C95.1715 50.1303 94.1344 47.6772 93.8213 44.9851C92.9264 45.3409 92.0004 45.5689 91.0689 45.7V69.2531H81.0591C84.4283 71.299 87.298 74.0184 89.669 77.3419C92.3834 81.0592 94.1095 85.5212 95.0022 90.5492L96.0424 96.4112H68.0924L66.9219 93.0834C66.446 91.7309 65.7564 90.6981 64.872 89.8819C63.8561 88.9441 62.7197 88.2651 61.4272 87.8193L61.3622 87.7967L61.2978 87.7725C59.9847 87.2783 58.4295 86.993 56.573 86.993C55.023 86.993 53.4282 87.1832 51.7812 87.5815C49.6845 89.1421 47.3786 90.5149 44.8795 91.7107C42.0866 93.0756 39.1163 94.1568 35.9795 94.9636C32.827 95.8351 29.5851 96.4026 26.2591 96.6692C22.9271 96.9374 19.6182 96.9046 16.3364 96.5679L16.3143 96.5663L16.2921 96.5632C12.7455 96.168 9.34624 94.8451 6.99062 91.9437C4.93278 89.4687 3.93434 86.4933 4.13361 83.2575C4.32467 80.0318 5.55923 77.1277 7.85855 74.8205C10.7991 71.8699 14.7609 71.3973 18.4036 71.9525C20.3732 72.2485 22.2931 72.2725 24.1762 72.0351C26.2024 71.7261 27.9303 71.2315 29.3968 70.5915C30.9308 69.888 32.073 69.0855 32.9189 68.2367L32.9579 68.1975L32.9978 68.1593C33.8493 67.3419 34.2802 66.5807 34.4905 65.8738C34.7277 65.0595 35.0149 64.2608 35.3626 63.4923H13.1048C9.65481 63.4923 5.93752 62.6112 3.4404 59.578L3.40747 59.538L3.37537 59.4973C1.54123 57.1725 0.570503 54.4408 0.570503 51.4636C0.570503 48.4963 1.54159 45.7422 3.55007 43.4945C5.18373 41.6198 7.30554 40.6218 9.51598 40.1527C9.12817 39.8356 8.75264 39.5028 8.38977 39.1539L8.35162 39.1172L8.31418 39.0797C6.35085 37.1096 4.87061 34.796 3.89422 32.1834L3.86191 32.097L3.83281 32.0094C2.97647 29.4315 2.57533 26.6977 2.57533 23.8483C2.57533 20.999 2.97647 18.2651 3.83281 15.6873L3.85405 15.6234L3.877 15.5601C4.83962 12.9038 6.30693 10.5504 8.27852 8.56149C10.2792 6.48171 12.6971 4.94281 15.4395 3.91527C18.3122 2.80037 21.4861 2.30977 24.8604 2.30977H44.6352C47.9867 2.30977 51.1362 2.79377 53.9657 3.91512C56.7428 4.93348 59.1888 6.47246 61.1625 8.5986C61.9984 9.4468 62.7386 10.3619 63.3821 11.3389C63.9111 8.57303 65.1788 6.03502 67.4523 4.06839L67.4838 4.04116L67.5157 4.01446C70.255 1.72391 73.5148 0.572388 77.0768 0.572388C80.6497 0.572388 83.883 1.8022 86.5849 4.13771C89.7692 6.82188 91.0689 10.5936 91.0689 14.6128V20.29C92.3158 20.4715 93.558 20.8342 94.7256 21.4592C96.1931 22.2445 97.5122 23.3074 98.5501 24.6962L94.5733 27.6888C94.0264 26.9573 93.2977 26.3477 92.3865 25.8601C91.4752 25.3724 90.3208 25.1285 88.9232 25.1285H86.0986V14.6128C86.0986 11.6866 85.1873 9.46161 83.3648 7.93756C81.5423 6.35258 79.4463 5.56009 77.0768 5.56009C74.6467 5.56009 72.5205 6.3221 70.6979 7.84612C68.936 9.37017 68.0551 11.6257 68.0551 14.6128V64.2654ZM63.0845 36.7163V40.646C62.1349 40.3012 61.1468 40.0794 60.1552 39.9499C60.4769 39.6721 60.7887 39.3821 61.0901 39.0797C61.8269 38.3404 62.4922 37.5518 63.0845 36.7163ZM41.1766 63.4923C41.1139 63.5658 41.0517 63.6407 40.9901 63.7167C40.261 64.6311 39.6838 65.8199 39.2586 67.2829C38.7726 68.9289 37.831 70.4224 36.4336 71.7636C35.097 73.1047 33.4264 74.2325 31.4216 75.1469C29.4775 76.0004 27.2904 76.61 24.8604 76.9757C22.491 77.2805 20.0913 77.25 17.6612 76.8843C14.8666 76.4576 12.7706 76.9452 11.3734 78.3472C9.97604 79.7496 9.21666 81.4872 9.09516 83.5591C8.97366 85.5103 9.55079 87.2479 10.8265 88.7718C12.1024 90.3566 14.1072 91.3014 16.8411 91.6062C19.8179 91.911 22.8251 91.9414 25.8627 91.6974C28.9003 91.4542 31.8468 90.9358 34.7022 90.143C37.5575 89.4118 40.2306 88.4366 42.7214 87.2175C45.273 85.9983 47.5513 84.5959 49.5561 83.0111C51.9254 82.34 54.2644 82.0048 56.573 82.0048C58.9423 82.0048 61.099 82.3704 63.0431 83.1023C64.9872 83.7727 66.7186 84.8095 68.2374 86.2111C69.7562 87.6135 70.8801 89.351 71.6091 91.4238H90.1079C89.7925 89.6441 89.3645 87.9814 88.8253 86.4356C88.0166 84.1165 86.9554 82.0601 85.6425 80.268C83.5163 77.2805 80.9651 74.9335 77.9881 73.2266C75.0112 71.5197 71.761 70.3919 68.2374 69.8433C66.4061 69.5581 64.583 69.4047 62.7681 69.383C61.0909 69.363 59.4207 69.4555 57.7576 69.6604C57.9641 67.6724 57.7638 66.022 57.1569 64.7093C56.9514 64.2649 56.6994 63.8592 56.4008 63.4923C56.2832 63.3477 56.1583 63.2092 56.0262 63.0767C54.6289 61.5526 52.7456 60.6382 50.3762 60.3334C49.1612 60.2115 47.9765 60.242 46.8223 60.4249C45.6679 60.5468 44.6048 60.8821 43.6328 61.4307C42.7366 61.9365 41.9179 62.6238 41.1766 63.4923ZM61.8448 63.0105C62.0318 63.4621 62.1885 63.9238 62.3173 64.3927C62.5729 64.3927 62.8287 64.3949 63.0845 64.3995V62.6224C62.6777 62.7739 62.2636 62.9024 61.8448 63.0105ZM98.7241 44.0569C98.9059 46.3124 99.7868 48.0803 101.367 49.3605C101.63 49.5565 101.902 49.7368 102.182 49.9014C103.023 50.3969 103.936 50.7494 104.92 50.959C105.642 51.1125 106.401 51.1893 107.199 51.1893C110.358 51.1893 113.578 50.793 116.858 50.0006C117.257 49.897 117.653 49.7889 118.048 49.6763C120.904 48.8614 123.667 47.8113 126.336 46.5258C129.434 45.0018 132.35 43.1729 135.084 41.0393C137.818 38.8447 140.187 36.4063 142.192 33.724C147.477 33.6021 151.943 35.0651 155.588 38.1131C158.993 40.9036 161.179 44.758 162.145 49.6763C162.214 50.023 162.276 50.3749 162.332 50.7321H180.739C180.623 48.9945 180.425 47.3319 180.146 45.7443C179.555 42.375 178.598 39.3436 177.276 36.6501C175.333 32.6876 172.872 29.4262 169.895 26.8659C166.979 24.3055 163.638 22.4157 159.871 21.1965C157.765 20.469 155.63 19.9482 153.465 19.6341C151.82 19.3956 150.158 19.2763 148.48 19.2763C148.602 18.6667 148.662 18.0876 148.662 17.5389C148.723 16.9293 148.783 16.2892 148.845 15.6186C148.863 15.1601 148.862 14.7173 148.839 14.2902C148.717 11.9917 147.989 10.1485 146.657 8.7605C145.138 7.11459 143.042 6.1697 140.369 5.92585C137.818 5.74298 135.601 6.35258 133.717 7.75468C131.834 9.09586 130.649 11.2294 130.163 14.1555C129.677 17.0817 128.644 19.764 127.065 22.2024C125.546 24.5798 123.663 26.683 121.415 28.5119C119.228 30.2797 116.737 31.7428 113.942 32.901C111.208 34.0593 108.384 34.8518 105.467 35.2785C103.164 35.6435 101.404 36.6458 100.19 38.2856C100.187 38.2891 100.185 38.2926 100.182 38.2961C99.6718 39.0239 99.292 39.8054 99.0426 40.6405C98.7287 41.694 98.6223 42.8327 98.7241 44.0569ZM157.056 49.6763C156.209 46.2304 154.621 43.761 152.444 41.9763L152.424 41.9607L152.406 41.9448C150.269 40.1575 147.704 39.0656 144.527 38.78C142.644 41.0053 140.528 43.0563 138.189 44.934L138.163 44.9554L138.136 44.9763C135.89 46.7295 133.529 48.2967 131.056 49.6763H157.056ZM104.92 54.6641C103.668 54.6641 102.587 54.8355 101.676 55.1783C101.57 55.2179 101.467 55.2599 101.367 55.3041C100.394 55.7309 99.605 56.31 98.9975 57.0415C98.39 57.7731 97.934 58.596 97.6303 59.5104C97.3871 60.3639 97.2659 61.2478 97.2659 62.1622C97.2659 64.052 97.8431 65.7589 98.9975 67.2829C100.213 68.807 102.187 69.569 104.92 69.569H116.585V72.6779C116.585 73.339 116.541 73.9652 116.451 74.5567C116.228 76.0382 115.726 77.3017 114.945 78.3472C113.912 79.7496 112.636 80.5112 111.117 80.6336C109.295 80.7552 107.837 81.3344 106.744 82.3704C105.65 83.3463 105.042 84.6871 104.92 86.3943C104.86 87.7351 105.133 88.863 105.741 89.7774C106.348 90.6918 107.138 91.4238 108.11 91.9718C109.143 92.5206 110.236 92.9166 111.391 93.1606C112.606 93.4046 113.76 93.527 114.853 93.527C117.466 93.4654 119.926 92.9782 122.235 92.0638C124.604 91.2102 126.67 89.9302 128.432 88.2231C130.254 86.5159 131.682 84.3823 132.715 81.8223C133.809 79.2008 134.355 76.1528 134.355 72.6779V69.569H148.936V91.8806H167.435V69.569H174.907C177.641 69.569 179.585 68.807 180.739 67.2829C181.954 65.7589 182.562 64.052 182.562 62.1622C182.562 61.2478 182.41 60.3639 182.106 59.5104C181.864 58.596 181.438 57.7731 180.83 57.0415C180.402 56.525 179.882 56.0844 179.27 55.7198C179.016 55.5681 178.747 55.4295 178.461 55.3041C177.489 54.8774 176.304 54.6641 174.907 54.6641H104.92ZM25.6805 20.9222C26.3487 20.1298 27.3816 19.7335 28.7788 19.7335H40.6256C42.0228 19.7335 43.0252 20.1298 43.6328 20.9222C44.301 21.6537 44.6352 22.6292 44.6352 23.8483C44.6352 25.0066 44.301 25.982 43.6328 26.7745C43.0252 27.5669 42.0228 27.9632 40.6256 27.9632H28.7788C27.3816 27.9632 26.3487 27.5669 25.6805 26.7745C25.073 25.982 24.7692 25.0066 24.7692 23.8483C24.7692 22.6292 25.073 21.6537 25.6805 20.9222ZM40.7934 22.9672C40.7934 22.9672 40.7927 22.9674 40.7913 22.9676L40.7934 22.9672Z" fill="black"/>
<path d="M41.1558 38.3711V43.126H56.1008C58.8347 43.126 60.7787 43.7966 61.933 45.1377C63.0873 46.4179 63.6644 47.9723 63.6644 49.8012C63.6644 51.63 63.0873 53.2759 61.933 54.739C60.7787 56.1412 58.8347 56.8422 56.1008 56.8422H11.448C8.71411 56.8422 6.77003 56.1412 5.61573 54.739C4.46144 53.2759 3.8843 51.63 3.8843 49.8012C3.8843 47.9723 4.46144 46.4179 5.61573 45.1377C6.77003 43.7966 8.71411 43.126 11.448 43.126H24.0237V38.3711H23.2035C20.2874 38.3711 17.7358 37.9748 15.5487 37.1823C13.4224 36.3898 11.6302 35.2926 10.1721 33.8904C8.71411 32.4274 7.62056 30.7205 6.89153 28.7697C6.22326 26.7581 5.88912 24.5634 5.88912 22.186C5.88912 19.8085 6.22326 17.6139 6.89153 15.6022C7.62056 13.5905 8.71411 11.8531 10.1721 10.39C11.6302 8.86602 13.4224 7.70776 15.5487 6.91526C17.7358 6.06181 20.2874 5.63508 23.2035 5.63508H42.9784C45.8945 5.63508 48.4157 6.06181 50.5419 6.91526C52.729 7.70776 54.5212 8.86602 55.9185 10.39C57.3766 11.8531 58.4397 13.5905 59.1081 15.6022C59.8371 17.6139 60.2016 19.8085 60.2016 22.186C60.2016 24.5634 59.8371 26.7581 59.1081 28.7697C58.4397 30.7205 57.3766 32.4274 55.9185 33.8904C54.5212 35.2926 52.729 36.3898 50.5419 37.1823C48.4157 37.9748 45.8945 38.3711 42.9784 38.3711H41.1558ZM69.9523 89.7611C69.2232 87.6883 68.0994 85.9508 66.5806 84.5492C65.0618 83.1468 63.3303 82.1108 61.3862 81.4397C59.4422 80.7085 57.2855 80.3429 54.9161 80.3429C52.6075 80.3429 50.2686 80.6781 47.8992 81.3484C45.8945 82.9332 43.6162 84.3356 41.0646 85.5548C38.5738 86.774 35.9007 87.7491 33.0454 88.4811C30.19 89.2731 27.2435 89.7915 24.2059 90.0355C21.1683 90.2795 18.161 90.2491 15.1842 89.9443C12.4503 89.6395 10.4455 88.6939 9.16974 87.1092C7.89391 85.5852 7.3168 83.8476 7.4383 81.8972C7.55981 79.8245 8.31924 78.0869 9.7165 76.6849C11.1138 75.2829 13.2097 74.7952 16.0044 75.2219C18.4344 75.5877 20.8341 75.6181 23.2035 75.3133C25.6336 74.9476 27.8207 74.3379 29.7648 73.4845C31.7695 72.5701 33.4402 71.4423 34.7768 70.1012C36.1741 68.76 37.1157 67.2665 37.6018 65.6205C38.027 64.1574 38.6042 62.9687 39.3332 62.0544C40.123 61.0789 41.0039 60.3169 41.9759 59.7683C42.948 59.2197 44.0111 58.8844 45.1654 58.7624C46.3197 58.5795 47.5043 58.5491 48.7194 58.6711C51.0888 58.9758 52.972 59.8902 54.3694 61.4143C55.8274 62.8773 56.4046 65.0719 56.1008 67.998C59.5637 67.5713 63.0569 67.6323 66.5806 68.1809C70.1042 68.7295 73.3544 69.8573 76.3313 71.5642C79.308 73.2711 81.86 75.6181 83.9863 78.6053C86.1731 81.5924 87.6616 85.3108 88.4517 89.7611H69.9523ZM66.3983 12.9504C66.3983 9.96329 67.2792 7.70776 69.041 6.18373C70.8636 4.65972 72.9899 3.89771 75.42 3.89771C77.7893 3.89771 79.8852 4.6902 81.7078 6.27518C83.5303 7.79916 84.4415 10.0242 84.4415 12.9504V23.4661H87.267C88.6638 23.4661 89.8182 23.7099 90.7294 24.1977C91.6407 24.6854 92.3702 25.295 92.9163 26.0265C93.4632 26.7581 93.8586 27.6115 94.101 28.5868C94.3442 29.5013 94.4661 30.4157 94.4661 31.3301C94.4661 32.2445 94.3442 33.1894 94.101 34.1647C93.8586 35.0792 93.4632 35.9326 92.9163 36.7251C92.3702 37.4567 91.6104 38.0663 90.6385 38.5539C89.7273 38.9807 88.6032 39.194 87.267 39.194H84.4415V62.603H66.3983V12.9504ZM27.122 18.0711C25.7247 18.0711 24.6919 18.4673 24.0237 19.2599C23.4161 19.9914 23.1124 20.9667 23.1124 22.186C23.1124 23.3442 23.4161 24.3196 24.0237 25.1121C24.6919 25.9045 25.7247 26.3008 27.122 26.3008H38.9687C40.366 26.3008 41.3684 25.9045 41.9759 25.1121C42.6441 24.3196 42.9784 23.3442 42.9784 22.186C42.9784 20.9667 42.6441 19.9914 41.9759 19.2599C41.3684 18.4673 40.366 18.0711 38.9687 18.0711H27.122Z" fill="#00D6A9"/>
<path d="M109.46 78.9709C110.979 78.8493 112.255 78.0869 113.288 76.6849C114.382 75.2219 114.929 73.3321 114.929 71.0156V67.9066H103.264C100.53 67.9066 98.5555 67.1446 97.3405 65.6205C96.1861 64.0965 95.6089 62.3896 95.6089 60.4998C95.6089 59.5854 95.7308 58.7015 95.9732 57.848C96.277 56.9336 96.733 56.1107 97.3405 55.3791C97.948 54.6476 98.7381 54.0685 99.7099 53.6418C100.682 53.215 101.866 53.0016 103.264 53.0016H173.251C174.647 53.0016 175.832 53.215 176.805 53.6418C177.777 54.0685 178.566 54.6476 179.173 55.3791C179.781 56.1107 180.207 56.9336 180.45 57.848C180.753 58.7015 180.905 59.5854 180.905 60.4998C180.905 62.3896 180.297 64.0965 179.082 65.6205C177.928 67.1446 175.984 67.9066 173.251 67.9066H165.778V90.2179H147.279V67.9066H132.698V71.0156C132.698 74.4903 132.152 77.5384 131.058 80.1597C130.025 82.7204 128.597 84.854 126.775 86.5604C125.013 88.2675 122.947 89.5475 120.578 90.4011C118.27 91.3155 115.809 91.8035 113.197 91.8643C112.103 91.8643 110.949 91.7419 109.734 91.4987C108.579 91.2547 107.486 90.8587 106.453 90.3099C105.481 89.7611 104.691 89.0291 104.084 88.1147C103.476 87.2004 103.203 86.0732 103.264 84.7316C103.385 83.0252 103.993 81.6836 105.087 80.7085C106.18 79.6717 107.638 79.0933 109.46 78.9709ZM147.188 13.9563C147.127 14.6268 147.066 15.2669 147.005 15.8765C147.005 16.4252 146.945 17.0043 146.823 17.6139C150.712 17.6139 154.508 18.2539 158.214 19.5342C161.981 20.7533 165.322 22.6432 168.238 25.2035C171.215 27.7639 173.675 31.0253 175.62 34.9878C177.564 38.9502 178.718 43.6442 179.082 49.0697H160.675C159.824 43.6442 157.577 39.4378 153.931 36.4508C150.286 33.4027 145.82 31.9396 140.535 32.0616C138.53 34.7439 136.161 37.1823 133.427 39.3769C130.693 41.5105 127.777 43.3394 124.679 44.8634C121.641 46.3265 118.482 47.4847 115.201 48.3382C111.921 49.1306 108.701 49.5269 105.542 49.5269C103.294 49.5269 101.35 48.9173 99.7099 47.698C98.1306 46.4179 97.2496 44.65 97.067 42.3944C96.8845 40.1999 97.3708 38.2796 98.5252 36.6336C99.7402 34.9878 101.502 33.9819 103.811 33.6161C106.727 33.1894 109.552 32.3969 112.286 31.2386C115.08 30.0804 117.571 28.6173 119.758 26.8495C122.006 25.0206 123.889 22.9175 125.408 20.54C126.988 18.1015 128.02 15.4193 128.507 12.4932C128.992 9.56705 130.177 7.43343 132.061 6.09229C133.944 4.69019 136.161 4.08059 138.713 4.26346C141.386 4.50731 143.482 5.4522 145.001 7.09814C146.58 8.7441 147.309 11.0301 147.188 13.9563Z" fill="#00D6A9"/>
</svg>
