<svg width="151" height="80" viewBox="0 0 151 80" fill="none" xmlns="http://www.w3.org/2000/svg">
<g clip-path="url(#clip0_54_96)">
<path d="M34.3868 32.3502V36.1925H46.3905C48.5863 36.1925 50.1477 36.7345 51.0749 37.8182C52.002 38.8527 52.4655 40.1088 52.4655 41.5867C52.4655 43.0645 52.002 44.3945 51.0749 45.5768C50.1477 46.7098 48.5863 47.2763 46.3905 47.2763H10.5257C8.3299 47.2763 6.76842 46.7098 5.84132 45.5768C4.9142 44.3945 4.45064 43.0645 4.45064 41.5867C4.45064 40.1088 4.9142 38.8527 5.84132 37.8182C6.76842 36.7345 8.3299 36.1925 10.5257 36.1925H20.6264V32.3502H19.9676C17.6254 32.3502 15.576 32.0299 13.8194 31.3896C12.1116 30.7492 10.6721 29.8625 9.50096 28.7295C8.3299 27.5472 7.4516 26.1679 6.86601 24.5915C6.32927 22.9659 6.0609 21.1925 6.0609 19.2713C6.0609 17.3501 6.32927 15.5767 6.86601 13.9511C7.4516 12.3254 8.3299 10.9215 9.50096 9.73924C10.6721 8.50774 12.1116 7.57174 13.8194 6.93136C15.576 6.24169 17.6254 5.89686 19.9676 5.89686H35.8506C38.1928 5.89686 40.2179 6.24169 41.9257 6.93136C43.6823 7.57174 45.1218 8.50774 46.2441 9.73924C47.4152 10.9215 48.2691 12.3254 48.8059 13.9511C49.3914 15.5767 49.6842 17.3501 49.6842 19.2713C49.6842 21.1925 49.3914 22.9659 48.8059 24.5915C48.2691 26.1679 47.4152 27.5472 46.2441 28.7295C45.1218 29.8625 43.6823 30.7492 41.9257 31.3896C40.2179 32.0299 38.1928 32.3502 35.8506 32.3502H34.3868ZM57.5159 73.8771C56.9304 72.2028 56.0276 70.7987 54.8078 69.6655C53.5878 68.5329 52.1971 67.6951 50.6357 67.1534C49.0743 66.5619 47.342 66.2664 45.439 66.2664C43.5847 66.2664 41.7061 66.5373 39.8031 67.0796C38.1928 68.3603 36.363 69.4929 34.3136 70.4787C32.3129 71.4639 30.1659 72.2519 27.8725 72.8428C25.5792 73.4834 23.2126 73.9023 20.7728 74.0989C18.333 74.296 15.9176 74.2715 13.5266 74.0252C11.3308 73.7789 9.72059 73.0154 8.69585 71.7348C7.67117 70.5033 7.20757 69.0992 7.30516 67.5225C7.40281 65.8482 8.01273 64.4441 9.135 63.3108C10.2573 62.1779 11.9408 61.7838 14.1854 62.1286C16.1372 62.4242 18.0646 62.4488 19.9676 62.2025C21.9195 61.9069 23.6761 61.4143 25.2376 60.7247C26.8479 59.9857 28.1897 59.0744 29.2632 57.9906C30.3855 56.9069 31.1419 55.7 31.5322 54.37C31.8738 53.1877 32.3373 52.2271 32.9229 51.4882C33.5573 50.7 34.2648 50.0842 35.0455 49.6409C35.8263 49.1975 36.6802 48.9266 37.6073 48.8281C38.5344 48.6803 39.4859 48.6556 40.4618 48.7542C42.3649 49.0005 43.8775 49.7394 44.9998 50.9709C46.1709 52.1532 46.6345 53.9266 46.3905 56.2912C49.1718 55.9463 51.9776 55.9956 54.8078 56.439C57.6379 56.8823 60.2484 57.7936 62.6394 59.1729C65.0305 60.5523 67.0796 62.4488 68.788 64.8623C70.5445 67.2762 71.74 70.2815 72.3739 73.8771H57.5159ZM54.6613 11.8082C54.6613 9.39442 55.3689 7.57174 56.784 6.34025C58.2478 5.10869 59.9557 4.49292 61.9075 4.49292C63.8106 4.49292 65.4941 5.13332 66.9579 6.41414C68.4217 7.64563 69.1536 9.44368 69.1536 11.8082V20.3058H71.4224C72.5449 20.3058 73.4721 20.5028 74.204 20.8969C74.9359 21.291 75.5212 21.7836 75.9605 22.3748C76.3998 22.9659 76.7167 23.6556 76.912 24.4437C77.1073 25.1826 77.2047 25.9216 77.2047 26.6605C77.2047 27.3994 77.1073 28.163 76.912 28.9511C76.7167 29.69 76.3998 30.3797 75.9605 31.0201C75.5212 31.6112 74.9116 32.1038 74.131 32.498C73.3991 32.8428 72.4962 33.0152 71.4224 33.0152H69.1536V51.9316H54.6613V11.8082ZM23.115 15.9462C21.9927 15.9462 21.1632 16.2664 20.6264 16.9067C20.1384 17.4979 19.8944 18.2861 19.8944 19.2713C19.8944 20.2073 20.1384 20.9954 20.6264 21.6359C21.1632 22.2762 21.9927 22.5964 23.115 22.5964H32.6301C33.7524 22.5964 34.5575 22.2762 35.0455 21.6359C35.5823 20.9954 35.8506 20.2073 35.8506 19.2713C35.8506 18.2861 35.5823 17.4979 35.0455 16.9067C34.5575 16.2664 33.7524 15.9462 32.6301 15.9462H23.115Z" fill="black"/>
<path d="M89.2485 65.1584C90.4683 65.0595 91.4929 64.4441 92.3228 63.3109C93.2013 62.1286 93.64 60.6016 93.64 58.7296V56.2173H84.2717C82.0754 56.2173 80.4899 55.6015 79.514 54.37C78.5868 53.1385 78.1232 51.7592 78.1232 50.2321C78.1232 49.4932 78.2205 48.7788 78.4158 48.0892C78.6598 47.3502 79.026 46.6852 79.514 46.0941C80.0019 45.503 80.6359 45.035 81.4171 44.6901C82.1977 44.3453 83.1492 44.1729 84.2717 44.1729H140.484C141.606 44.1729 142.558 44.3453 143.338 44.6901C144.12 45.035 144.753 45.503 145.241 46.0941C145.729 46.6852 146.071 47.3502 146.266 48.0892C146.511 48.7788 146.632 49.4932 146.632 50.2321C146.632 51.7592 146.144 53.1385 145.168 54.37C144.241 55.6015 142.68 56.2173 140.484 56.2173H134.482V74.2469H119.624V56.2173H107.913V58.7296C107.913 61.5375 107.474 64.0006 106.595 66.1191C105.766 68.1877 104.619 69.9118 103.155 71.2913C101.74 72.6709 100.081 73.7052 98.1781 74.395C96.3237 75.1339 94.3475 75.5276 92.2498 75.5767C91.3712 75.5767 90.444 75.4784 89.4681 75.2813C88.5409 75.0841 87.663 74.7641 86.8331 74.3206C86.0525 73.8772 85.418 73.2863 84.93 72.5474C84.4421 71.8085 84.2224 70.897 84.2717 69.8135C84.3691 68.434 84.857 67.3506 85.7356 66.5619C86.6135 65.7247 87.7847 65.2567 89.2485 65.1584ZM119.551 12.621C119.502 13.163 119.453 13.6802 119.404 14.1728C119.404 14.6161 119.356 15.0842 119.258 15.5768C122.381 15.5768 125.43 16.094 128.407 17.1285C131.432 18.1137 134.116 19.6408 136.458 21.7098C138.849 23.7788 140.826 26.4142 142.387 29.6162C143.949 32.8182 144.876 36.6113 145.168 40.9956H130.384C129.7 36.6113 127.895 33.2123 124.967 30.7985C122.039 28.3354 118.453 27.1531 114.208 27.2517C112.597 29.4191 110.694 31.3896 108.498 33.163C106.303 34.8872 103.96 36.365 101.472 37.5965C99.0323 38.7788 96.4946 39.7148 93.8596 40.4044C91.2246 41.0448 88.6389 41.365 86.1012 41.365C84.2961 41.365 82.7343 40.8724 81.4171 39.8872C80.1479 38.8527 79.4404 37.4241 79.2943 35.6014C79.1477 33.828 79.5383 32.2763 80.4655 30.9463C81.4414 29.6162 82.8566 28.8034 84.7104 28.5078C87.0528 28.163 89.3215 27.5226 91.5179 26.5866C93.7623 25.6506 95.7627 24.4684 97.5192 23.0398C99.3249 21.562 100.837 19.8625 102.057 17.9413C103.326 15.9708 104.156 13.8033 104.546 11.4388C104.936 9.07426 105.888 7.35011 107.4 6.26636C108.913 5.13335 110.694 4.64073 112.744 4.78852C114.89 4.98556 116.574 5.74912 117.794 7.07918C119.063 8.40919 119.648 10.2565 119.551 12.621Z" fill="black"/>
<path fill-rule="evenodd" clip-rule="evenodd" d="M50.6689 46.001C49.8093 46.7703 48.5599 47.1916 46.9209 47.2648C46.7484 47.2726 46.5716 47.2764 46.3904 47.2764H10.5256C8.32984 47.2764 6.76836 46.7099 5.84128 45.5769C4.91415 44.3947 4.4506 43.0646 4.4506 41.5867C4.4506 40.1089 4.91415 38.8527 5.84128 37.8183C6.76836 36.7345 8.32984 36.1926 10.5256 36.1926H20.6264V32.3502H19.9676C18.9312 32.3502 17.9522 32.2876 17.0304 32.1621C15.869 32.0042 14.7987 31.7467 13.8194 31.3897C12.1115 30.7492 10.672 29.8626 9.50096 28.7295C8.32984 27.5473 7.45154 26.1679 6.86601 24.5916C6.32921 22.966 6.06086 21.1926 6.06086 19.2714C6.06086 17.3502 6.32921 15.5768 6.86601 13.9512C7.45154 12.3255 8.32984 10.9216 9.50096 9.73934C10.672 8.50778 12.1115 7.57185 13.8194 6.93141C15.576 6.24177 17.6254 5.89694 19.9676 5.89694H35.8506C38.1928 5.89694 40.2178 6.24177 41.9257 6.93141C43.6823 7.57185 45.1217 8.50778 46.2441 9.73934C47.4151 10.9216 48.2691 12.3255 48.8058 13.9512C49.3914 15.5768 49.6842 17.3502 49.6842 19.2714C49.6842 21.1926 49.3914 22.966 48.8058 24.5916C48.2691 26.1679 47.4151 27.5473 46.2441 28.7295C45.1217 29.8626 43.6823 30.7492 41.9257 31.3897C40.9735 31.7467 39.9228 32.0042 38.7735 32.1621C37.8613 32.2876 36.887 32.3502 35.8506 32.3502H34.3867V36.1926H46.3904C48.2927 36.1926 49.7188 36.5993 50.6689 37.4126C50.8156 37.5381 50.9509 37.6733 51.0748 37.8183C52.002 38.8527 52.4655 40.1089 52.4655 41.5867C52.4655 43.0646 52.002 44.3947 51.0748 45.5769C50.9509 45.7284 50.8156 45.8697 50.6689 46.001ZM54.6613 51.9316H69.1536V33.0153H71.4224C72.4962 33.0153 73.3991 32.8428 74.131 32.498C74.8954 32.1121 75.4963 31.6317 75.933 31.0568C75.9424 31.0446 75.9518 31.0324 75.9605 31.0202C76.3592 30.4386 76.6575 29.8164 76.8553 29.1535C76.8752 29.0865 76.8939 29.0191 76.912 28.9512C77.1073 28.163 77.2047 27.3995 77.2047 26.6605C77.2047 25.9216 77.1073 25.1827 76.912 24.4438C76.7167 23.6556 76.3998 22.966 75.9605 22.3748L79.1546 19.9565C79.937 21.0096 80.4649 22.1892 80.7775 23.4348C80.9472 24.0827 81.0664 24.7387 81.1338 25.4008C82.0579 24.9803 83.0506 24.6921 84.0877 24.5267L84.1114 24.523L84.1345 24.5196C86.1386 24.2246 88.0792 23.6772 89.9648 22.8736L89.9792 22.8675L89.9935 22.8615C91.9097 22.0625 93.5732 21.0728 95.009 19.9058C96.4915 18.6919 97.7138 17.3137 98.6966 15.7662L98.7028 15.7555L98.7097 15.7448C99.6731 14.2486 100.306 12.6051 100.608 10.7763C101.119 7.67811 102.473 4.87112 105.055 3.00473C107.398 1.26199 110.133 0.559605 113.028 0.768337L113.067 0.771115L113.105 0.774642C116.014 1.04165 118.68 2.12931 120.697 4.31234C122.675 6.40246 123.497 9.05487 123.55 11.8371C125.622 12.1203 127.663 12.61 129.67 13.3049C133.18 14.4531 136.326 16.2406 139.072 18.6632C141.914 21.1261 144.201 24.2112 145.969 27.836C147.807 31.6052 148.832 35.9333 149.152 40.7245L149.439 45.0261H149.327C149.643 45.6136 149.894 46.2357 150.079 46.8878C150.443 47.969 150.624 49.0898 150.624 50.2321C150.624 52.6906 149.818 54.9382 148.315 56.8511C146.344 59.4348 143.343 60.2478 140.484 60.2478H138.474V78.2772H115.632V60.2478H111.867C111.73 62.8949 111.226 65.3808 110.287 67.6536C109.267 70.189 107.818 72.4038 105.904 74.2142C104.091 75.9748 101.971 77.2932 99.5857 78.1669C97.2883 79.074 94.8648 79.5471 92.3421 79.6063L92.2959 79.6076H92.2491C91.0761 79.6076 89.8856 79.4759 88.685 79.2334L88.6651 79.2296L88.6457 79.2252C87.3572 78.9518 86.1268 78.5039 84.965 77.8828L84.92 77.8589L84.8757 77.8337C83.5573 77.0847 82.4516 76.0605 81.608 74.783C80.5523 73.1843 80.2047 71.3776 80.2833 69.6302L80.2852 69.5786L80.289 69.5263C80.4462 67.3039 81.2836 65.188 83.0375 63.5906C84.701 62.0261 86.7726 61.2983 88.9128 61.1417C88.9465 61.113 89.0158 61.0468 89.1118 60.9153L89.1206 60.9039L89.1287 60.8927C89.236 60.7485 89.3527 60.5439 89.4482 60.2478H84.2711C81.3796 60.2478 78.4027 59.4199 76.396 56.8878L76.3654 56.8487L76.3355 56.8088C74.8873 54.8857 74.131 52.6523 74.131 50.2321C74.131 49.1301 74.277 48.0425 74.5772 46.982L74.6009 46.8978L74.6283 46.8147C75.0277 45.605 75.636 44.4959 76.4466 43.5139C76.8908 42.9761 77.3869 42.5071 77.9241 42.1022C76.4409 40.5094 75.6079 38.5271 75.3565 36.3516C74.6377 36.6391 73.8939 36.8234 73.1458 36.9293V55.9621H65.106C67.8121 57.6154 70.117 59.8129 72.0214 62.4985C74.2015 65.5024 75.588 69.108 76.3049 73.171L77.1404 77.908H54.6912L53.7511 75.2189C53.3689 74.126 52.815 73.2913 52.1046 72.6318C51.2887 71.874 50.376 71.3254 49.3378 70.965L49.2856 70.9468L49.2339 70.9273C48.1792 70.5279 46.9301 70.2973 45.439 70.2973C44.194 70.2973 42.9131 70.451 41.5902 70.7729C39.9062 72.034 38.0541 73.1433 36.0468 74.1096C33.8036 75.2126 31.4179 76.0863 28.8985 76.7383C26.3663 77.4425 23.7625 77.9011 21.0911 78.1165C18.4148 78.3332 15.7572 78.3068 13.1213 78.0347L13.1035 78.0334L13.0857 78.0309C10.2371 77.7115 7.50682 76.6425 5.61481 74.298C3.96197 72.298 3.16003 69.8936 3.32009 67.2787C3.47354 64.6721 4.46514 62.3254 6.31193 60.461C8.67377 58.0767 11.8558 57.6948 14.7816 58.1434C16.3636 58.3826 17.9056 58.402 19.4181 58.2102C21.0455 57.9605 22.4334 57.5608 23.6113 57.0437C24.8434 56.4752 25.7607 55.8267 26.4402 55.1408L26.4715 55.1091L26.5036 55.0782C27.1875 54.4177 27.5336 53.8026 27.7025 53.2313C27.893 52.5734 28.1237 51.9279 28.4029 51.3069H10.5256C7.75466 51.3069 4.76897 50.5949 2.76331 48.1438L2.73685 48.1115L2.71107 48.0786C1.23791 46.2 0.458229 43.9926 0.458229 41.5867C0.458229 39.1889 1.2382 36.9633 2.85139 35.1471C4.16353 33.6321 5.86775 32.8257 7.64316 32.4466C7.33168 32.1904 7.03005 31.9215 6.7386 31.6395L6.70796 31.6098L6.67788 31.5795C5.10096 29.9875 3.91204 28.118 3.12781 26.0068L3.10186 25.937L3.07849 25.8661C2.39068 23.7831 2.06848 21.5739 2.06848 19.2714C2.06848 16.9689 2.39068 14.7597 3.07849 12.6766L3.09555 12.6249L3.11398 12.5738C3.88715 10.4273 5.06568 8.52555 6.64924 6.91837C8.25621 5.23774 10.1982 3.99418 12.4008 3.16385C14.7082 2.26291 17.2574 1.86647 19.9676 1.86647H35.8506C38.5425 1.86647 41.0722 2.25758 43.3448 3.16372C45.5754 3.98664 47.54 5.23026 49.1252 6.94835C49.7966 7.63377 50.3911 8.37323 50.908 9.16278C51.3328 6.92769 52.3511 4.87677 54.1771 3.28757L54.2025 3.26557L54.228 3.244C56.4282 1.39305 59.0464 0.462524 61.9074 0.462524C64.7771 0.462524 67.3741 1.45631 69.5442 3.34359C72.1019 5.51262 73.1458 8.56051 73.1458 11.8083V16.3959C74.1472 16.5426 75.145 16.8357 76.0828 17.3407C77.2615 17.9753 78.321 18.8343 79.1546 19.9565L75.9605 22.3748C75.5212 21.7837 74.9359 21.2911 74.204 20.897C73.4721 20.5029 72.5449 20.3058 71.4224 20.3058H69.1536V11.8083C69.1536 9.44372 68.4217 7.64574 66.9579 6.41418C65.4941 5.13339 63.8106 4.49299 61.9074 4.49299C59.9556 4.49299 58.2478 5.10876 56.7839 6.34029C55.3688 7.57185 54.6613 9.39446 54.6613 11.8083V51.9316ZM50.6689 29.6697V32.8452C49.9062 32.5666 49.1126 32.3874 48.3161 32.2827C48.5745 32.0583 48.825 31.8239 49.0671 31.5795C49.6588 30.9821 50.1932 30.3449 50.6689 29.6697ZM33.0727 51.3069C33.0223 51.3663 32.9724 51.4268 32.9229 51.4883C32.3373 52.2272 31.8737 53.1878 31.5322 54.37C31.1418 55.7001 30.3855 56.907 29.2632 57.9907C28.1896 59.0745 26.8478 59.9858 25.2375 60.7247C23.6761 61.4144 21.9195 61.907 19.9676 62.2026C18.0646 62.4489 16.1372 62.4243 14.1853 62.1287C11.9407 61.7839 10.2573 62.178 9.135 63.3109C8.01267 64.4441 7.40275 65.8482 7.30516 67.5225C7.20757 69.0992 7.67112 70.5033 8.69579 71.7348C9.72053 73.0154 11.3308 73.7789 13.5266 74.0252C15.9176 74.2715 18.333 74.2961 20.7727 74.0989C23.2125 73.9024 25.5791 73.4835 27.8725 72.8428C30.1659 72.252 32.3129 71.4639 34.3135 70.4788C36.3629 69.4936 38.1928 68.3603 39.803 67.0797C41.7061 66.5373 43.5847 66.2665 45.439 66.2665C47.3419 66.2665 49.0742 66.5619 50.6357 67.1534C52.1971 67.6951 53.5878 68.5329 54.8077 69.6655C56.0276 70.7988 56.9303 72.2028 57.5158 73.8778H72.3739C72.1206 72.4397 71.7768 71.0961 71.3438 69.8469C70.6942 67.9729 69.8419 66.3112 68.7874 64.863C67.0796 62.4489 65.0305 60.5523 62.6394 59.173C60.2484 57.7937 57.6378 56.8823 54.8077 56.439C53.3368 56.2086 51.8725 56.0846 50.4148 56.0671C49.0677 56.0509 47.7262 56.1256 46.3904 56.2912C46.5562 54.6847 46.3954 53.3511 45.9079 52.2903C45.7429 51.9312 45.5405 51.6034 45.3006 51.3069C45.2062 51.1901 45.1059 51.0781 44.9997 50.971C43.8775 49.7395 42.3648 49.0006 40.4618 48.7543C39.4859 48.6558 38.5343 48.6804 37.6072 48.8282C36.6801 48.9267 35.8262 49.1976 35.0455 49.641C34.3257 50.0497 33.6681 50.605 33.0727 51.3069ZM49.6732 50.9175C49.8235 51.2825 49.9492 51.6556 50.0528 52.0345C50.258 52.0345 50.4635 52.0363 50.6689 52.04V50.604C50.3422 50.7264 50.0096 50.8302 49.6732 50.9175ZM79.2943 35.6015C79.4404 37.4241 80.1479 38.8527 81.4171 39.8873C81.6286 40.0457 81.847 40.1914 82.0716 40.3244C82.7474 40.7248 83.4805 41.0096 84.2711 41.179C84.8508 41.3031 85.4604 41.365 86.1012 41.365C88.6389 41.365 91.2246 41.0449 93.8596 40.4045C94.1797 40.3208 94.4979 40.2335 94.8149 40.1425C97.1092 39.484 99.328 38.6353 101.472 37.5966C103.96 36.365 106.303 34.8872 108.498 33.163C110.694 31.3897 112.597 29.4192 114.208 27.2517C118.453 27.1532 122.039 28.3354 124.967 30.7985C127.702 33.0534 129.458 36.1681 130.234 40.1425C130.289 40.4226 130.339 40.707 130.384 40.9956H145.168C145.075 39.5915 144.916 38.248 144.692 36.9651C144.217 34.2424 143.448 31.7928 142.387 29.6163C140.826 26.4142 138.849 23.7788 136.458 21.7098C134.116 19.6408 131.432 18.1137 128.407 17.1285C126.715 16.5406 125.001 16.1198 123.262 15.866C121.941 15.6732 120.606 15.5768 119.258 15.5768C119.356 15.0842 119.404 14.6162 119.404 14.1729C119.453 13.6802 119.502 13.163 119.551 12.6211C119.566 12.2506 119.565 11.8927 119.546 11.5476C119.448 9.69027 118.864 8.20082 117.794 7.07918C116.574 5.74916 114.89 4.9856 112.743 4.78856C110.694 4.64078 108.913 5.13339 107.4 6.2664C105.888 7.35018 104.936 9.07427 104.546 11.4388C104.156 13.8034 103.326 15.9709 102.057 17.9413C100.837 19.8625 99.3249 21.562 97.5192 23.0399C95.7627 24.4684 93.7623 25.6507 91.5172 26.5867C89.3215 27.5227 87.0528 28.163 84.7104 28.5078C82.8603 28.8028 81.447 29.6128 80.4718 30.9378C80.4693 30.9407 80.4674 30.9435 80.4655 30.9463C80.0556 31.5345 79.7505 32.166 79.5502 32.8408C79.2981 33.6921 79.2126 34.6123 79.2943 35.6015ZM126.146 40.1425C125.465 37.3579 124.191 35.3624 122.442 33.9203L122.426 33.9076L122.411 33.8948C120.695 32.4505 118.634 31.5681 116.083 31.3373C114.57 33.1356 112.871 34.793 110.992 36.3103L110.971 36.3276L110.949 36.3445C109.146 37.7612 107.249 39.0276 105.263 40.1425H126.146ZM84.2711 44.173C83.2653 44.173 82.3967 44.3115 81.6654 44.5885C81.5806 44.6205 81.4976 44.6544 81.4171 44.6902C80.6359 45.035 80.0019 45.503 79.514 46.0941C79.026 46.6853 78.6598 47.3503 78.4158 48.0892C78.2205 48.7789 78.1232 49.4932 78.1232 50.2321C78.1232 51.7592 78.5868 53.1385 79.514 54.37C80.4899 55.6016 82.0754 56.2173 84.2711 56.2173H93.64V58.7296C93.64 59.2638 93.6044 59.7698 93.5326 60.2478C93.3536 61.445 92.9505 62.466 92.3228 63.3109C91.4929 64.4441 90.4683 65.0595 89.2485 65.1584C87.7847 65.2567 86.6135 65.7247 85.7356 66.5619C84.857 67.3506 84.3691 68.434 84.2711 69.8136C84.2224 70.897 84.4421 71.8085 84.93 72.5474C85.418 73.2863 86.0525 73.8778 86.8331 74.3206C87.6624 74.7641 88.5409 75.0841 89.4681 75.2813C90.444 75.4784 91.3712 75.5773 92.2491 75.5773C94.3475 75.5276 96.3237 75.1339 98.1781 74.395C100.081 73.7052 101.74 72.6709 103.155 71.2913C104.619 69.9118 105.766 68.1877 106.595 66.1191C107.474 64.0006 107.913 61.5376 107.913 58.7296V56.2173H119.624V74.2469H134.482V56.2173H140.484C142.68 56.2173 144.241 55.6016 145.168 54.37C146.144 53.1385 146.632 51.7592 146.632 50.2321C146.632 49.4932 146.51 48.7789 146.266 48.0892C146.071 47.3503 145.729 46.6853 145.241 46.0941C144.897 45.6767 144.48 45.3207 143.988 45.0261C143.784 44.9035 143.568 44.7915 143.338 44.6902C142.558 44.3454 141.606 44.173 140.484 44.173H84.2711ZM20.6264 16.9068C21.1631 16.2665 21.9927 15.9463 23.1149 15.9463H32.6301C33.7524 15.9463 34.5575 16.2665 35.0455 16.9068C35.5822 17.498 35.8506 18.2862 35.8506 19.2714C35.8506 20.2073 35.5822 20.9955 35.0455 21.6359C34.5575 22.2763 33.7524 22.5965 32.6301 22.5965H23.1149C21.9927 22.5965 21.1631 22.2763 20.6264 21.6359C20.1384 20.9955 19.8944 20.2073 19.8944 19.2714C19.8944 18.2862 20.1384 17.498 20.6264 16.9068ZM32.7649 18.5594C32.7649 18.5594 32.7643 18.5595 32.7632 18.5596L32.7649 18.5594Z" fill="black"/>
<path d="M33.056 31.0069V34.8493H45.0597C47.2555 34.8493 48.8169 35.3912 49.7441 36.4749C50.6712 37.5094 51.1347 38.7655 51.1347 40.2434C51.1347 41.7213 50.6712 43.0513 49.7441 44.2336C48.8169 45.3666 47.2555 45.9331 45.0597 45.9331H9.1949C6.9991 45.9331 5.43763 45.3666 4.51051 44.2336C3.58339 43.0513 3.11983 41.7213 3.11983 40.2434C3.11983 38.7655 3.58339 37.5094 4.51051 36.4749C5.43763 35.3912 6.9991 34.8493 9.1949 34.8493H19.2956V31.0069H18.6368C16.2946 31.0069 14.2452 30.6867 12.4886 30.0463C10.7808 29.4059 9.34128 28.5192 8.17016 27.3862C6.9991 26.204 6.12077 24.8246 5.53522 23.2482C4.99847 21.6227 4.73009 19.8492 4.73009 17.9281C4.73009 16.0069 4.99847 14.2334 5.53522 12.6078C6.12077 10.9822 6.9991 9.57826 8.17016 8.39596C9.34128 7.16446 10.7808 6.22849 12.4886 5.58809C14.2452 4.89843 16.2946 4.5536 18.6368 4.5536H34.5198C36.862 4.5536 38.8871 4.89843 40.5949 5.58809C42.3515 6.22849 43.791 7.16446 44.9133 8.39596C46.0844 9.57826 46.9383 10.9822 47.4751 12.6078C48.0606 14.2334 48.3534 16.0069 48.3534 17.9281C48.3534 19.8492 48.0606 21.6227 47.4751 23.2482C46.9383 24.8246 46.0844 26.204 44.9133 27.3862C43.791 28.5192 42.3515 29.4059 40.5949 30.0463C38.8871 30.6867 36.862 31.0069 34.5198 31.0069H33.056ZM56.1851 72.5342C55.5995 70.8593 54.6968 69.4552 53.477 68.3226C52.257 67.1893 50.8663 66.3522 49.3049 65.8098C47.7435 65.219 46.0112 64.9235 44.1082 64.9235C42.2539 64.9235 40.3753 65.1944 38.4722 65.7361C36.862 67.0168 35.0322 68.15 32.9828 69.1352C30.9821 70.1204 28.8351 70.9084 26.5417 71.4999C24.2484 72.1399 21.8818 72.5588 19.442 72.756C17.0022 72.9531 14.5868 72.9286 12.1958 72.6823C10 72.436 8.38973 71.6719 7.36506 70.3912C6.34032 69.1597 5.87679 67.7556 5.97438 66.1796C6.07197 64.5046 6.68194 63.1005 7.8042 61.9676C8.92653 60.8346 10.6099 60.4406 12.8546 60.7854C14.8064 61.0809 16.7338 61.1056 18.6368 60.8593C20.5887 60.5637 22.3453 60.071 23.9068 59.3814C25.517 58.6425 26.8589 57.7311 27.9324 56.6474C29.0547 55.5636 29.811 54.3568 30.2014 53.0267C30.543 51.8444 31.0065 50.8838 31.5921 50.1449C32.2265 49.3567 32.934 48.741 33.7147 48.2976C34.4954 47.8543 35.3493 47.5834 36.2764 47.4848C37.2036 47.337 38.1551 47.3124 39.131 47.411C41.0341 47.6573 42.5467 48.3961 43.669 49.6277C44.8401 50.8099 45.3037 52.5834 45.0597 54.9479C47.841 54.6031 50.6468 54.6523 53.477 55.0957C56.3071 55.539 58.9176 56.4504 61.3086 57.8297C63.6995 59.209 65.7493 61.1056 67.4571 63.5194C69.2135 65.9333 70.409 68.938 71.0436 72.5342H56.1851ZM53.3305 10.4649C53.3305 8.05114 54.0381 6.22849 55.4531 4.99695C56.917 3.76543 58.6249 3.14966 60.5767 3.14966C62.4797 3.14966 64.1631 3.79005 65.627 5.07085C67.0908 6.30235 67.8227 8.1004 67.8227 10.4649V18.9625H70.0921C71.214 18.9625 72.1412 19.1595 72.8731 19.5537C73.605 19.9478 74.1909 20.4404 74.6296 21.0315C75.0688 21.6227 75.3864 22.3123 75.5811 23.1005C75.7764 23.8394 75.8744 24.5783 75.8744 25.3172C75.8744 26.0562 75.7764 26.8197 75.5811 27.6079C75.3864 28.3468 75.0688 29.0365 74.6296 29.6768C74.1909 30.268 73.5807 30.7606 72.8001 31.1547C72.0682 31.4995 71.1653 31.6719 70.0921 31.6719H67.8227V50.5883H53.3305V10.4649ZM21.7842 14.6029C20.6619 14.6029 19.8324 14.9231 19.2956 15.5635C18.8076 16.1546 18.5636 16.9428 18.5636 17.9281C18.5636 18.864 18.8076 19.6522 19.2956 20.2926C19.8324 20.933 20.6619 21.2532 21.7842 21.2532H31.2993C32.4216 21.2532 33.2267 20.933 33.7147 20.2926C34.2514 19.6522 34.5198 18.864 34.5198 17.9281C34.5198 16.9428 34.2514 16.1546 33.7147 15.5635C33.2267 14.9231 32.4216 14.6029 31.2993 14.6029H21.7842Z" fill="#00D6A9"/>
<path d="M87.9176 63.8148C89.1374 63.7166 90.1626 63.1005 90.9918 61.9676C91.8704 60.7853 92.3097 59.2582 92.3097 57.3863V54.874H82.9408C80.7451 54.874 79.1589 54.2582 78.1831 53.0267C77.2558 51.7951 76.7922 50.4158 76.7922 48.8887C76.7922 48.1498 76.8902 47.4355 77.0849 46.7459C77.3288 46.007 77.6951 45.3419 78.1831 44.7508C78.671 44.1596 79.3056 43.6917 80.0862 43.3469C80.8667 43.002 81.8183 42.8296 82.9408 42.8296H139.153C140.275 42.8296 141.227 43.002 142.008 43.3469C142.789 43.6917 143.423 44.1596 143.91 44.7508C144.398 45.3419 144.74 46.007 144.936 46.7459C145.18 47.4355 145.301 48.1498 145.301 48.8887C145.301 50.4158 144.813 51.7951 143.837 53.0267C142.91 54.2582 141.349 54.874 139.153 54.874H133.151V72.9033H118.293V54.874H106.582V57.3863C106.582 60.1942 106.143 62.6573 105.264 64.7755C104.435 66.8448 103.288 68.5688 101.825 69.9477C100.409 71.3273 98.7503 72.3616 96.8472 73.0514C94.9933 73.7903 93.0166 74.1846 90.9188 74.2337C90.0403 74.2337 89.1131 74.1348 88.1372 73.9383C87.21 73.7411 86.3321 73.4211 85.5022 72.9777C84.7216 72.5342 84.087 71.9427 83.5991 71.2038C83.1111 70.4649 82.8915 69.554 82.9408 68.4699C83.0381 67.0911 83.5261 66.007 84.4046 65.2189C85.2825 64.3811 86.4537 63.9137 87.9176 63.8148ZM118.22 11.2778C118.171 11.8196 118.123 12.3368 118.073 12.8294C118.073 13.2728 118.025 13.7408 117.927 14.2334C121.05 14.2334 124.1 14.7506 127.076 15.7852C130.101 16.7704 132.785 18.2975 135.128 20.3664C137.519 22.4354 139.495 25.0709 141.056 28.2729C142.618 31.4749 143.545 35.268 143.837 39.6522H129.053C128.369 35.268 126.564 31.8689 123.636 29.4551C120.708 26.9921 117.122 25.8098 112.877 25.9084C111.266 28.0759 109.363 30.0463 107.168 31.8197C104.972 33.5438 102.629 35.0217 100.141 36.2532C97.7014 37.4355 95.1637 38.3714 92.5287 39.0611C89.8943 39.7015 87.3079 40.0217 84.7703 40.0217C82.9651 40.0217 81.4033 39.5291 80.0862 38.5438C78.8176 37.5094 78.11 36.0808 77.9634 34.2581C77.8168 32.4847 78.2074 30.933 79.1346 29.6029C80.1105 28.2729 81.5256 27.4601 83.3801 27.1645C85.7218 26.8197 87.9912 26.1793 90.1869 25.2433C92.4313 24.3074 94.4318 23.1251 96.1889 21.6965C97.994 20.2187 99.5065 18.5191 100.726 16.5979C101.995 14.6275 102.825 12.46 103.215 10.0955C103.605 7.73092 104.557 6.00678 106.07 4.92303C107.582 3.79002 109.363 3.29741 111.413 3.44519C113.56 3.64224 115.244 4.40579 116.463 5.73585C117.732 7.06591 118.317 8.91322 118.22 11.2778Z" fill="#00D6A9"/>
</g>
<defs>
<clipPath id="clip0_54_96">
<rect width="151" height="80" fill="white"/>
</clipPath>
</defs>
</svg>
