<svg width="242" height="127" viewBox="0 0 242 127" fill="none" xmlns="http://www.w3.org/2000/svg">
<mask id="path-1-outside-1_2_39" maskUnits="userSpaceOnUse" x="0.13279" y="0.132568" width="242" height="127" fill="black">
<rect fill="white" x="0.13279" y="0.132568" width="242" height="127"/>
<path d="M55.1099 51.356V57.4557H74.3476C77.8667 57.4557 80.3692 58.316 81.8551 60.0364C83.3409 61.6787 84.0838 63.6728 84.0838 66.0189C84.0838 68.365 83.3409 70.4764 81.8551 72.3533C80.3692 74.1519 77.8667 75.0512 74.3476 75.0512H16.869C13.3499 75.0512 10.8474 74.1519 9.36155 72.3533C7.87571 70.4764 7.13279 68.365 7.13279 66.0189C7.13279 63.6728 7.87571 61.6787 9.36155 60.0364C10.8474 58.316 13.3499 57.4557 16.869 57.4557H33.0568V51.356H32.0011C28.2474 51.356 24.9629 50.8476 22.1476 49.831C19.4105 48.8144 17.1036 47.4067 15.2267 45.6081C13.3499 43.7312 11.9422 41.5416 11.0038 39.0391C10.1436 36.4584 9.71346 33.6431 9.71346 30.5933C9.71346 27.5434 10.1436 24.7281 11.0038 22.1474C11.9422 19.5667 13.3499 17.338 15.2267 15.4611C17.1036 13.5061 19.4105 12.0202 22.1476 11.0036C24.9629 9.90875 28.2474 9.36133 32.0011 9.36133H57.456C61.2097 9.36133 64.4551 9.90875 67.1921 11.0036C70.0074 12.0202 72.3144 13.5061 74.113 15.4611C75.9899 17.338 77.3584 19.5667 78.2187 22.1474C79.1571 24.7281 79.6263 27.5434 79.6263 30.5933C79.6263 33.6431 79.1571 36.4584 78.2187 39.0391C77.3584 41.5416 75.9899 43.7312 74.113 45.6081C72.3144 47.4067 70.0074 48.8144 67.1921 49.831C64.4551 50.8476 61.2097 51.356 57.456 51.356H55.1099ZM92.1778 117.28C91.2393 114.622 89.7926 112.393 87.8375 110.594C85.8825 108.796 83.6537 107.466 81.1512 106.606C78.6488 105.667 75.8726 105.198 72.8227 105.198C69.851 105.198 66.8402 105.628 63.7903 106.489C61.2097 108.522 58.2771 110.32 54.9926 111.885C51.7863 113.449 48.3454 114.7 44.6699 115.638C40.9944 116.655 37.2016 117.32 33.2915 117.632C29.3813 117.945 25.5103 117.906 21.6784 117.515C18.1593 117.124 15.5786 115.912 13.9364 113.879C12.2941 111.924 11.5512 109.695 11.7076 107.192C11.864 104.534 12.8416 102.305 14.6402 100.506C16.4389 98.7074 19.1368 98.0818 22.7341 98.6292C25.8622 99.0984 28.9512 99.1376 32.0011 98.7465C35.1292 98.2773 37.9445 97.4953 40.447 96.4005C43.0276 95.2274 45.1782 93.7807 46.8986 92.0602C48.6973 90.3398 49.9094 88.4238 50.535 86.3124C51.0825 84.4355 51.8254 82.9106 52.7638 81.7375C53.7804 80.4863 54.9144 79.5088 56.1656 78.805C57.4168 78.1011 58.7854 77.671 60.2712 77.5146C61.7571 77.28 63.282 77.2409 64.8461 77.3973C67.896 77.7883 70.3202 78.9614 72.1189 80.9164C73.9957 82.7933 74.7387 85.6086 74.3476 89.3623C78.8052 88.8148 83.3018 88.8931 87.8375 89.5969C92.3733 90.3007 96.5571 91.7474 100.389 93.9371C104.221 96.1268 107.505 99.1376 110.242 102.969C113.058 106.801 114.974 111.572 115.99 117.28H92.1778ZM87.6029 18.7456C87.6029 14.9137 88.7369 12.0202 91.0047 10.0652C93.3508 8.1101 96.0879 7.13257 99.216 7.13257C102.266 7.13257 104.964 8.1492 107.31 10.1825C109.656 12.1375 110.829 14.9919 110.829 18.7456V32.2355H114.465C116.264 32.2355 117.75 32.5483 118.923 33.1739C120.096 33.7995 121.034 34.5816 121.738 35.52C122.442 36.4584 122.95 37.5533 123.263 38.8045C123.576 39.9775 123.732 41.1506 123.732 42.3236C123.732 43.4966 123.576 44.7088 123.263 45.96C122.95 47.133 122.442 48.2279 121.738 49.2445C121.034 50.1829 120.057 50.9649 118.806 51.5906C117.633 52.138 116.186 52.4117 114.465 52.4117H110.829V82.4414H87.6029V18.7456ZM37.0452 25.3146C35.2465 25.3146 33.9171 25.8229 33.0568 26.8395C32.2748 27.778 31.8838 29.0292 31.8838 30.5933C31.8838 32.0791 32.2748 33.3303 33.0568 34.347C33.9171 35.3636 35.2465 35.8719 37.0452 35.8719H52.2946C54.0933 35.8719 55.3836 35.3636 56.1656 34.347C57.0258 33.3303 57.456 32.0791 57.456 30.5933C57.456 29.0292 57.0258 27.778 56.1656 26.8395C55.3836 25.8229 54.0933 25.3146 52.2946 25.3146H37.0452Z"/>
<path d="M143.034 103.439C144.989 103.282 146.631 102.305 147.961 100.506C149.368 98.6292 150.072 96.205 150.072 93.2333V89.245H135.057C131.538 89.245 128.997 88.2674 127.433 86.3124C125.947 84.3573 125.204 82.1677 125.204 79.7434C125.204 78.5704 125.36 77.4364 125.673 76.3416C126.064 75.1685 126.651 74.1128 127.433 73.1744C128.215 72.236 129.231 71.493 130.483 70.9456C131.734 70.3982 133.259 70.1245 135.057 70.1245H225.146C226.945 70.1245 228.47 70.3982 229.721 70.9456C230.973 71.493 231.989 72.236 232.771 73.1744C233.553 74.1128 234.101 75.1685 234.413 76.3416C234.804 77.4364 235 78.5704 235 79.7434C235 82.1677 234.218 84.3573 232.654 86.3124C231.168 88.2674 228.666 89.245 225.146 89.245H215.528V117.867H191.715V89.245H172.946V93.2333C172.946 97.6908 172.243 101.601 170.835 104.964C169.506 108.248 167.668 110.985 165.322 113.175C163.054 115.365 160.395 117.007 157.345 118.102C154.373 119.275 151.206 119.9 147.844 119.978C146.436 119.978 144.95 119.822 143.386 119.509C141.9 119.196 140.493 118.688 139.163 117.984C137.912 117.28 136.895 116.342 136.113 115.169C135.331 113.996 134.979 112.549 135.057 110.829C135.214 108.639 135.996 106.919 137.404 105.667C138.811 104.338 140.688 103.595 143.034 103.439ZM191.598 20.0359C191.52 20.8962 191.441 21.7173 191.363 22.4993C191.363 23.2031 191.285 23.9461 191.129 24.7281C196.133 24.7281 201.021 25.5492 205.791 27.1915C210.64 28.7555 214.941 31.1798 218.695 34.4643C222.527 37.7488 225.694 41.9326 228.196 47.0157C230.699 52.0989 232.185 58.1205 232.654 65.0805H208.959C207.864 58.1205 204.97 52.7245 200.278 48.8926C195.586 44.9825 189.838 43.1056 183.035 43.262C180.454 46.7029 177.404 49.831 173.885 52.6463C170.366 55.3834 166.612 57.7294 162.624 59.6845C158.714 61.5614 154.647 63.0472 150.424 64.142C146.201 65.1587 142.057 65.667 137.99 65.667C135.097 65.667 132.594 64.885 130.483 63.3209C128.449 61.6787 127.315 59.4108 127.081 56.5173C126.846 53.702 127.472 51.2387 128.958 49.1272C130.522 47.0157 132.79 45.7254 135.761 45.2562C139.515 44.7088 143.151 43.6921 146.671 42.2063C150.268 40.7205 153.474 38.8436 156.289 36.5757C159.183 34.2297 161.607 31.5317 163.562 28.4818C165.595 25.3537 166.925 21.9128 167.551 18.1591C168.176 14.4054 169.701 11.6683 172.125 9.94785C174.55 8.1492 177.404 7.36717 180.688 7.60178C184.129 7.91459 186.827 9.12673 188.782 11.2382C190.816 13.3496 191.754 16.2822 191.598 20.0359Z"/>
</mask>
<path d="M55.1099 51.356V57.4557H74.3476C77.8667 57.4557 80.3692 58.316 81.8551 60.0364C83.3409 61.6787 84.0838 63.6728 84.0838 66.0189C84.0838 68.365 83.3409 70.4764 81.8551 72.3533C80.3692 74.1519 77.8667 75.0512 74.3476 75.0512H16.869C13.3499 75.0512 10.8474 74.1519 9.36155 72.3533C7.87571 70.4764 7.13279 68.365 7.13279 66.0189C7.13279 63.6728 7.87571 61.6787 9.36155 60.0364C10.8474 58.316 13.3499 57.4557 16.869 57.4557H33.0568V51.356H32.0011C28.2474 51.356 24.9629 50.8476 22.1476 49.831C19.4105 48.8144 17.1036 47.4067 15.2267 45.6081C13.3499 43.7312 11.9422 41.5416 11.0038 39.0391C10.1436 36.4584 9.71346 33.6431 9.71346 30.5933C9.71346 27.5434 10.1436 24.7281 11.0038 22.1474C11.9422 19.5667 13.3499 17.338 15.2267 15.4611C17.1036 13.5061 19.4105 12.0202 22.1476 11.0036C24.9629 9.90875 28.2474 9.36133 32.0011 9.36133H57.456C61.2097 9.36133 64.4551 9.90875 67.1921 11.0036C70.0074 12.0202 72.3144 13.5061 74.113 15.4611C75.9899 17.338 77.3584 19.5667 78.2187 22.1474C79.1571 24.7281 79.6263 27.5434 79.6263 30.5933C79.6263 33.6431 79.1571 36.4584 78.2187 39.0391C77.3584 41.5416 75.9899 43.7312 74.113 45.6081C72.3144 47.4067 70.0074 48.8144 67.1921 49.831C64.4551 50.8476 61.2097 51.356 57.456 51.356H55.1099ZM92.1778 117.28C91.2393 114.622 89.7926 112.393 87.8375 110.594C85.8825 108.796 83.6537 107.466 81.1512 106.606C78.6488 105.667 75.8726 105.198 72.8227 105.198C69.851 105.198 66.8402 105.628 63.7903 106.489C61.2097 108.522 58.2771 110.32 54.9926 111.885C51.7863 113.449 48.3454 114.7 44.6699 115.638C40.9944 116.655 37.2016 117.32 33.2915 117.632C29.3813 117.945 25.5103 117.906 21.6784 117.515C18.1593 117.124 15.5786 115.912 13.9364 113.879C12.2941 111.924 11.5512 109.695 11.7076 107.192C11.864 104.534 12.8416 102.305 14.6402 100.506C16.4389 98.7074 19.1368 98.0818 22.7341 98.6292C25.8622 99.0984 28.9512 99.1376 32.0011 98.7465C35.1292 98.2773 37.9445 97.4953 40.447 96.4005C43.0276 95.2274 45.1782 93.7807 46.8986 92.0602C48.6973 90.3398 49.9094 88.4238 50.535 86.3124C51.0825 84.4355 51.8254 82.9106 52.7638 81.7375C53.7804 80.4863 54.9144 79.5088 56.1656 78.805C57.4168 78.1011 58.7854 77.671 60.2712 77.5146C61.7571 77.28 63.282 77.2409 64.8461 77.3973C67.896 77.7883 70.3202 78.9614 72.1189 80.9164C73.9957 82.7933 74.7387 85.6086 74.3476 89.3623C78.8052 88.8148 83.3018 88.8931 87.8375 89.5969C92.3733 90.3007 96.5571 91.7474 100.389 93.9371C104.221 96.1268 107.505 99.1376 110.242 102.969C113.058 106.801 114.974 111.572 115.99 117.28H92.1778ZM87.6029 18.7456C87.6029 14.9137 88.7369 12.0202 91.0047 10.0652C93.3508 8.1101 96.0879 7.13257 99.216 7.13257C102.266 7.13257 104.964 8.1492 107.31 10.1825C109.656 12.1375 110.829 14.9919 110.829 18.7456V32.2355H114.465C116.264 32.2355 117.75 32.5483 118.923 33.1739C120.096 33.7995 121.034 34.5816 121.738 35.52C122.442 36.4584 122.95 37.5533 123.263 38.8045C123.576 39.9775 123.732 41.1506 123.732 42.3236C123.732 43.4966 123.576 44.7088 123.263 45.96C122.95 47.133 122.442 48.2279 121.738 49.2445C121.034 50.1829 120.057 50.9649 118.806 51.5906C117.633 52.138 116.186 52.4117 114.465 52.4117H110.829V82.4414H87.6029V18.7456ZM37.0452 25.3146C35.2465 25.3146 33.9171 25.8229 33.0568 26.8395C32.2748 27.778 31.8838 29.0292 31.8838 30.5933C31.8838 32.0791 32.2748 33.3303 33.0568 34.347C33.9171 35.3636 35.2465 35.8719 37.0452 35.8719H52.2946C54.0933 35.8719 55.3836 35.3636 56.1656 34.347C57.0258 33.3303 57.456 32.0791 57.456 30.5933C57.456 29.0292 57.0258 27.778 56.1656 26.8395C55.3836 25.8229 54.0933 25.3146 52.2946 25.3146H37.0452Z" fill="black"/>
<path d="M143.034 103.439C144.989 103.282 146.631 102.305 147.961 100.506C149.368 98.6292 150.072 96.205 150.072 93.2333V89.245H135.057C131.538 89.245 128.997 88.2674 127.433 86.3124C125.947 84.3573 125.204 82.1677 125.204 79.7434C125.204 78.5704 125.36 77.4364 125.673 76.3416C126.064 75.1685 126.651 74.1128 127.433 73.1744C128.215 72.236 129.231 71.493 130.483 70.9456C131.734 70.3982 133.259 70.1245 135.057 70.1245H225.146C226.945 70.1245 228.47 70.3982 229.721 70.9456C230.973 71.493 231.989 72.236 232.771 73.1744C233.553 74.1128 234.101 75.1685 234.413 76.3416C234.804 77.4364 235 78.5704 235 79.7434C235 82.1677 234.218 84.3573 232.654 86.3124C231.168 88.2674 228.666 89.245 225.146 89.245H215.528V117.867H191.715V89.245H172.946V93.2333C172.946 97.6908 172.243 101.601 170.835 104.964C169.506 108.248 167.668 110.985 165.322 113.175C163.054 115.365 160.395 117.007 157.345 118.102C154.373 119.275 151.206 119.9 147.844 119.978C146.436 119.978 144.95 119.822 143.386 119.509C141.9 119.196 140.493 118.688 139.163 117.984C137.912 117.28 136.895 116.342 136.113 115.169C135.331 113.996 134.979 112.549 135.057 110.829C135.214 108.639 135.996 106.919 137.404 105.667C138.811 104.338 140.688 103.595 143.034 103.439ZM191.598 20.0359C191.52 20.8962 191.441 21.7173 191.363 22.4993C191.363 23.2031 191.285 23.9461 191.129 24.7281C196.133 24.7281 201.021 25.5492 205.791 27.1915C210.64 28.7555 214.941 31.1798 218.695 34.4643C222.527 37.7488 225.694 41.9326 228.196 47.0157C230.699 52.0989 232.185 58.1205 232.654 65.0805H208.959C207.864 58.1205 204.97 52.7245 200.278 48.8926C195.586 44.9825 189.838 43.1056 183.035 43.262C180.454 46.7029 177.404 49.831 173.885 52.6463C170.366 55.3834 166.612 57.7294 162.624 59.6845C158.714 61.5614 154.647 63.0472 150.424 64.142C146.201 65.1587 142.057 65.667 137.99 65.667C135.097 65.667 132.594 64.885 130.483 63.3209C128.449 61.6787 127.315 59.4108 127.081 56.5173C126.846 53.702 127.472 51.2387 128.958 49.1272C130.522 47.0157 132.79 45.7254 135.761 45.2562C139.515 44.7088 143.151 43.6921 146.671 42.2063C150.268 40.7205 153.474 38.8436 156.289 36.5757C159.183 34.2297 161.607 31.5317 163.562 28.4818C165.595 25.3537 166.925 21.9128 167.551 18.1591C168.176 14.4054 169.701 11.6683 172.125 9.94785C174.55 8.1492 177.404 7.36717 180.688 7.60178C184.129 7.91459 186.827 9.12673 188.782 11.2382C190.816 13.3496 191.754 16.2822 191.598 20.0359Z" fill="black"/>
<path d="M55.1099 51.356V57.4557H74.3476C77.8667 57.4557 80.3692 58.316 81.8551 60.0364C83.3409 61.6787 84.0838 63.6728 84.0838 66.0189C84.0838 68.365 83.3409 70.4764 81.8551 72.3533C80.3692 74.1519 77.8667 75.0512 74.3476 75.0512H16.869C13.3499 75.0512 10.8474 74.1519 9.36155 72.3533C7.87571 70.4764 7.13279 68.365 7.13279 66.0189C7.13279 63.6728 7.87571 61.6787 9.36155 60.0364C10.8474 58.316 13.3499 57.4557 16.869 57.4557H33.0568V51.356H32.0011C28.2474 51.356 24.9629 50.8476 22.1476 49.831C19.4105 48.8144 17.1036 47.4067 15.2267 45.6081C13.3499 43.7312 11.9422 41.5416 11.0038 39.0391C10.1436 36.4584 9.71346 33.6431 9.71346 30.5933C9.71346 27.5434 10.1436 24.7281 11.0038 22.1474C11.9422 19.5667 13.3499 17.338 15.2267 15.4611C17.1036 13.5061 19.4105 12.0202 22.1476 11.0036C24.9629 9.90875 28.2474 9.36133 32.0011 9.36133H57.456C61.2097 9.36133 64.4551 9.90875 67.1921 11.0036C70.0074 12.0202 72.3144 13.5061 74.113 15.4611C75.9899 17.338 77.3584 19.5667 78.2187 22.1474C79.1571 24.7281 79.6263 27.5434 79.6263 30.5933C79.6263 33.6431 79.1571 36.4584 78.2187 39.0391C77.3584 41.5416 75.9899 43.7312 74.113 45.6081C72.3144 47.4067 70.0074 48.8144 67.1921 49.831C64.4551 50.8476 61.2097 51.356 57.456 51.356H55.1099ZM92.1778 117.28C91.2393 114.622 89.7926 112.393 87.8375 110.594C85.8825 108.796 83.6537 107.466 81.1512 106.606C78.6488 105.667 75.8726 105.198 72.8227 105.198C69.851 105.198 66.8402 105.628 63.7903 106.489C61.2097 108.522 58.2771 110.32 54.9926 111.885C51.7863 113.449 48.3454 114.7 44.6699 115.638C40.9944 116.655 37.2016 117.32 33.2915 117.632C29.3813 117.945 25.5103 117.906 21.6784 117.515C18.1593 117.124 15.5786 115.912 13.9364 113.879C12.2941 111.924 11.5512 109.695 11.7076 107.192C11.864 104.534 12.8416 102.305 14.6402 100.506C16.4389 98.7074 19.1368 98.0818 22.7341 98.6292C25.8622 99.0984 28.9512 99.1376 32.0011 98.7465C35.1292 98.2773 37.9445 97.4953 40.447 96.4005C43.0276 95.2274 45.1782 93.7807 46.8986 92.0602C48.6973 90.3398 49.9094 88.4238 50.535 86.3124C51.0825 84.4355 51.8254 82.9106 52.7638 81.7375C53.7804 80.4863 54.9144 79.5088 56.1656 78.805C57.4168 78.1011 58.7854 77.671 60.2712 77.5146C61.7571 77.28 63.282 77.2409 64.8461 77.3973C67.896 77.7883 70.3202 78.9614 72.1189 80.9164C73.9957 82.7933 74.7387 85.6086 74.3476 89.3623C78.8052 88.8148 83.3018 88.8931 87.8375 89.5969C92.3733 90.3007 96.5571 91.7474 100.389 93.9371C104.221 96.1268 107.505 99.1376 110.242 102.969C113.058 106.801 114.974 111.572 115.99 117.28H92.1778ZM87.6029 18.7456C87.6029 14.9137 88.7369 12.0202 91.0047 10.0652C93.3508 8.1101 96.0879 7.13257 99.216 7.13257C102.266 7.13257 104.964 8.1492 107.31 10.1825C109.656 12.1375 110.829 14.9919 110.829 18.7456V32.2355H114.465C116.264 32.2355 117.75 32.5483 118.923 33.1739C120.096 33.7995 121.034 34.5816 121.738 35.52C122.442 36.4584 122.95 37.5533 123.263 38.8045C123.576 39.9775 123.732 41.1506 123.732 42.3236C123.732 43.4966 123.576 44.7088 123.263 45.96C122.95 47.133 122.442 48.2279 121.738 49.2445C121.034 50.1829 120.057 50.9649 118.806 51.5906C117.633 52.138 116.186 52.4117 114.465 52.4117H110.829V82.4414H87.6029V18.7456ZM37.0452 25.3146C35.2465 25.3146 33.9171 25.8229 33.0568 26.8395C32.2748 27.778 31.8838 29.0292 31.8838 30.5933C31.8838 32.0791 32.2748 33.3303 33.0568 34.347C33.9171 35.3636 35.2465 35.8719 37.0452 35.8719H52.2946C54.0933 35.8719 55.3836 35.3636 56.1656 34.347C57.0258 33.3303 57.456 32.0791 57.456 30.5933C57.456 29.0292 57.0258 27.778 56.1656 26.8395C55.3836 25.8229 54.0933 25.3146 52.2946 25.3146H37.0452Z" stroke="black" stroke-width="12.7967" mask="url(#path-1-outside-1_2_39)"/>
<path d="M143.034 103.439C144.989 103.282 146.631 102.305 147.961 100.506C149.368 98.6292 150.072 96.205 150.072 93.2333V89.245H135.057C131.538 89.245 128.997 88.2674 127.433 86.3124C125.947 84.3573 125.204 82.1677 125.204 79.7434C125.204 78.5704 125.36 77.4364 125.673 76.3416C126.064 75.1685 126.651 74.1128 127.433 73.1744C128.215 72.236 129.231 71.493 130.483 70.9456C131.734 70.3982 133.259 70.1245 135.057 70.1245H225.146C226.945 70.1245 228.47 70.3982 229.721 70.9456C230.973 71.493 231.989 72.236 232.771 73.1744C233.553 74.1128 234.101 75.1685 234.413 76.3416C234.804 77.4364 235 78.5704 235 79.7434C235 82.1677 234.218 84.3573 232.654 86.3124C231.168 88.2674 228.666 89.245 225.146 89.245H215.528V117.867H191.715V89.245H172.946V93.2333C172.946 97.6908 172.243 101.601 170.835 104.964C169.506 108.248 167.668 110.985 165.322 113.175C163.054 115.365 160.395 117.007 157.345 118.102C154.373 119.275 151.206 119.9 147.844 119.978C146.436 119.978 144.95 119.822 143.386 119.509C141.9 119.196 140.493 118.688 139.163 117.984C137.912 117.28 136.895 116.342 136.113 115.169C135.331 113.996 134.979 112.549 135.057 110.829C135.214 108.639 135.996 106.919 137.404 105.667C138.811 104.338 140.688 103.595 143.034 103.439ZM191.598 20.0359C191.52 20.8962 191.441 21.7173 191.363 22.4993C191.363 23.2031 191.285 23.9461 191.129 24.7281C196.133 24.7281 201.021 25.5492 205.791 27.1915C210.64 28.7555 214.941 31.1798 218.695 34.4643C222.527 37.7488 225.694 41.9326 228.196 47.0157C230.699 52.0989 232.185 58.1205 232.654 65.0805H208.959C207.864 58.1205 204.97 52.7245 200.278 48.8926C195.586 44.9825 189.838 43.1056 183.035 43.262C180.454 46.7029 177.404 49.831 173.885 52.6463C170.366 55.3834 166.612 57.7294 162.624 59.6845C158.714 61.5614 154.647 63.0472 150.424 64.142C146.201 65.1587 142.057 65.667 137.99 65.667C135.097 65.667 132.594 64.885 130.483 63.3209C128.449 61.6787 127.315 59.4108 127.081 56.5173C126.846 53.702 127.472 51.2387 128.958 49.1272C130.522 47.0157 132.79 45.7254 135.761 45.2562C139.515 44.7088 143.151 43.6921 146.671 42.2063C150.268 40.7205 153.474 38.8436 156.289 36.5757C159.183 34.2297 161.607 31.5317 163.562 28.4818C165.595 25.3537 166.925 21.9128 167.551 18.1591C168.176 14.4054 169.701 11.6683 172.125 9.94785C174.55 8.1492 177.404 7.36717 180.688 7.60178C184.129 7.91459 186.827 9.12673 188.782 11.2382C190.816 13.3496 191.754 16.2822 191.598 20.0359Z" stroke="black" stroke-width="12.7967" mask="url(#path-1-outside-1_2_39)"/>
<g filter="url(#filter0_d_2_39)">
<mask id="path-2-outside-2_2_39" maskUnits="userSpaceOnUse" x="1" y="1" width="236" height="121" fill="black">
<rect fill="white" x="1" y="1" width="236" height="121"/>
<path d="M52.9771 49.2234V55.3232H72.2149C75.734 55.3232 78.2364 56.1834 79.7223 57.9038C81.2081 59.5461 81.951 61.5402 81.951 63.8863C81.951 66.2324 81.2081 68.3438 79.7223 70.2207C78.2364 72.0194 75.734 72.9187 72.2149 72.9187H14.7362C11.2171 72.9187 8.71461 72.0194 7.22876 70.2207C5.74292 68.3438 5 66.2324 5 63.8863C5 61.5402 5.74292 59.5461 7.22876 57.9038C8.71461 56.1834 11.2171 55.3232 14.7362 55.3232H30.9241V49.2234H29.8683C26.1146 49.2234 22.8301 48.7151 20.0148 47.6984C17.2778 46.6818 14.9708 45.2742 13.0939 43.4755C11.2171 41.5987 9.80944 39.409 8.87101 36.9065C8.01079 34.3259 7.58067 31.5106 7.58067 28.4607C7.58067 25.4108 8.01079 22.5955 8.87101 20.0148C9.80944 17.4342 11.2171 15.2054 13.0939 13.3285C14.9708 11.3735 17.2778 9.88764 20.0148 8.87101C22.8301 7.77618 26.1146 7.22876 29.8683 7.22876H55.3232C59.0769 7.22876 62.3223 7.77618 65.0593 8.87101C67.8746 9.88764 70.1816 11.3735 71.9802 13.3285C73.8571 15.2054 75.2256 17.4342 76.0859 20.0148C77.0243 22.5955 77.4935 25.4108 77.4935 28.4607C77.4935 31.5106 77.0243 34.3259 76.0859 36.9065C75.2256 39.409 73.8571 41.5987 71.9802 43.4755C70.1816 45.2742 67.8746 46.6818 65.0593 47.6984C62.3223 48.7151 59.0769 49.2234 55.3232 49.2234H52.9771ZM90.045 115.148C89.1065 112.489 87.6598 110.26 85.7048 108.462C83.7497 106.663 81.5209 105.334 79.0184 104.473C76.516 103.535 73.7398 103.066 70.6899 103.066C67.7182 103.066 64.7074 103.496 61.6575 104.356C59.0769 106.389 56.1443 108.188 52.8598 109.752C49.6535 111.316 46.2126 112.567 42.5371 113.506C38.8616 114.522 35.0688 115.187 31.1587 115.5C27.2485 115.813 23.3775 115.774 19.5456 115.383C16.0265 114.992 13.4458 113.779 11.8036 111.746C10.1613 109.791 9.41843 107.562 9.57483 105.06C9.73124 102.401 10.7088 100.172 12.5074 98.3735C14.3061 96.5749 17.004 95.9492 20.6014 96.4967C23.7294 96.9659 26.8184 97.005 29.8683 96.614C32.9964 96.1448 35.8117 95.3627 38.3142 94.2679C40.8948 93.0949 43.0454 91.6481 44.7659 89.9277C46.5645 88.2072 47.7766 86.2913 48.4023 84.1798C48.9497 82.3029 49.6926 80.778 50.631 79.605C51.6477 78.3537 52.7816 77.3762 54.0328 76.6724C55.2841 75.9686 56.6526 75.5385 58.1384 75.382C59.6243 75.1474 61.1492 75.1083 62.7133 75.2648C65.7632 75.6558 68.1874 76.8288 69.9861 78.7839C71.8629 80.6607 72.6059 83.476 72.2149 87.2297C76.6724 86.6823 81.169 86.7605 85.7048 87.4643C90.2405 88.1681 94.4243 89.6149 98.2562 91.8045C102.088 93.9942 105.373 97.005 108.11 100.837C110.925 104.669 112.841 109.439 113.858 115.148H90.045ZM85.4701 16.613C85.4701 12.7811 86.6041 9.88764 88.8719 7.93258C91.218 5.97753 93.9551 5 97.0832 5C100.133 5 102.831 6.01663 105.177 8.04989C107.523 10.0049 108.696 12.8593 108.696 16.613V30.1029H112.333C114.131 30.1029 115.617 30.4157 116.79 31.0414C117.963 31.667 118.902 32.449 119.605 33.3874C120.309 34.3259 120.818 35.4207 121.13 36.6719C121.443 37.845 121.6 39.018 121.6 40.191C121.6 41.3641 121.443 42.5762 121.13 43.8274C120.818 45.0005 120.309 46.0953 119.605 47.1119C118.902 48.0504 117.924 48.8324 116.673 49.458C115.5 50.0054 114.053 50.2791 112.333 50.2791H108.696V80.3088H85.4701V16.613ZM34.9124 23.182C33.1137 23.182 31.7843 23.6903 30.9241 24.707C30.142 25.6454 29.751 26.8966 29.751 28.4607C29.751 29.9465 30.142 31.1978 30.9241 32.2144C31.7843 33.231 33.1137 33.7393 34.9124 33.7393H50.1618C51.9605 33.7393 53.2508 33.231 54.0328 32.2144C54.893 31.1978 55.3232 29.9465 55.3232 28.4607C55.3232 26.8966 54.893 25.6454 54.0328 24.707C53.2508 23.6903 51.9605 23.182 50.1618 23.182H34.9124Z"/>
<path d="M140.901 101.306C142.856 101.15 144.499 100.172 145.828 98.3735C147.236 96.4967 147.94 94.0724 147.94 91.1007V87.1124H132.925C129.406 87.1124 126.864 86.1349 125.3 84.1798C123.814 82.2247 123.071 80.0351 123.071 77.6108C123.071 76.4378 123.228 75.3038 123.54 74.209C123.931 73.036 124.518 71.9803 125.3 71.0418C126.082 70.1034 127.099 69.3605 128.35 68.8131C129.601 68.2656 131.126 67.9919 132.925 67.9919H223.014C224.812 67.9919 226.337 68.2656 227.589 68.8131C228.84 69.3605 229.856 70.1034 230.638 71.0418C231.42 71.9803 231.968 73.036 232.281 74.209C232.672 75.3038 232.867 76.4378 232.867 77.6108C232.867 80.0351 232.085 82.2247 230.521 84.1798C229.035 86.1349 226.533 87.1124 223.014 87.1124H213.395V115.734H189.582V87.1124H170.814V91.1007C170.814 95.5582 170.11 99.4684 168.702 102.831C167.373 106.116 165.535 108.853 163.189 111.042C160.921 113.232 158.262 114.874 155.212 115.969C152.241 117.142 149.073 117.768 145.711 117.846C144.303 117.846 142.817 117.689 141.253 117.377C139.767 117.064 138.36 116.556 137.03 115.852C135.779 115.148 134.762 114.209 133.98 113.036C133.198 111.863 132.846 110.417 132.925 108.696C133.081 106.507 133.863 104.786 135.271 103.535C136.678 102.205 138.555 101.463 140.901 101.306ZM189.465 17.9034C189.387 18.7636 189.309 19.5847 189.23 20.3667C189.23 21.0706 189.152 21.8135 188.996 22.5955C194.001 22.5955 198.888 23.4166 203.659 25.0589C208.507 26.6229 212.808 29.0472 216.562 32.3317C220.394 35.6162 223.561 39.8 226.064 44.8832C228.566 49.9663 230.052 55.9879 230.521 62.9479H206.826C205.731 55.9879 202.838 50.5919 198.145 46.76C193.453 42.8499 187.705 40.973 180.902 41.1295C178.321 44.5704 175.271 47.6984 171.752 50.5137C168.233 53.2508 164.479 55.5969 160.491 57.5519C156.581 59.4288 152.514 60.9146 148.291 62.0095C144.069 63.0261 139.924 63.5344 135.857 63.5344C132.964 63.5344 130.461 62.7524 128.35 61.1883C126.317 59.5461 125.183 57.2782 124.948 54.3847C124.713 51.5695 125.339 49.1061 126.825 46.9946C128.389 44.8832 130.657 43.5928 133.629 43.1236C137.382 42.5762 141.019 41.5596 144.538 40.0737C148.135 38.5879 151.341 36.711 154.157 34.4432C157.05 32.0971 159.474 29.3991 161.429 26.3492C163.463 23.2211 164.792 19.7802 165.418 16.0265C166.043 12.2728 167.568 9.53573 169.993 7.81528C172.417 6.01663 175.271 5.23461 178.556 5.46921C181.997 5.78202 184.695 6.99416 186.65 9.10562C188.683 11.2171 189.621 14.1497 189.465 17.9034Z"/>
</mask>
<path d="M52.9771 49.2234V55.3232H72.2149C75.734 55.3232 78.2364 56.1834 79.7223 57.9038C81.2081 59.5461 81.951 61.5402 81.951 63.8863C81.951 66.2324 81.2081 68.3438 79.7223 70.2207C78.2364 72.0194 75.734 72.9187 72.2149 72.9187H14.7362C11.2171 72.9187 8.71461 72.0194 7.22876 70.2207C5.74292 68.3438 5 66.2324 5 63.8863C5 61.5402 5.74292 59.5461 7.22876 57.9038C8.71461 56.1834 11.2171 55.3232 14.7362 55.3232H30.9241V49.2234H29.8683C26.1146 49.2234 22.8301 48.7151 20.0148 47.6984C17.2778 46.6818 14.9708 45.2742 13.0939 43.4755C11.2171 41.5987 9.80944 39.409 8.87101 36.9065C8.01079 34.3259 7.58067 31.5106 7.58067 28.4607C7.58067 25.4108 8.01079 22.5955 8.87101 20.0148C9.80944 17.4342 11.2171 15.2054 13.0939 13.3285C14.9708 11.3735 17.2778 9.88764 20.0148 8.87101C22.8301 7.77618 26.1146 7.22876 29.8683 7.22876H55.3232C59.0769 7.22876 62.3223 7.77618 65.0593 8.87101C67.8746 9.88764 70.1816 11.3735 71.9802 13.3285C73.8571 15.2054 75.2256 17.4342 76.0859 20.0148C77.0243 22.5955 77.4935 25.4108 77.4935 28.4607C77.4935 31.5106 77.0243 34.3259 76.0859 36.9065C75.2256 39.409 73.8571 41.5987 71.9802 43.4755C70.1816 45.2742 67.8746 46.6818 65.0593 47.6984C62.3223 48.7151 59.0769 49.2234 55.3232 49.2234H52.9771ZM90.045 115.148C89.1065 112.489 87.6598 110.26 85.7048 108.462C83.7497 106.663 81.5209 105.334 79.0184 104.473C76.516 103.535 73.7398 103.066 70.6899 103.066C67.7182 103.066 64.7074 103.496 61.6575 104.356C59.0769 106.389 56.1443 108.188 52.8598 109.752C49.6535 111.316 46.2126 112.567 42.5371 113.506C38.8616 114.522 35.0688 115.187 31.1587 115.5C27.2485 115.813 23.3775 115.774 19.5456 115.383C16.0265 114.992 13.4458 113.779 11.8036 111.746C10.1613 109.791 9.41843 107.562 9.57483 105.06C9.73124 102.401 10.7088 100.172 12.5074 98.3735C14.3061 96.5749 17.004 95.9492 20.6014 96.4967C23.7294 96.9659 26.8184 97.005 29.8683 96.614C32.9964 96.1448 35.8117 95.3627 38.3142 94.2679C40.8948 93.0949 43.0454 91.6481 44.7659 89.9277C46.5645 88.2072 47.7766 86.2913 48.4023 84.1798C48.9497 82.3029 49.6926 80.778 50.631 79.605C51.6477 78.3537 52.7816 77.3762 54.0328 76.6724C55.2841 75.9686 56.6526 75.5385 58.1384 75.382C59.6243 75.1474 61.1492 75.1083 62.7133 75.2648C65.7632 75.6558 68.1874 76.8288 69.9861 78.7839C71.8629 80.6607 72.6059 83.476 72.2149 87.2297C76.6724 86.6823 81.169 86.7605 85.7048 87.4643C90.2405 88.1681 94.4243 89.6149 98.2562 91.8045C102.088 93.9942 105.373 97.005 108.11 100.837C110.925 104.669 112.841 109.439 113.858 115.148H90.045ZM85.4701 16.613C85.4701 12.7811 86.6041 9.88764 88.8719 7.93258C91.218 5.97753 93.9551 5 97.0832 5C100.133 5 102.831 6.01663 105.177 8.04989C107.523 10.0049 108.696 12.8593 108.696 16.613V30.1029H112.333C114.131 30.1029 115.617 30.4157 116.79 31.0414C117.963 31.667 118.902 32.449 119.605 33.3874C120.309 34.3259 120.818 35.4207 121.13 36.6719C121.443 37.845 121.6 39.018 121.6 40.191C121.6 41.3641 121.443 42.5762 121.13 43.8274C120.818 45.0005 120.309 46.0953 119.605 47.1119C118.902 48.0504 117.924 48.8324 116.673 49.458C115.5 50.0054 114.053 50.2791 112.333 50.2791H108.696V80.3088H85.4701V16.613ZM34.9124 23.182C33.1137 23.182 31.7843 23.6903 30.9241 24.707C30.142 25.6454 29.751 26.8966 29.751 28.4607C29.751 29.9465 30.142 31.1978 30.9241 32.2144C31.7843 33.231 33.1137 33.7393 34.9124 33.7393H50.1618C51.9605 33.7393 53.2508 33.231 54.0328 32.2144C54.893 31.1978 55.3232 29.9465 55.3232 28.4607C55.3232 26.8966 54.893 25.6454 54.0328 24.707C53.2508 23.6903 51.9605 23.182 50.1618 23.182H34.9124Z" fill="white"/>
<path d="M140.901 101.306C142.856 101.15 144.499 100.172 145.828 98.3735C147.236 96.4967 147.94 94.0724 147.94 91.1007V87.1124H132.925C129.406 87.1124 126.864 86.1349 125.3 84.1798C123.814 82.2247 123.071 80.0351 123.071 77.6108C123.071 76.4378 123.228 75.3038 123.54 74.209C123.931 73.036 124.518 71.9803 125.3 71.0418C126.082 70.1034 127.099 69.3605 128.35 68.8131C129.601 68.2656 131.126 67.9919 132.925 67.9919H223.014C224.812 67.9919 226.337 68.2656 227.589 68.8131C228.84 69.3605 229.856 70.1034 230.638 71.0418C231.42 71.9803 231.968 73.036 232.281 74.209C232.672 75.3038 232.867 76.4378 232.867 77.6108C232.867 80.0351 232.085 82.2247 230.521 84.1798C229.035 86.1349 226.533 87.1124 223.014 87.1124H213.395V115.734H189.582V87.1124H170.814V91.1007C170.814 95.5582 170.11 99.4684 168.702 102.831C167.373 106.116 165.535 108.853 163.189 111.042C160.921 113.232 158.262 114.874 155.212 115.969C152.241 117.142 149.073 117.768 145.711 117.846C144.303 117.846 142.817 117.689 141.253 117.377C139.767 117.064 138.36 116.556 137.03 115.852C135.779 115.148 134.762 114.209 133.98 113.036C133.198 111.863 132.846 110.417 132.925 108.696C133.081 106.507 133.863 104.786 135.271 103.535C136.678 102.205 138.555 101.463 140.901 101.306ZM189.465 17.9034C189.387 18.7636 189.309 19.5847 189.23 20.3667C189.23 21.0706 189.152 21.8135 188.996 22.5955C194.001 22.5955 198.888 23.4166 203.659 25.0589C208.507 26.6229 212.808 29.0472 216.562 32.3317C220.394 35.6162 223.561 39.8 226.064 44.8832C228.566 49.9663 230.052 55.9879 230.521 62.9479H206.826C205.731 55.9879 202.838 50.5919 198.145 46.76C193.453 42.8499 187.705 40.973 180.902 41.1295C178.321 44.5704 175.271 47.6984 171.752 50.5137C168.233 53.2508 164.479 55.5969 160.491 57.5519C156.581 59.4288 152.514 60.9146 148.291 62.0095C144.069 63.0261 139.924 63.5344 135.857 63.5344C132.964 63.5344 130.461 62.7524 128.35 61.1883C126.317 59.5461 125.183 57.2782 124.948 54.3847C124.713 51.5695 125.339 49.1061 126.825 46.9946C128.389 44.8832 130.657 43.5928 133.629 43.1236C137.382 42.5762 141.019 41.5596 144.538 40.0737C148.135 38.5879 151.341 36.711 154.157 34.4432C157.05 32.0971 159.474 29.3991 161.429 26.3492C163.463 23.2211 164.792 19.7802 165.418 16.0265C166.043 12.2728 167.568 9.53573 169.993 7.81528C172.417 6.01663 175.271 5.23461 178.556 5.46921C181.997 5.78202 184.695 6.99416 186.65 9.10562C188.683 11.2171 189.621 14.1497 189.465 17.9034Z" fill="white"/>
<path d="M52.9771 49.2234V55.3232H72.2149C75.734 55.3232 78.2364 56.1834 79.7223 57.9038C81.2081 59.5461 81.951 61.5402 81.951 63.8863C81.951 66.2324 81.2081 68.3438 79.7223 70.2207C78.2364 72.0194 75.734 72.9187 72.2149 72.9187H14.7362C11.2171 72.9187 8.71461 72.0194 7.22876 70.2207C5.74292 68.3438 5 66.2324 5 63.8863C5 61.5402 5.74292 59.5461 7.22876 57.9038C8.71461 56.1834 11.2171 55.3232 14.7362 55.3232H30.9241V49.2234H29.8683C26.1146 49.2234 22.8301 48.7151 20.0148 47.6984C17.2778 46.6818 14.9708 45.2742 13.0939 43.4755C11.2171 41.5987 9.80944 39.409 8.87101 36.9065C8.01079 34.3259 7.58067 31.5106 7.58067 28.4607C7.58067 25.4108 8.01079 22.5955 8.87101 20.0148C9.80944 17.4342 11.2171 15.2054 13.0939 13.3285C14.9708 11.3735 17.2778 9.88764 20.0148 8.87101C22.8301 7.77618 26.1146 7.22876 29.8683 7.22876H55.3232C59.0769 7.22876 62.3223 7.77618 65.0593 8.87101C67.8746 9.88764 70.1816 11.3735 71.9802 13.3285C73.8571 15.2054 75.2256 17.4342 76.0859 20.0148C77.0243 22.5955 77.4935 25.4108 77.4935 28.4607C77.4935 31.5106 77.0243 34.3259 76.0859 36.9065C75.2256 39.409 73.8571 41.5987 71.9802 43.4755C70.1816 45.2742 67.8746 46.6818 65.0593 47.6984C62.3223 48.7151 59.0769 49.2234 55.3232 49.2234H52.9771ZM90.045 115.148C89.1065 112.489 87.6598 110.26 85.7048 108.462C83.7497 106.663 81.5209 105.334 79.0184 104.473C76.516 103.535 73.7398 103.066 70.6899 103.066C67.7182 103.066 64.7074 103.496 61.6575 104.356C59.0769 106.389 56.1443 108.188 52.8598 109.752C49.6535 111.316 46.2126 112.567 42.5371 113.506C38.8616 114.522 35.0688 115.187 31.1587 115.5C27.2485 115.813 23.3775 115.774 19.5456 115.383C16.0265 114.992 13.4458 113.779 11.8036 111.746C10.1613 109.791 9.41843 107.562 9.57483 105.06C9.73124 102.401 10.7088 100.172 12.5074 98.3735C14.3061 96.5749 17.004 95.9492 20.6014 96.4967C23.7294 96.9659 26.8184 97.005 29.8683 96.614C32.9964 96.1448 35.8117 95.3627 38.3142 94.2679C40.8948 93.0949 43.0454 91.6481 44.7659 89.9277C46.5645 88.2072 47.7766 86.2913 48.4023 84.1798C48.9497 82.3029 49.6926 80.778 50.631 79.605C51.6477 78.3537 52.7816 77.3762 54.0328 76.6724C55.2841 75.9686 56.6526 75.5385 58.1384 75.382C59.6243 75.1474 61.1492 75.1083 62.7133 75.2648C65.7632 75.6558 68.1874 76.8288 69.9861 78.7839C71.8629 80.6607 72.6059 83.476 72.2149 87.2297C76.6724 86.6823 81.169 86.7605 85.7048 87.4643C90.2405 88.1681 94.4243 89.6149 98.2562 91.8045C102.088 93.9942 105.373 97.005 108.11 100.837C110.925 104.669 112.841 109.439 113.858 115.148H90.045ZM85.4701 16.613C85.4701 12.7811 86.6041 9.88764 88.8719 7.93258C91.218 5.97753 93.9551 5 97.0832 5C100.133 5 102.831 6.01663 105.177 8.04989C107.523 10.0049 108.696 12.8593 108.696 16.613V30.1029H112.333C114.131 30.1029 115.617 30.4157 116.79 31.0414C117.963 31.667 118.902 32.449 119.605 33.3874C120.309 34.3259 120.818 35.4207 121.13 36.6719C121.443 37.845 121.6 39.018 121.6 40.191C121.6 41.3641 121.443 42.5762 121.13 43.8274C120.818 45.0005 120.309 46.0953 119.605 47.1119C118.902 48.0504 117.924 48.8324 116.673 49.458C115.5 50.0054 114.053 50.2791 112.333 50.2791H108.696V80.3088H85.4701V16.613ZM34.9124 23.182C33.1137 23.182 31.7843 23.6903 30.9241 24.707C30.142 25.6454 29.751 26.8966 29.751 28.4607C29.751 29.9465 30.142 31.1978 30.9241 32.2144C31.7843 33.231 33.1137 33.7393 34.9124 33.7393H50.1618C51.9605 33.7393 53.2508 33.231 54.0328 32.2144C54.893 31.1978 55.3232 29.9465 55.3232 28.4607C55.3232 26.8966 54.893 25.6454 54.0328 24.707C53.2508 23.6903 51.9605 23.182 50.1618 23.182H34.9124Z" stroke="black" stroke-width="6.39837" mask="url(#path-2-outside-2_2_39)"/>
<path d="M140.901 101.306C142.856 101.15 144.499 100.172 145.828 98.3735C147.236 96.4967 147.94 94.0724 147.94 91.1007V87.1124H132.925C129.406 87.1124 126.864 86.1349 125.3 84.1798C123.814 82.2247 123.071 80.0351 123.071 77.6108C123.071 76.4378 123.228 75.3038 123.54 74.209C123.931 73.036 124.518 71.9803 125.3 71.0418C126.082 70.1034 127.099 69.3605 128.35 68.8131C129.601 68.2656 131.126 67.9919 132.925 67.9919H223.014C224.812 67.9919 226.337 68.2656 227.589 68.8131C228.84 69.3605 229.856 70.1034 230.638 71.0418C231.42 71.9803 231.968 73.036 232.281 74.209C232.672 75.3038 232.867 76.4378 232.867 77.6108C232.867 80.0351 232.085 82.2247 230.521 84.1798C229.035 86.1349 226.533 87.1124 223.014 87.1124H213.395V115.734H189.582V87.1124H170.814V91.1007C170.814 95.5582 170.11 99.4684 168.702 102.831C167.373 106.116 165.535 108.853 163.189 111.042C160.921 113.232 158.262 114.874 155.212 115.969C152.241 117.142 149.073 117.768 145.711 117.846C144.303 117.846 142.817 117.689 141.253 117.377C139.767 117.064 138.36 116.556 137.03 115.852C135.779 115.148 134.762 114.209 133.98 113.036C133.198 111.863 132.846 110.417 132.925 108.696C133.081 106.507 133.863 104.786 135.271 103.535C136.678 102.205 138.555 101.463 140.901 101.306ZM189.465 17.9034C189.387 18.7636 189.309 19.5847 189.23 20.3667C189.23 21.0706 189.152 21.8135 188.996 22.5955C194.001 22.5955 198.888 23.4166 203.659 25.0589C208.507 26.6229 212.808 29.0472 216.562 32.3317C220.394 35.6162 223.561 39.8 226.064 44.8832C228.566 49.9663 230.052 55.9879 230.521 62.9479H206.826C205.731 55.9879 202.838 50.5919 198.145 46.76C193.453 42.8499 187.705 40.973 180.902 41.1295C178.321 44.5704 175.271 47.6984 171.752 50.5137C168.233 53.2508 164.479 55.5969 160.491 57.5519C156.581 59.4288 152.514 60.9146 148.291 62.0095C144.069 63.0261 139.924 63.5344 135.857 63.5344C132.964 63.5344 130.461 62.7524 128.35 61.1883C126.317 59.5461 125.183 57.2782 124.948 54.3847C124.713 51.5695 125.339 49.1061 126.825 46.9946C128.389 44.8832 130.657 43.5928 133.629 43.1236C137.382 42.5762 141.019 41.5596 144.538 40.0737C148.135 38.5879 151.341 36.711 154.157 34.4432C157.05 32.0971 159.474 29.3991 161.429 26.3492C163.463 23.2211 164.792 19.7802 165.418 16.0265C166.043 12.2728 167.568 9.53573 169.993 7.81528C172.417 6.01663 175.271 5.23461 178.556 5.46921C181.997 5.78202 184.695 6.99416 186.65 9.10562C188.683 11.2171 189.621 14.1497 189.465 17.9034Z" stroke="black" stroke-width="6.39837" mask="url(#path-2-outside-2_2_39)"/>
</g>
<defs>
<filter id="filter0_d_2_39" x="1.80082" y="1.80084" width="237.465" height="122.443" filterUnits="userSpaceOnUse" color-interpolation-filters="sRGB">
<feFlood flood-opacity="0" result="BackgroundImageFix"/>
<feColorMatrix in="SourceAlpha" type="matrix" values="0 0 0 0 0 0 0 0 0 0 0 0 0 0 0 0 0 0 127 0" result="hardAlpha"/>
<feOffset dx="3.19918" dy="3.19918"/>
<feComposite in2="hardAlpha" operator="out"/>
<feColorMatrix type="matrix" values="0 0 0 0 0 0 0 0 0 0 0 0 0 0 0 0 0 0 1 0"/>
<feBlend mode="normal" in2="BackgroundImageFix" result="effect1_dropShadow_2_39"/>
<feBlend mode="normal" in="SourceGraphic" in2="effect1_dropShadow_2_39" result="shape"/>
</filter>
</defs>
</svg>
