<svg width="38" height="20" viewBox="0 0 38 20" fill="none" xmlns="http://www.w3.org/2000/svg">
<mask id="path-1-outside-1_2_48" maskUnits="userSpaceOnUse" x="0" y="0" width="38" height="20" fill="black">
<rect fill="white" width="38" height="20"/>
<path d="M8.57975 8.05405V9.02703H11.6191C12.175 9.02703 12.5704 9.16424 12.8051 9.43867C13.0399 9.70062 13.1572 10.0187 13.1572 10.3929C13.1572 10.7672 13.0399 11.1039 12.8051 11.4033C12.5704 11.6902 12.175 11.8337 11.6191 11.8337H2.53819C1.98222 11.8337 1.58686 11.6902 1.35212 11.4033C1.11737 11.1039 1 10.7672 1 10.3929C1 10.0187 1.11737 9.70062 1.35212 9.43867C1.58686 9.16424 1.98222 9.02703 2.53819 9.02703H5.09566V8.05405H4.92887C4.33583 8.05405 3.81692 7.97297 3.37215 7.81081C2.93972 7.64865 2.57525 7.42412 2.27873 7.13721C1.98222 6.83784 1.75983 6.48857 1.61157 6.0894C1.47566 5.67775 1.40771 5.22869 1.40771 4.7422C1.40771 4.25572 1.47566 3.80665 1.61157 3.39501C1.75983 2.98337 1.98222 2.62786 2.27873 2.32848C2.57525 2.01663 2.93972 1.77963 3.37215 1.61746C3.81692 1.44283 4.33583 1.35551 4.92887 1.35551H8.95039C9.54343 1.35551 10.0562 1.44283 10.4886 1.61746C10.9334 1.77963 11.2978 2.01663 11.582 2.32848C11.8785 2.62786 12.0947 2.98337 12.2306 3.39501C12.3789 3.80665 12.453 4.25572 12.453 4.7422C12.453 5.22869 12.3789 5.67775 12.2306 6.0894C12.0947 6.48857 11.8785 6.83784 11.582 7.13721C11.2978 7.42412 10.9334 7.64865 10.4886 7.81081C10.0562 7.97297 9.54343 8.05405 8.95039 8.05405H8.57975ZM14.436 18.5696C14.2877 18.1455 14.0592 17.79 13.7503 17.5031C13.4414 17.2162 13.0893 17.0042 12.6939 16.8669C12.2986 16.7173 11.86 16.6424 11.3781 16.6424C10.9086 16.6424 10.433 16.711 9.95114 16.8482C9.54343 17.1726 9.08012 17.4595 8.56121 17.7089C8.05466 17.9584 7.51104 18.158 6.93036 18.3077C6.34968 18.4699 5.75047 18.5759 5.13272 18.6258C4.51498 18.6757 3.90341 18.6694 3.29802 18.6071C2.74204 18.5447 2.33433 18.3514 2.07488 18.027C1.81543 17.7152 1.69805 17.3597 1.72276 16.9605C1.74747 16.5364 1.90191 16.1809 2.18607 15.894C2.47024 15.6071 2.89648 15.5073 3.46481 15.5946C3.959 15.6694 4.44702 15.6757 4.92887 15.6133C5.42306 15.5385 5.86784 15.4137 6.2632 15.2391C6.67091 15.052 7.01067 14.8212 7.28248 14.5468C7.56664 14.2723 7.75814 13.9667 7.85698 13.6299C7.94347 13.3306 8.06084 13.0873 8.2091 12.9002C8.36971 12.7006 8.54886 12.5447 8.74654 12.4324C8.94422 12.3202 9.16043 12.2516 9.39517 12.2266C9.62991 12.1892 9.87084 12.183 10.1179 12.2079C10.5998 12.2703 10.9828 12.4574 11.2669 12.7692C11.5635 13.0686 11.6808 13.5177 11.6191 14.1164C12.3233 14.0291 13.0337 14.0416 13.7503 14.1538C14.4669 14.2661 15.1279 14.4969 15.7332 14.8462C16.3386 15.1954 16.8575 15.6757 17.29 16.2869C17.7347 16.8981 18.0374 17.659 18.1981 18.5696H14.436ZM13.7132 2.85239C13.7132 2.24116 13.8924 1.77963 14.2507 1.46777C14.6213 1.15593 15.0537 1 15.5479 1C16.0298 1 16.456 1.16216 16.8267 1.48649C17.1973 1.79834 17.3826 2.25364 17.3826 2.85239V5.00416H17.9571C18.2413 5.00416 18.476 5.05405 18.6614 5.15385C18.8467 5.25364 18.9949 5.37838 19.1061 5.52807C19.2173 5.67775 19.2976 5.85239 19.3471 6.05197C19.3965 6.23908 19.4212 6.4262 19.4212 6.61331C19.4212 6.80042 19.3965 6.99376 19.3471 7.19335C19.2976 7.38046 19.2173 7.55509 19.1061 7.71726C18.9949 7.86694 18.8405 7.99168 18.6428 8.09148C18.4575 8.17879 18.2289 8.22245 17.9571 8.22245H17.3826V13.0125H13.7132V2.85239ZM5.72576 3.90021C5.4416 3.90021 5.23156 3.98129 5.09566 4.14345C4.97211 4.29314 4.91033 4.49272 4.91033 4.7422C4.91033 4.97921 4.97211 5.17879 5.09566 5.34096C5.23156 5.50312 5.4416 5.5842 5.72576 5.5842H8.13497C8.41913 5.5842 8.62299 5.50312 8.74654 5.34096C8.88244 5.17879 8.95039 4.97921 8.95039 4.7422C8.95039 4.49272 8.88244 4.29314 8.74654 4.14345C8.62299 3.98129 8.41913 3.90021 8.13497 3.90021H5.72576Z"/>
<path d="M22.4706 16.3617C22.7795 16.3368 23.0389 16.1809 23.249 15.894C23.4714 15.5946 23.5826 15.2079 23.5826 14.7339V14.0977H21.2104C20.6544 14.0977 20.2529 13.9418 20.0058 13.6299C19.7711 13.3181 19.6537 12.9688 19.6537 12.5821C19.6537 12.395 19.6784 12.2141 19.7278 12.0395C19.7896 11.8524 19.8823 11.684 20.0058 11.5343C20.1294 11.3846 20.29 11.2661 20.4876 11.1788C20.6853 11.0915 20.9262 11.0478 21.2104 11.0478H35.4433C35.7274 11.0478 35.9684 11.0915 36.166 11.1788C36.3637 11.2661 36.5243 11.3846 36.6479 11.5343C36.7714 11.684 36.8579 11.8524 36.9073 12.0395C36.9691 12.2141 37 12.395 37 12.5821C37 12.9688 36.8764 13.3181 36.6294 13.6299C36.3946 13.9418 35.9992 14.0977 35.4433 14.0977H33.9236V18.6632H30.1615V14.0977H27.1964V14.7339C27.1964 15.4449 27.0852 16.0686 26.8628 16.605C26.6528 17.1289 26.3624 17.5655 25.9918 17.9148C25.6335 18.264 25.2134 18.526 24.7316 18.7006C24.2621 18.8877 23.7617 18.9875 23.2304 19C23.008 19 22.7733 18.9751 22.5262 18.9252C22.2915 18.8753 22.0691 18.7942 21.859 18.6819C21.6614 18.5696 21.5007 18.42 21.3772 18.2328C21.2537 18.0457 21.1981 17.815 21.2104 17.5405C21.2351 17.1913 21.3587 16.9168 21.5811 16.7173C21.8034 16.5052 22.1 16.3867 22.4706 16.3617ZM30.143 3.05821C30.1307 3.19543 30.1183 3.3264 30.106 3.45114C30.106 3.56341 30.0936 3.68191 30.0689 3.80665C30.8596 3.80665 31.6318 3.93763 32.3854 4.19958C33.1514 4.44906 33.831 4.83576 34.424 5.35967C35.0294 5.88358 35.5298 6.55094 35.9251 7.36175C36.3205 8.17256 36.5552 9.13305 36.6294 10.2432H32.8858C32.7128 9.13305 32.2557 8.27235 31.5144 7.66112C30.7731 7.03742 29.865 6.73805 28.7902 6.76299C28.3824 7.31185 27.9006 7.81081 27.3446 8.25987C26.7887 8.69646 26.1956 9.07069 25.5655 9.38254C24.9478 9.68191 24.3053 9.91892 23.6381 10.0936C22.971 10.2557 22.3162 10.3368 21.6737 10.3368C21.2166 10.3368 20.8212 10.2121 20.4876 9.96258C20.1664 9.70062 19.9873 9.33888 19.9502 8.87734C19.9131 8.42827 20.012 8.03534 20.2467 7.69854C20.4938 7.36175 20.8521 7.15592 21.3216 7.08108C21.9146 6.99376 22.4891 6.8316 23.0451 6.59459C23.6134 6.35759 24.12 6.05821 24.5648 5.69647C25.0219 5.32225 25.4049 4.89189 25.7138 4.4054C26.035 3.90644 26.245 3.35759 26.3439 2.75884C26.4427 2.16008 26.6836 1.72349 27.0666 1.44906C27.4496 1.16216 27.9006 1.03742 28.4195 1.07484C28.9631 1.12474 29.3894 1.31809 29.6982 1.65488C30.0195 1.99168 30.1677 2.45946 30.143 3.05821Z"/>
</mask>
<path d="M8.57975 8.05405V9.02703H11.6191C12.175 9.02703 12.5704 9.16424 12.8051 9.43867C13.0399 9.70062 13.1572 10.0187 13.1572 10.3929C13.1572 10.7672 13.0399 11.1039 12.8051 11.4033C12.5704 11.6902 12.175 11.8337 11.6191 11.8337H2.53819C1.98222 11.8337 1.58686 11.6902 1.35212 11.4033C1.11737 11.1039 1 10.7672 1 10.3929C1 10.0187 1.11737 9.70062 1.35212 9.43867C1.58686 9.16424 1.98222 9.02703 2.53819 9.02703H5.09566V8.05405H4.92887C4.33583 8.05405 3.81692 7.97297 3.37215 7.81081C2.93972 7.64865 2.57525 7.42412 2.27873 7.13721C1.98222 6.83784 1.75983 6.48857 1.61157 6.0894C1.47566 5.67775 1.40771 5.22869 1.40771 4.7422C1.40771 4.25572 1.47566 3.80665 1.61157 3.39501C1.75983 2.98337 1.98222 2.62786 2.27873 2.32848C2.57525 2.01663 2.93972 1.77963 3.37215 1.61746C3.81692 1.44283 4.33583 1.35551 4.92887 1.35551H8.95039C9.54343 1.35551 10.0562 1.44283 10.4886 1.61746C10.9334 1.77963 11.2978 2.01663 11.582 2.32848C11.8785 2.62786 12.0947 2.98337 12.2306 3.39501C12.3789 3.80665 12.453 4.25572 12.453 4.7422C12.453 5.22869 12.3789 5.67775 12.2306 6.0894C12.0947 6.48857 11.8785 6.83784 11.582 7.13721C11.2978 7.42412 10.9334 7.64865 10.4886 7.81081C10.0562 7.97297 9.54343 8.05405 8.95039 8.05405H8.57975ZM14.436 18.5696C14.2877 18.1455 14.0592 17.79 13.7503 17.5031C13.4414 17.2162 13.0893 17.0042 12.6939 16.8669C12.2986 16.7173 11.86 16.6424 11.3781 16.6424C10.9086 16.6424 10.433 16.711 9.95114 16.8482C9.54343 17.1726 9.08012 17.4595 8.56121 17.7089C8.05466 17.9584 7.51104 18.158 6.93036 18.3077C6.34968 18.4699 5.75047 18.5759 5.13272 18.6258C4.51498 18.6757 3.90341 18.6694 3.29802 18.6071C2.74204 18.5447 2.33433 18.3514 2.07488 18.027C1.81543 17.7152 1.69805 17.3597 1.72276 16.9605C1.74747 16.5364 1.90191 16.1809 2.18607 15.894C2.47024 15.6071 2.89648 15.5073 3.46481 15.5946C3.959 15.6694 4.44702 15.6757 4.92887 15.6133C5.42306 15.5385 5.86784 15.4137 6.2632 15.2391C6.67091 15.052 7.01067 14.8212 7.28248 14.5468C7.56664 14.2723 7.75814 13.9667 7.85698 13.6299C7.94347 13.3306 8.06084 13.0873 8.2091 12.9002C8.36971 12.7006 8.54886 12.5447 8.74654 12.4324C8.94422 12.3202 9.16043 12.2516 9.39517 12.2266C9.62991 12.1892 9.87084 12.183 10.1179 12.2079C10.5998 12.2703 10.9828 12.4574 11.2669 12.7692C11.5635 13.0686 11.6808 13.5177 11.6191 14.1164C12.3233 14.0291 13.0337 14.0416 13.7503 14.1538C14.4669 14.2661 15.1279 14.4969 15.7332 14.8462C16.3386 15.1954 16.8575 15.6757 17.29 16.2869C17.7347 16.8981 18.0374 17.659 18.1981 18.5696H14.436ZM13.7132 2.85239C13.7132 2.24116 13.8924 1.77963 14.2507 1.46777C14.6213 1.15593 15.0537 1 15.5479 1C16.0298 1 16.456 1.16216 16.8267 1.48649C17.1973 1.79834 17.3826 2.25364 17.3826 2.85239V5.00416H17.9571C18.2413 5.00416 18.476 5.05405 18.6614 5.15385C18.8467 5.25364 18.9949 5.37838 19.1061 5.52807C19.2173 5.67775 19.2976 5.85239 19.3471 6.05197C19.3965 6.23908 19.4212 6.4262 19.4212 6.61331C19.4212 6.80042 19.3965 6.99376 19.3471 7.19335C19.2976 7.38046 19.2173 7.55509 19.1061 7.71726C18.9949 7.86694 18.8405 7.99168 18.6428 8.09148C18.4575 8.17879 18.2289 8.22245 17.9571 8.22245H17.3826V13.0125H13.7132V2.85239ZM5.72576 3.90021C5.4416 3.90021 5.23156 3.98129 5.09566 4.14345C4.97211 4.29314 4.91033 4.49272 4.91033 4.7422C4.91033 4.97921 4.97211 5.17879 5.09566 5.34096C5.23156 5.50312 5.4416 5.5842 5.72576 5.5842H8.13497C8.41913 5.5842 8.62299 5.50312 8.74654 5.34096C8.88244 5.17879 8.95039 4.97921 8.95039 4.7422C8.95039 4.49272 8.88244 4.29314 8.74654 4.14345C8.62299 3.98129 8.41913 3.90021 8.13497 3.90021H5.72576Z" fill="black"/>
<path d="M22.4706 16.3617C22.7795 16.3368 23.0389 16.1809 23.249 15.894C23.4714 15.5946 23.5826 15.2079 23.5826 14.7339V14.0977H21.2104C20.6544 14.0977 20.2529 13.9418 20.0058 13.6299C19.7711 13.3181 19.6537 12.9688 19.6537 12.5821C19.6537 12.395 19.6784 12.2141 19.7278 12.0395C19.7896 11.8524 19.8823 11.684 20.0058 11.5343C20.1294 11.3846 20.29 11.2661 20.4876 11.1788C20.6853 11.0915 20.9262 11.0478 21.2104 11.0478H35.4433C35.7274 11.0478 35.9684 11.0915 36.166 11.1788C36.3637 11.2661 36.5243 11.3846 36.6479 11.5343C36.7714 11.684 36.8579 11.8524 36.9073 12.0395C36.9691 12.2141 37 12.395 37 12.5821C37 12.9688 36.8764 13.3181 36.6294 13.6299C36.3946 13.9418 35.9992 14.0977 35.4433 14.0977H33.9236V18.6632H30.1615V14.0977H27.1964V14.7339C27.1964 15.4449 27.0852 16.0686 26.8628 16.605C26.6528 17.1289 26.3624 17.5655 25.9918 17.9148C25.6335 18.264 25.2134 18.526 24.7316 18.7006C24.2621 18.8877 23.7617 18.9875 23.2304 19C23.008 19 22.7733 18.9751 22.5262 18.9252C22.2915 18.8753 22.0691 18.7942 21.859 18.6819C21.6614 18.5696 21.5007 18.42 21.3772 18.2328C21.2537 18.0457 21.1981 17.815 21.2104 17.5405C21.2351 17.1913 21.3587 16.9168 21.5811 16.7173C21.8034 16.5052 22.1 16.3867 22.4706 16.3617ZM30.143 3.05821C30.1307 3.19543 30.1183 3.3264 30.106 3.45114C30.106 3.56341 30.0936 3.68191 30.0689 3.80665C30.8596 3.80665 31.6318 3.93763 32.3854 4.19958C33.1514 4.44906 33.831 4.83576 34.424 5.35967C35.0294 5.88358 35.5298 6.55094 35.9251 7.36175C36.3205 8.17256 36.5552 9.13305 36.6294 10.2432H32.8858C32.7128 9.13305 32.2557 8.27235 31.5144 7.66112C30.7731 7.03742 29.865 6.73805 28.7902 6.76299C28.3824 7.31185 27.9006 7.81081 27.3446 8.25987C26.7887 8.69646 26.1956 9.07069 25.5655 9.38254C24.9478 9.68191 24.3053 9.91892 23.6381 10.0936C22.971 10.2557 22.3162 10.3368 21.6737 10.3368C21.2166 10.3368 20.8212 10.2121 20.4876 9.96258C20.1664 9.70062 19.9873 9.33888 19.9502 8.87734C19.9131 8.42827 20.012 8.03534 20.2467 7.69854C20.4938 7.36175 20.8521 7.15592 21.3216 7.08108C21.9146 6.99376 22.4891 6.8316 23.0451 6.59459C23.6134 6.35759 24.12 6.05821 24.5648 5.69647C25.0219 5.32225 25.4049 4.89189 25.7138 4.4054C26.035 3.90644 26.245 3.35759 26.3439 2.75884C26.4427 2.16008 26.6836 1.72349 27.0666 1.44906C27.4496 1.16216 27.9006 1.03742 28.4195 1.07484C28.9631 1.12474 29.3894 1.31809 29.6982 1.65488C30.0195 1.99168 30.1677 2.45946 30.143 3.05821Z" fill="black"/>
<path d="M8.57975 8.05405V9.02703H11.6191C12.175 9.02703 12.5704 9.16424 12.8051 9.43867C13.0399 9.70062 13.1572 10.0187 13.1572 10.3929C13.1572 10.7672 13.0399 11.1039 12.8051 11.4033C12.5704 11.6902 12.175 11.8337 11.6191 11.8337H2.53819C1.98222 11.8337 1.58686 11.6902 1.35212 11.4033C1.11737 11.1039 1 10.7672 1 10.3929C1 10.0187 1.11737 9.70062 1.35212 9.43867C1.58686 9.16424 1.98222 9.02703 2.53819 9.02703H5.09566V8.05405H4.92887C4.33583 8.05405 3.81692 7.97297 3.37215 7.81081C2.93972 7.64865 2.57525 7.42412 2.27873 7.13721C1.98222 6.83784 1.75983 6.48857 1.61157 6.0894C1.47566 5.67775 1.40771 5.22869 1.40771 4.7422C1.40771 4.25572 1.47566 3.80665 1.61157 3.39501C1.75983 2.98337 1.98222 2.62786 2.27873 2.32848C2.57525 2.01663 2.93972 1.77963 3.37215 1.61746C3.81692 1.44283 4.33583 1.35551 4.92887 1.35551H8.95039C9.54343 1.35551 10.0562 1.44283 10.4886 1.61746C10.9334 1.77963 11.2978 2.01663 11.582 2.32848C11.8785 2.62786 12.0947 2.98337 12.2306 3.39501C12.3789 3.80665 12.453 4.25572 12.453 4.7422C12.453 5.22869 12.3789 5.67775 12.2306 6.0894C12.0947 6.48857 11.8785 6.83784 11.582 7.13721C11.2978 7.42412 10.9334 7.64865 10.4886 7.81081C10.0562 7.97297 9.54343 8.05405 8.95039 8.05405H8.57975ZM14.436 18.5696C14.2877 18.1455 14.0592 17.79 13.7503 17.5031C13.4414 17.2162 13.0893 17.0042 12.6939 16.8669C12.2986 16.7173 11.86 16.6424 11.3781 16.6424C10.9086 16.6424 10.433 16.711 9.95114 16.8482C9.54343 17.1726 9.08012 17.4595 8.56121 17.7089C8.05466 17.9584 7.51104 18.158 6.93036 18.3077C6.34968 18.4699 5.75047 18.5759 5.13272 18.6258C4.51498 18.6757 3.90341 18.6694 3.29802 18.6071C2.74204 18.5447 2.33433 18.3514 2.07488 18.027C1.81543 17.7152 1.69805 17.3597 1.72276 16.9605C1.74747 16.5364 1.90191 16.1809 2.18607 15.894C2.47024 15.6071 2.89648 15.5073 3.46481 15.5946C3.959 15.6694 4.44702 15.6757 4.92887 15.6133C5.42306 15.5385 5.86784 15.4137 6.2632 15.2391C6.67091 15.052 7.01067 14.8212 7.28248 14.5468C7.56664 14.2723 7.75814 13.9667 7.85698 13.6299C7.94347 13.3306 8.06084 13.0873 8.2091 12.9002C8.36971 12.7006 8.54886 12.5447 8.74654 12.4324C8.94422 12.3202 9.16043 12.2516 9.39517 12.2266C9.62991 12.1892 9.87084 12.183 10.1179 12.2079C10.5998 12.2703 10.9828 12.4574 11.2669 12.7692C11.5635 13.0686 11.6808 13.5177 11.6191 14.1164C12.3233 14.0291 13.0337 14.0416 13.7503 14.1538C14.4669 14.2661 15.1279 14.4969 15.7332 14.8462C16.3386 15.1954 16.8575 15.6757 17.29 16.2869C17.7347 16.8981 18.0374 17.659 18.1981 18.5696H14.436ZM13.7132 2.85239C13.7132 2.24116 13.8924 1.77963 14.2507 1.46777C14.6213 1.15593 15.0537 1 15.5479 1C16.0298 1 16.456 1.16216 16.8267 1.48649C17.1973 1.79834 17.3826 2.25364 17.3826 2.85239V5.00416H17.9571C18.2413 5.00416 18.476 5.05405 18.6614 5.15385C18.8467 5.25364 18.9949 5.37838 19.1061 5.52807C19.2173 5.67775 19.2976 5.85239 19.3471 6.05197C19.3965 6.23908 19.4212 6.4262 19.4212 6.61331C19.4212 6.80042 19.3965 6.99376 19.3471 7.19335C19.2976 7.38046 19.2173 7.55509 19.1061 7.71726C18.9949 7.86694 18.8405 7.99168 18.6428 8.09148C18.4575 8.17879 18.2289 8.22245 17.9571 8.22245H17.3826V13.0125H13.7132V2.85239ZM5.72576 3.90021C5.4416 3.90021 5.23156 3.98129 5.09566 4.14345C4.97211 4.29314 4.91033 4.49272 4.91033 4.7422C4.91033 4.97921 4.97211 5.17879 5.09566 5.34096C5.23156 5.50312 5.4416 5.5842 5.72576 5.5842H8.13497C8.41913 5.5842 8.62299 5.50312 8.74654 5.34096C8.88244 5.17879 8.95039 4.97921 8.95039 4.7422C8.95039 4.49272 8.88244 4.29314 8.74654 4.14345C8.62299 3.98129 8.41913 3.90021 8.13497 3.90021H5.72576Z" stroke="#FDFBF0" stroke-width="2" mask="url(#path-1-outside-1_2_48)"/>
<path d="M22.4706 16.3617C22.7795 16.3368 23.0389 16.1809 23.249 15.894C23.4714 15.5946 23.5826 15.2079 23.5826 14.7339V14.0977H21.2104C20.6544 14.0977 20.2529 13.9418 20.0058 13.6299C19.7711 13.3181 19.6537 12.9688 19.6537 12.5821C19.6537 12.395 19.6784 12.2141 19.7278 12.0395C19.7896 11.8524 19.8823 11.684 20.0058 11.5343C20.1294 11.3846 20.29 11.2661 20.4876 11.1788C20.6853 11.0915 20.9262 11.0478 21.2104 11.0478H35.4433C35.7274 11.0478 35.9684 11.0915 36.166 11.1788C36.3637 11.2661 36.5243 11.3846 36.6479 11.5343C36.7714 11.684 36.8579 11.8524 36.9073 12.0395C36.9691 12.2141 37 12.395 37 12.5821C37 12.9688 36.8764 13.3181 36.6294 13.6299C36.3946 13.9418 35.9992 14.0977 35.4433 14.0977H33.9236V18.6632H30.1615V14.0977H27.1964V14.7339C27.1964 15.4449 27.0852 16.0686 26.8628 16.605C26.6528 17.1289 26.3624 17.5655 25.9918 17.9148C25.6335 18.264 25.2134 18.526 24.7316 18.7006C24.2621 18.8877 23.7617 18.9875 23.2304 19C23.008 19 22.7733 18.9751 22.5262 18.9252C22.2915 18.8753 22.0691 18.7942 21.859 18.6819C21.6614 18.5696 21.5007 18.42 21.3772 18.2328C21.2537 18.0457 21.1981 17.815 21.2104 17.5405C21.2351 17.1913 21.3587 16.9168 21.5811 16.7173C21.8034 16.5052 22.1 16.3867 22.4706 16.3617ZM30.143 3.05821C30.1307 3.19543 30.1183 3.3264 30.106 3.45114C30.106 3.56341 30.0936 3.68191 30.0689 3.80665C30.8596 3.80665 31.6318 3.93763 32.3854 4.19958C33.1514 4.44906 33.831 4.83576 34.424 5.35967C35.0294 5.88358 35.5298 6.55094 35.9251 7.36175C36.3205 8.17256 36.5552 9.13305 36.6294 10.2432H32.8858C32.7128 9.13305 32.2557 8.27235 31.5144 7.66112C30.7731 7.03742 29.865 6.73805 28.7902 6.76299C28.3824 7.31185 27.9006 7.81081 27.3446 8.25987C26.7887 8.69646 26.1956 9.07069 25.5655 9.38254C24.9478 9.68191 24.3053 9.91892 23.6381 10.0936C22.971 10.2557 22.3162 10.3368 21.6737 10.3368C21.2166 10.3368 20.8212 10.2121 20.4876 9.96258C20.1664 9.70062 19.9873 9.33888 19.9502 8.87734C19.9131 8.42827 20.012 8.03534 20.2467 7.69854C20.4938 7.36175 20.8521 7.15592 21.3216 7.08108C21.9146 6.99376 22.4891 6.8316 23.0451 6.59459C23.6134 6.35759 24.12 6.05821 24.5648 5.69647C25.0219 5.32225 25.4049 4.89189 25.7138 4.4054C26.035 3.90644 26.245 3.35759 26.3439 2.75884C26.4427 2.16008 26.6836 1.72349 27.0666 1.44906C27.4496 1.16216 27.9006 1.03742 28.4195 1.07484C28.9631 1.12474 29.3894 1.31809 29.6982 1.65488C30.0195 1.99168 30.1677 2.45946 30.143 3.05821Z" stroke="#FDFBF0" stroke-width="2" mask="url(#path-1-outside-1_2_48)"/>
</svg>
