<svg width="174" height="85" viewBox="0 0 174 85" fill="none" xmlns="http://www.w3.org/2000/svg">
<path d="M7.77306 19.6954C6.53924 19.6954 5.53848 19.6001 4.77077 19.4094C4.00306 19.1915 3.39986 18.851 2.96117 18.3879C2.54989 17.8975 2.262 17.2574 2.09749 16.4674C1.9604 15.6774 1.89186 14.683 1.89186 13.4844V7.06911C1.89186 5.89774 1.9604 4.91705 2.09749 4.12705C2.262 3.30981 2.54989 2.66965 2.96117 2.20654C3.39986 1.7162 4.00306 1.37568 4.77077 1.185C5.53848 0.967064 6.53924 0.858099 7.77306 0.858099H30.681C31.9148 0.858099 32.9156 0.967064 33.6833 1.185C34.451 1.37568 35.0405 1.7162 35.4518 2.20654C35.8904 2.66965 36.1783 3.30981 36.3154 4.12705C36.4799 4.91705 36.5622 5.89774 36.5622 7.06911V19.6954H7.77306ZM23.4426 29.2163V38.5737H15.0526V29.2163H3.45469C2.22088 29.2163 1.32978 28.8758 0.781419 28.1947C0.260473 27.5137 0 26.7509 0 25.9065C0 25.4978 0.0548364 25.1028 0.164509 24.7215C0.3016 24.3128 0.507237 23.9451 0.781419 23.6182C1.0556 23.2913 1.41204 23.0325 1.85073 22.8418C2.28942 22.6511 2.82408 22.5558 3.45469 22.5558H35.0405C35.6711 22.5558 36.2057 22.6511 36.6444 22.8418C37.0831 23.0325 37.4396 23.2913 37.7138 23.6182C37.9879 23.9451 38.1799 24.3128 38.2895 24.7215C38.4266 25.1028 38.4952 25.4978 38.4952 25.9065C38.4952 26.7509 38.221 27.5137 37.6726 28.1947C37.1517 28.8758 36.2743 29.2163 35.0405 29.2163H23.4426ZM10.0762 12.2586C10.0762 12.7217 10.131 13.0213 10.2407 13.1575C10.3778 13.2665 10.652 13.321 11.0632 13.321H28.3779V8.25411C28.3779 7.81825 28.3093 7.54583 28.1722 7.43687C28.0351 7.30066 27.7609 7.23256 27.3497 7.23256H11.0632C10.652 7.23256 10.3778 7.30066 10.2407 7.43687C10.131 7.54583 10.0762 7.81825 10.0762 8.25411V12.2586Z" fill="#191919"/>
<path d="M49.1036 31.0142V24.9666C46.9924 24.667 45.4433 23.8906 44.4562 22.6375C43.4966 21.3844 43.0168 19.8589 43.0168 18.061V17.2437C43.0168 16.2358 43.1676 15.296 43.4692 14.4243C43.7982 13.5525 44.278 12.7898 44.9086 12.136C45.5667 11.4822 46.3892 10.9782 47.3763 10.6241C48.3633 10.2427 49.5423 10.052 50.9132 10.052H68.8858V8.82618C68.8858 8.55376 68.8173 8.29497 68.6802 8.0498C68.5431 7.80463 68.2415 7.68204 67.7754 7.68204H46.4303C45.4433 7.68204 44.6618 7.35515 44.0861 6.70135C43.5377 6.04756 43.2635 5.29843 43.2635 4.45395C43.2635 3.63671 43.5377 2.9012 44.0861 2.24741C44.6618 1.56637 45.4433 1.22586 46.4303 1.22586H69.9963C71.422 1.22586 72.601 1.3893 73.5332 1.7162C74.4654 2.01585 75.2057 2.45171 75.7541 3.02378C76.3025 3.56861 76.6863 4.23602 76.9057 5.02602C77.1524 5.81601 77.2758 6.70136 77.2758 7.68204V16.4265H53.0518C52.0648 16.4265 51.5712 16.8079 51.5712 17.5706V17.7341C51.5712 18.4968 52.0648 18.8782 53.0518 18.8782H74.8904C75.4662 18.8782 75.946 18.9736 76.3299 19.1642C76.7412 19.3549 77.0702 19.6001 77.3169 19.8998C77.5911 20.1994 77.7831 20.5399 77.8927 20.9213C78.0024 21.2754 78.0572 21.6432 78.0572 22.0246C78.0572 22.8146 77.8105 23.5228 77.3169 24.1494C76.8234 24.7759 76.0146 25.0892 74.8904 25.0892H71.9704V31.0142H76.2888C77.55 31.0142 78.4411 31.3547 78.962 32.0357C79.483 32.7168 79.7435 33.4659 79.7435 34.2831C79.7435 35.1276 79.4693 35.8768 78.9209 36.5306C78.4 37.2116 77.5226 37.5521 76.2888 37.5521H44.703C43.4692 37.5521 42.5781 37.2116 42.0297 36.5306C41.5088 35.8768 41.2483 35.1276 41.2483 34.2831C41.2483 33.4659 41.5088 32.7168 42.0297 32.0357C42.5506 31.3547 43.4417 31.0142 44.703 31.0142H49.1036ZM57.2057 31.0142H63.8683V25.0892H57.2057V31.0142Z" fill="#191919"/>
<path d="M88.9124 36.5714C87.8157 36.5714 86.9109 36.4625 86.198 36.2445C85.4851 36.0538 84.9231 35.7269 84.5118 35.2638C84.1005 34.828 83.8126 34.2559 83.6481 33.5476C83.4836 32.8121 83.4014 31.9268 83.4014 30.8916V5.1486C83.4014 3.81378 83.7441 2.86033 84.4295 2.28827C85.115 1.68896 86.0198 1.3893 87.1439 1.3893C88.2407 1.3893 89.1044 1.68896 89.735 2.28827C90.393 2.88758 90.722 3.84102 90.722 5.1486V11.5639H94.4235V5.1486C94.4235 3.81378 94.7525 2.86033 95.4105 2.28827C96.0686 1.68896 96.946 1.3893 98.0427 1.3893C99.1668 1.3893 100.044 1.68896 100.675 2.28827C101.333 2.88758 101.662 3.84102 101.662 5.1486V36.5714H88.9124ZM113.219 21.4934H111.203V38.3693H104.047V3.47326C104.047 2.32913 104.404 1.47103 105.117 0.898963C105.829 0.299654 106.666 0 107.625 0C108.558 0 109.38 0.299654 110.093 0.898963C110.833 1.47103 111.203 2.32913 111.203 3.47326V14.792H113.219V3.47326C113.219 2.32913 113.589 1.47103 114.329 0.898963C115.069 0.299654 115.919 0 116.879 0C117.345 0 117.798 0.0817236 118.236 0.245171C118.675 0.381377 119.059 0.599308 119.388 0.898963C119.744 1.19862 120.018 1.56637 120.21 2.00223C120.43 2.41085 120.539 2.9012 120.539 3.47326V38.3693H113.219V21.4934ZM94.4235 30.4421V17.9792H90.722V29.4614C90.722 29.8973 90.7769 30.1697 90.8865 30.2787C91.0236 30.3876 91.3252 30.4421 91.7913 30.4421H94.4235Z" fill="#191919"/>
<path d="M132.094 38.3693C131.161 38.3693 130.325 38.2195 129.585 37.9199C128.872 37.6202 128.269 37.2116 127.775 36.694C127.282 36.1764 126.898 35.5907 126.624 34.9369C126.377 34.2559 126.254 33.5476 126.254 32.8121V32.3218C126.254 30.8507 126.747 29.6794 127.734 28.8077C128.749 27.9359 130.202 27.5001 132.094 27.5001H151.958V26.4377C151.958 26.1925 151.917 26.029 151.835 25.9473C151.753 25.8384 151.574 25.7839 151.3 25.7839H128.968C128.173 25.7839 127.597 25.5387 127.241 25.0484C126.884 24.558 126.706 23.9996 126.706 23.373C126.706 22.801 126.884 22.2697 127.241 21.7794C127.597 21.2618 128.173 21.003 128.968 21.003H155.29C157.127 21.003 158.415 21.3163 159.155 21.9429C159.923 22.5694 160.307 23.6863 160.307 25.2935V31.8314H135.836C135.535 31.8314 135.302 31.9132 135.137 32.0766C135 32.2128 134.931 32.3899 134.931 32.6078V32.7304C134.931 32.9483 135 33.139 135.137 33.3025C135.302 33.4387 135.535 33.5068 135.836 33.5068H159.032C159.855 33.5068 160.444 33.7656 160.801 34.2831C161.184 34.8007 161.376 35.3728 161.376 35.9994C161.376 36.5714 161.198 37.1026 160.842 37.593C160.485 38.1105 159.882 38.3693 159.032 38.3693H132.094ZM144.638 1.06241C145.158 1.06241 145.597 1.15775 145.954 1.34844C146.337 1.53913 146.639 1.7843 146.858 2.08396C147.105 2.38361 147.27 2.72413 147.352 3.1055C147.462 3.48688 147.516 3.85464 147.516 4.20878C147.516 4.56291 147.462 4.91705 147.352 5.27119C147.242 5.62532 147.078 5.95222 146.858 6.25187C146.639 6.52429 146.337 6.75584 145.954 6.94653C145.597 7.13722 145.158 7.23256 144.638 7.23256H134.109C133.725 7.23256 133.451 7.30066 133.286 7.43687C133.122 7.54583 133.04 7.77739 133.04 8.13152V12.0543C133.04 12.4356 133.122 12.6944 133.286 12.8306C133.451 12.9396 133.725 12.9941 134.109 12.9941H146.2C146.721 12.9941 147.174 13.0894 147.558 13.2801C147.941 13.4436 148.243 13.6751 148.462 13.9748C148.682 14.2472 148.846 14.5605 148.956 14.9146C149.066 15.2687 149.12 15.6229 149.12 15.977C149.12 16.3584 149.066 16.7398 148.956 17.1211C148.846 17.4753 148.682 17.8022 148.462 18.1018C148.243 18.3742 147.941 18.6058 147.558 18.7965C147.174 18.9872 146.721 19.0825 146.2 19.0825H130.654C129.475 19.0825 128.516 19.0008 127.775 18.8373C127.035 18.6739 126.446 18.3879 126.007 17.9792C125.596 17.5706 125.308 17.0258 125.143 16.3448C125.006 15.6365 124.938 14.7375 124.938 13.6479V6.49704C124.938 5.40739 125.006 4.52205 125.143 3.84102C125.308 3.13275 125.596 2.5743 126.007 2.16568C126.446 1.75706 127.035 1.47103 127.775 1.30758C128.516 1.14413 129.475 1.06241 130.654 1.06241H144.638ZM151.876 4.04533C151.876 2.71051 152.273 1.70258 153.069 1.02155C153.891 0.340516 154.851 0 155.948 0C157.017 0 157.963 0.354137 158.785 1.06241C159.608 1.74344 160.019 2.73775 160.019 4.04533V6.61963H161.294C161.925 6.61963 162.446 6.7286 162.857 6.94653C163.268 7.13722 163.597 7.40963 163.844 7.76376C164.091 8.09066 164.269 8.45842 164.379 8.86704C164.488 9.27565 164.543 9.68427 164.543 10.0929C164.543 10.5015 164.488 10.9238 164.379 11.3596C164.269 11.7682 164.091 12.136 163.844 12.4629C163.597 12.7898 163.254 13.0622 162.816 13.2801C162.405 13.4708 161.897 13.5662 161.294 13.5662H160.019V19.6954H151.876V4.04533Z" fill="#191919"/>
<path d="M167.584 38.5328C168.05 38.2876 168.407 37.9335 168.653 37.4704C168.928 37.0345 169.065 36.5169 169.065 35.9176V35.8768C167.913 35.7678 166.995 35.3728 166.309 34.6918C165.624 34.0107 165.281 33.0845 165.281 31.9132C165.281 30.6601 165.679 29.6794 166.474 28.9711C167.269 28.2356 168.324 27.8678 169.641 27.8678C170.957 27.8678 172.012 28.2764 172.807 29.0937C173.602 29.8837 174 30.8916 174 32.1175V32.4852C174 34.8825 173.548 36.803 172.643 38.2468C171.738 39.7178 170.559 40.7257 169.106 41.2705C168.749 41.4067 168.393 41.5021 168.037 41.5566C167.68 41.6383 167.337 41.6519 167.008 41.5974C166.652 41.543 166.309 41.4067 165.98 41.1888C165.651 40.9709 165.514 40.5895 165.569 40.0447C165.624 39.3909 166.008 38.9823 166.72 38.8188C166.858 38.7643 166.995 38.7235 167.132 38.6962C167.269 38.669 167.42 38.6145 167.584 38.5328Z" fill="#191919"/>
<path d="M7.49727 77.1954C6.3457 77.1954 5.45461 76.8957 4.82399 76.2964C4.22079 75.6971 3.91919 74.9207 3.91919 73.9673C3.91919 73.0138 4.22079 72.2375 4.82399 71.6382C5.45461 71.0388 6.3457 70.7392 7.49727 70.7392H32.9551C34.2437 70.7392 35.2856 70.8345 36.0808 71.0252C36.8759 71.2159 37.4928 71.5564 37.9315 72.0468C38.3702 72.5371 38.6581 73.1909 38.7952 74.0081C38.9597 74.7981 39.0419 75.8061 39.0419 77.0319V85H30.7342V78.1761C30.7342 77.5223 30.4052 77.1954 29.7471 77.1954H7.49727ZM4.78287 68.3692C3.82323 68.3692 3.06923 68.0559 2.52086 67.4294C1.99992 66.7756 1.73944 66.0809 1.73944 65.3454C1.73944 64.6099 1.98621 63.9561 2.47974 63.384C2.97326 62.7847 3.74097 62.4851 4.78287 62.4851H5.52316V59.0527C5.52316 57.8268 5.87959 56.9551 6.59247 56.4375C7.33276 55.8927 8.27869 55.6203 9.43025 55.6203C10.5818 55.6203 11.514 55.8927 12.2269 56.4375C12.9672 56.9551 13.3373 57.8268 13.3373 59.0527V62.4851H16.7098V59.0527C16.7098 57.8268 17.0662 56.9551 17.7791 56.4375C18.5194 55.8927 19.4653 55.6203 20.6169 55.6203C21.7684 55.6203 22.7007 55.8927 23.4135 56.4375C24.1538 56.9551 24.524 57.8268 24.524 59.0527V62.4851H25.9223C26.9642 62.4851 27.7319 62.7847 28.2254 63.384C28.719 63.9561 28.9657 64.6099 28.9657 65.3454C28.9657 66.0809 28.6915 66.7756 28.1432 67.4294C27.6222 68.0559 26.8819 68.3692 25.9223 68.3692H4.78287ZM30.5286 50.676C30.5286 49.3412 30.9398 48.3332 31.7624 47.6522C32.6124 46.9712 33.5857 46.6307 34.6824 46.6307C35.2034 46.6307 35.7106 46.726 36.2041 46.9167C36.7251 47.0801 37.1775 47.3389 37.5613 47.6931C37.9452 48.02 38.2468 48.4422 38.4661 48.9598C38.7129 49.4501 38.8363 50.0222 38.8363 50.676V69.1456H30.5286V50.676ZM5.31752 54.1901C4.82399 54.1901 4.3853 54.0948 4.00145 53.9041C3.64501 53.7134 3.3297 53.4682 3.05552 53.1686C2.80875 52.8689 2.61683 52.5284 2.47974 52.147C2.34264 51.7656 2.2741 51.3843 2.2741 51.0029C2.2741 50.6215 2.32894 50.2401 2.43861 49.8587C2.5757 49.4774 2.76763 49.1369 3.01439 48.8372C3.26115 48.5375 3.57646 48.2924 3.96032 48.1017C4.34417 47.911 4.79657 47.8157 5.31752 47.8157H24.524C25.0449 47.8157 25.4973 47.911 25.8812 48.1017C26.265 48.2924 26.5803 48.5375 26.8271 48.8372C27.0739 49.1369 27.2521 49.4774 27.3618 49.8587C27.4989 50.2401 27.5674 50.6215 27.5674 51.0029C27.5674 51.3843 27.4989 51.7656 27.3618 52.147C27.2247 52.5284 27.019 52.8689 26.7449 53.1686C26.4981 53.4682 26.1828 53.7134 25.7989 53.9041C25.4425 54.0948 25.0175 54.1901 24.524 54.1901H5.31752Z" fill="#191919"/>
<path d="M43.6046 56.4784C43.6046 54.8167 43.8788 53.4001 44.4272 52.2287C45.003 51.0574 45.7981 50.1039 46.8126 49.3684C47.827 48.6057 49.0334 48.0608 50.4318 47.7339C51.8575 47.3798 53.4204 47.2027 55.1203 47.2027C58.0815 47.2027 60.5491 47.7476 62.5232 48.8372C64.4973 49.8996 65.7311 51.6294 66.2247 54.0267H71.9002V50.5943C71.9002 49.2867 72.3115 48.306 73.134 47.6522C73.9566 46.9712 74.9025 46.6307 75.9718 46.6307C76.4928 46.6307 77 46.726 77.4935 46.9167C77.9871 47.0801 78.4258 47.3253 78.8096 47.6522C79.1935 47.9791 79.4951 48.3877 79.7144 48.8781C79.9612 49.3684 80.0846 49.9405 80.0846 50.5943V67.3476H71.9002V60.4011H66.1835C65.6352 62.7439 64.3739 64.4328 62.3998 65.468C60.4531 66.5032 58.0266 67.0208 55.1203 67.0208C53.3929 67.0208 51.8164 66.8573 50.3906 66.5304C48.9649 66.1763 47.7448 65.6314 46.7303 64.8959C45.7433 64.1332 44.9755 63.1661 44.4272 61.9947C43.8788 60.8234 43.6046 59.4068 43.6046 57.7451V56.4784ZM51.3366 85C50.185 85 49.2254 84.891 48.4577 84.6731C47.7174 84.4552 47.1279 84.1147 46.6892 83.6516C46.2505 83.1885 45.9352 82.5755 45.7433 81.8128C45.5787 81.05 45.4965 80.1238 45.4965 79.0342V72.5371C45.4965 71.1478 45.8941 70.1535 46.6892 69.5542C47.5117 68.9276 48.4988 68.6144 49.6503 68.6144C50.6922 68.6144 51.5833 68.8732 52.3236 69.3907C53.0913 69.9083 53.5437 70.7392 53.6808 71.8833H72.1059C72.243 70.7392 72.6954 69.9083 73.4631 69.3907C74.2308 68.8732 75.1493 68.6144 76.2186 68.6144C77.3702 68.6144 78.3298 68.9276 79.0975 69.5542C79.8926 70.1535 80.2902 71.1478 80.2902 72.5371V85H51.3366ZM51.6245 58.1537C51.6245 59.1889 51.9398 59.9653 52.5704 60.4828C53.2284 60.9732 54.0784 61.2184 55.1203 61.2184C56.1622 61.2184 56.9984 60.9732 57.6291 60.4828C58.2871 59.9653 58.6161 59.1889 58.6161 58.1537V56.0698C58.6161 55.0346 58.2871 54.2718 57.6291 53.7815C56.9984 53.2639 56.1622 53.0051 55.1203 53.0051C54.0784 53.0051 53.2284 53.2639 52.5704 53.7815C51.9398 54.2718 51.6245 55.0346 51.6245 56.0698V58.1537ZM72.0647 79.5654V77.1137H53.722V78.5438C53.722 79.0069 53.7905 79.293 53.9276 79.4019C54.0647 79.5109 54.3663 79.5654 54.8324 79.5654H72.0647Z" fill="#191919"/>
<path d="M89.089 72.7414C88.3213 72.7414 87.7592 72.4963 87.4028 72.0059C87.0738 71.5156 86.9093 70.9707 86.9093 70.3714C86.9093 69.8266 87.0875 69.309 87.4439 68.8187C87.8004 68.3011 88.3487 68.0423 89.089 68.0423H115.657C117.439 68.0423 118.687 68.3556 119.4 68.9821C120.14 69.5814 120.51 70.6711 120.51 72.2511V78.6255H96.0396C95.738 78.6255 95.5049 78.7073 95.3404 78.8707C95.2033 79.0069 95.1347 79.184 95.1347 79.4019V79.5245C95.1347 79.7424 95.2033 79.9195 95.3404 80.0557C95.5049 80.1919 95.738 80.26 96.0396 80.26H119.276C120.072 80.26 120.647 80.5188 121.004 81.0364C121.388 81.5267 121.58 82.0852 121.58 82.7117C121.58 83.2566 121.401 83.7741 121.045 84.2645C120.689 84.7548 120.099 85 119.276 85H92.1324C91.2276 85 90.4188 84.8502 89.7059 84.5505C88.9931 84.2509 88.3899 83.8559 87.8963 83.3655C87.4302 82.8752 87.0738 82.3031 86.827 81.6493C86.5803 80.9955 86.4569 80.3145 86.4569 79.6062V79.1159C86.4569 77.6721 86.9367 76.528 87.8963 75.6835C88.8834 74.8118 90.2954 74.3759 92.1324 74.3759H112.161V73.3544C112.161 73.1364 112.12 72.9866 112.038 72.9049C111.956 72.7959 111.778 72.7414 111.503 72.7414H89.089ZM96.492 66.8982C95.0388 66.8982 93.6542 66.7347 92.3381 66.4078C91.022 66.0809 89.8704 65.5906 88.8834 64.9368C87.8963 64.2558 87.1012 63.4113 86.498 62.4034C85.9222 61.3954 85.6343 60.2104 85.6343 58.8484V57.3365C85.6343 56.5192 85.8537 55.7701 86.2924 55.0891C85.3327 55.0618 84.6061 54.7758 84.1126 54.231C83.6191 53.6861 83.3723 53.0596 83.3723 52.3513C83.3723 51.6158 83.6191 50.962 84.1126 50.39C84.6336 49.8179 85.4013 49.5319 86.4158 49.5319H92.3792C92.4615 48.4422 92.8727 47.5977 93.613 46.9984C94.3533 46.3991 95.313 46.0995 96.492 46.0995C97.6709 46.0995 98.6306 46.4127 99.3709 47.0393C100.111 47.6386 100.522 48.4694 100.605 49.5319H106.568C107.61 49.5319 108.364 49.8179 108.83 50.39C109.324 50.962 109.57 51.6158 109.57 52.3513C109.57 53.0868 109.337 53.727 108.871 54.2718C108.405 54.7894 107.679 55.0618 106.692 55.0891C107.13 55.8246 107.35 56.5737 107.35 57.3365V58.8484C107.35 60.2104 107.048 61.3954 106.445 62.4034C105.869 63.4113 105.088 64.2558 104.1 64.9368C103.113 65.5906 101.962 66.0809 100.646 66.4078C99.3297 66.7347 97.9451 66.8982 96.492 66.8982ZM112.079 50.676C112.079 49.3412 112.477 48.3332 113.272 47.6522C114.094 46.9712 115.054 46.6307 116.151 46.6307C117.22 46.6307 118.166 46.9848 118.989 47.6931C119.811 48.3741 120.222 49.3684 120.222 50.676V53.2911H121.497C122.128 53.2911 122.649 53.4001 123.06 53.618C123.471 53.8087 123.8 54.0812 124.047 54.4353C124.294 54.7622 124.472 55.1299 124.582 55.5386C124.692 55.9472 124.746 56.3558 124.746 56.7644C124.746 57.173 124.692 57.5953 124.582 58.0311C124.472 58.4398 124.294 58.8075 124.047 59.1344C123.8 59.4613 123.458 59.7337 123.019 59.9516C122.608 60.1423 122.101 60.2377 121.497 60.2377H120.222V67.0208H112.079V50.676ZM96.492 61.4635C97.3419 61.4635 98.1096 61.2456 98.7951 60.8097C99.5079 60.3466 99.8644 59.6384 99.8644 58.6849V57.2548C99.8644 56.3013 99.5079 55.6067 98.7951 55.1708C98.1096 54.7077 97.3419 54.4761 96.492 54.4761C95.642 54.4761 94.8606 54.7077 94.1477 55.1708C93.4622 55.6067 93.1195 56.3013 93.1195 57.2548V58.6849C93.1195 59.6384 93.4622 60.3466 94.1477 60.8097C94.8606 61.2456 95.642 61.4635 96.492 61.4635Z" fill="#191919"/>
<path d="M134.244 85C133.093 85 132.133 84.891 131.365 84.6731C130.625 84.4552 130.036 84.1147 129.597 83.6516C129.158 83.1885 128.843 82.5755 128.651 81.8128C128.487 81.05 128.404 80.1238 128.404 79.0342V74.8662C128.404 73.4769 128.816 72.4554 129.638 71.8016C130.488 71.1478 131.489 70.8209 132.64 70.8209C133.792 70.8209 134.765 71.1478 135.56 71.8016C136.356 72.4554 136.753 73.4769 136.753 74.8662V77.6449C136.753 78.108 136.822 78.394 136.959 78.503C137.096 78.6119 137.397 78.6664 137.864 78.6664H160.196C161.457 78.6664 162.348 78.9933 162.869 79.6471C163.39 80.2736 163.65 80.9955 163.65 81.8128C163.65 82.6572 163.376 83.3928 162.828 84.0193C162.307 84.6731 161.43 85 160.196 85H134.244ZM137.864 69.1864C136.109 69.1864 134.505 68.9958 133.052 68.6144C131.626 68.233 130.392 67.6473 129.35 66.8573C128.336 66.0673 127.541 65.073 126.965 63.8744C126.389 62.6758 126.101 61.2456 126.101 59.5839V56.8461C126.101 55.1844 126.389 53.7543 126.965 52.5556C127.541 51.3298 128.336 50.3219 129.35 49.5319C130.392 48.7419 131.626 48.1562 133.052 47.7748C134.505 47.3934 136.109 47.2027 137.864 47.2027C139.618 47.2027 141.209 47.3934 142.634 47.7748C144.088 48.1562 145.321 48.7419 146.336 49.5319C147.378 50.3219 148.187 51.3298 148.762 52.5556C149.338 53.7543 149.626 55.1844 149.626 56.8461V59.5839C149.626 61.2456 149.338 62.6758 148.762 63.8744C148.187 65.073 147.378 66.0673 146.336 66.8573C145.321 67.6473 144.088 68.233 142.634 68.6144C141.209 68.9958 139.618 69.1864 137.864 69.1864ZM154.273 50.676C154.273 49.3412 154.685 48.3332 155.507 47.6522C156.357 46.9712 157.331 46.6307 158.427 46.6307C158.948 46.6307 159.455 46.726 159.949 46.9167C160.47 47.0801 160.922 47.3389 161.306 47.6931C161.69 48.02 161.992 48.4422 162.211 48.9598C162.458 49.4501 162.581 50.0222 162.581 50.676V75.52H154.273V50.676ZM137.864 63.1797C138.96 63.1797 139.851 62.9209 140.537 62.4034C141.222 61.8858 141.565 61.0549 141.565 59.9108V56.5192C141.565 55.3751 141.222 54.5443 140.537 54.0267C139.851 53.4818 138.96 53.2094 137.864 53.2094C136.767 53.2094 135.876 53.4818 135.19 54.0267C134.505 54.5443 134.162 55.3751 134.162 56.5192V59.9108C134.162 61.0549 134.505 61.8858 135.19 62.4034C135.876 62.9209 136.767 63.1797 137.864 63.1797Z" fill="#191919"/>
<path d="M7.77306 19.6954C6.53924 19.6954 5.53848 19.6001 4.77077 19.4094C4.00306 19.1915 3.39986 18.851 2.96117 18.3879C2.54989 17.8975 2.262 17.2574 2.09749 16.4674C1.9604 15.6774 1.89186 14.683 1.89186 13.4844V7.06911C1.89186 5.89774 1.9604 4.91705 2.09749 4.12705C2.262 3.30981 2.54989 2.66965 2.96117 2.20654C3.39986 1.7162 4.00306 1.37568 4.77077 1.185C5.53848 0.967064 6.53924 0.858099 7.77306 0.858099H30.681C31.9148 0.858099 32.9156 0.967064 33.6833 1.185C34.451 1.37568 35.0405 1.7162 35.4518 2.20654C35.8904 2.66965 36.1783 3.30981 36.3154 4.12705C36.4799 4.91705 36.5622 5.89774 36.5622 7.06911V19.6954H7.77306ZM23.4426 29.2163V38.5737H15.0526V29.2163H3.45469C2.22088 29.2163 1.32978 28.8758 0.781419 28.1947C0.260473 27.5137 0 26.7509 0 25.9065C0 25.4978 0.0548364 25.1028 0.164509 24.7215C0.3016 24.3128 0.507237 23.9451 0.781419 23.6182C1.0556 23.2913 1.41204 23.0325 1.85073 22.8418C2.28942 22.6511 2.82408 22.5558 3.45469 22.5558H35.0405C35.6711 22.5558 36.2057 22.6511 36.6444 22.8418C37.0831 23.0325 37.4396 23.2913 37.7138 23.6182C37.9879 23.9451 38.1799 24.3128 38.2895 24.7215C38.4266 25.1028 38.4952 25.4978 38.4952 25.9065C38.4952 26.7509 38.221 27.5137 37.6726 28.1947C37.1517 28.8758 36.2743 29.2163 35.0405 29.2163H23.4426ZM10.0762 12.2586C10.0762 12.7217 10.131 13.0213 10.2407 13.1575C10.3778 13.2665 10.652 13.321 11.0632 13.321H28.3779V8.25411C28.3779 7.81825 28.3093 7.54583 28.1722 7.43687C28.0351 7.30066 27.7609 7.23256 27.3497 7.23256H11.0632C10.652 7.23256 10.3778 7.30066 10.2407 7.43687C10.131 7.54583 10.0762 7.81825 10.0762 8.25411V12.2586Z" stroke="black"/>
<path d="M49.1036 31.0142V24.9666C46.9924 24.667 45.4433 23.8906 44.4562 22.6375C43.4966 21.3844 43.0168 19.8589 43.0168 18.061V17.2437C43.0168 16.2358 43.1676 15.296 43.4692 14.4243C43.7982 13.5525 44.278 12.7898 44.9086 12.136C45.5667 11.4822 46.3892 10.9782 47.3763 10.6241C48.3633 10.2427 49.5423 10.052 50.9132 10.052H68.8858V8.82618C68.8858 8.55376 68.8173 8.29497 68.6802 8.0498C68.5431 7.80463 68.2415 7.68204 67.7754 7.68204H46.4303C45.4433 7.68204 44.6618 7.35515 44.0861 6.70135C43.5377 6.04756 43.2635 5.29843 43.2635 4.45395C43.2635 3.63671 43.5377 2.9012 44.0861 2.24741C44.6618 1.56637 45.4433 1.22586 46.4303 1.22586H69.9963C71.422 1.22586 72.601 1.3893 73.5332 1.7162C74.4654 2.01585 75.2057 2.45171 75.7541 3.02378C76.3025 3.56861 76.6863 4.23602 76.9057 5.02602C77.1524 5.81601 77.2758 6.70136 77.2758 7.68204V16.4265H53.0518C52.0648 16.4265 51.5712 16.8079 51.5712 17.5706V17.7341C51.5712 18.4968 52.0648 18.8782 53.0518 18.8782H74.8904C75.4662 18.8782 75.946 18.9736 76.3299 19.1642C76.7412 19.3549 77.0702 19.6001 77.3169 19.8998C77.5911 20.1994 77.7831 20.5399 77.8927 20.9213C78.0024 21.2754 78.0572 21.6432 78.0572 22.0246C78.0572 22.8146 77.8105 23.5228 77.3169 24.1494C76.8234 24.7759 76.0146 25.0892 74.8904 25.0892H71.9704V31.0142H76.2888C77.55 31.0142 78.4411 31.3547 78.962 32.0357C79.483 32.7168 79.7435 33.4659 79.7435 34.2831C79.7435 35.1276 79.4693 35.8768 78.9209 36.5306C78.4 37.2116 77.5226 37.5521 76.2888 37.5521H44.703C43.4692 37.5521 42.5781 37.2116 42.0297 36.5306C41.5088 35.8768 41.2483 35.1276 41.2483 34.2831C41.2483 33.4659 41.5088 32.7168 42.0297 32.0357C42.5506 31.3547 43.4417 31.0142 44.703 31.0142H49.1036ZM57.2057 31.0142H63.8683V25.0892H57.2057V31.0142Z" stroke="black"/>
<path d="M88.9124 36.5714C87.8157 36.5714 86.9109 36.4625 86.198 36.2445C85.4851 36.0538 84.9231 35.7269 84.5118 35.2638C84.1005 34.828 83.8126 34.2559 83.6481 33.5476C83.4836 32.8121 83.4014 31.9268 83.4014 30.8916V5.1486C83.4014 3.81378 83.7441 2.86033 84.4295 2.28827C85.115 1.68896 86.0198 1.3893 87.1439 1.3893C88.2407 1.3893 89.1044 1.68896 89.735 2.28827C90.393 2.88758 90.722 3.84102 90.722 5.1486V11.5639H94.4235V5.1486C94.4235 3.81378 94.7525 2.86033 95.4105 2.28827C96.0686 1.68896 96.946 1.3893 98.0427 1.3893C99.1668 1.3893 100.044 1.68896 100.675 2.28827C101.333 2.88758 101.662 3.84102 101.662 5.1486V36.5714H88.9124ZM113.219 21.4934H111.203V38.3693H104.047V3.47326C104.047 2.32913 104.404 1.47103 105.117 0.898963C105.829 0.299654 106.666 0 107.625 0C108.558 0 109.38 0.299654 110.093 0.898963C110.833 1.47103 111.203 2.32913 111.203 3.47326V14.792H113.219V3.47326C113.219 2.32913 113.589 1.47103 114.329 0.898963C115.069 0.299654 115.919 0 116.879 0C117.345 0 117.798 0.0817236 118.236 0.245171C118.675 0.381377 119.059 0.599308 119.388 0.898963C119.744 1.19862 120.018 1.56637 120.21 2.00223C120.43 2.41085 120.539 2.9012 120.539 3.47326V38.3693H113.219V21.4934ZM94.4235 30.4421V17.9792H90.722V29.4614C90.722 29.8973 90.7769 30.1697 90.8865 30.2787C91.0236 30.3876 91.3252 30.4421 91.7913 30.4421H94.4235Z" stroke="black"/>
<path d="M132.094 38.3693C131.161 38.3693 130.325 38.2195 129.585 37.9199C128.872 37.6202 128.269 37.2116 127.775 36.694C127.282 36.1764 126.898 35.5907 126.624 34.9369C126.377 34.2559 126.254 33.5476 126.254 32.8121V32.3218C126.254 30.8507 126.747 29.6794 127.734 28.8077C128.749 27.9359 130.202 27.5001 132.094 27.5001H151.958V26.4377C151.958 26.1925 151.917 26.029 151.835 25.9473C151.753 25.8384 151.574 25.7839 151.3 25.7839H128.968C128.173 25.7839 127.597 25.5387 127.241 25.0484C126.884 24.558 126.706 23.9996 126.706 23.373C126.706 22.801 126.884 22.2697 127.241 21.7794C127.597 21.2618 128.173 21.003 128.968 21.003H155.29C157.127 21.003 158.415 21.3163 159.155 21.9429C159.923 22.5694 160.307 23.6863 160.307 25.2935V31.8314H135.836C135.535 31.8314 135.302 31.9132 135.137 32.0766C135 32.2128 134.931 32.3899 134.931 32.6078V32.7304C134.931 32.9483 135 33.139 135.137 33.3025C135.302 33.4387 135.535 33.5068 135.836 33.5068H159.032C159.855 33.5068 160.444 33.7656 160.801 34.2831C161.184 34.8007 161.376 35.3728 161.376 35.9994C161.376 36.5714 161.198 37.1026 160.842 37.593C160.485 38.1105 159.882 38.3693 159.032 38.3693H132.094ZM144.638 1.06241C145.158 1.06241 145.597 1.15775 145.954 1.34844C146.337 1.53913 146.639 1.7843 146.858 2.08396C147.105 2.38361 147.27 2.72413 147.352 3.1055C147.462 3.48688 147.516 3.85464 147.516 4.20878C147.516 4.56291 147.462 4.91705 147.352 5.27119C147.242 5.62532 147.078 5.95222 146.858 6.25187C146.639 6.52429 146.337 6.75584 145.954 6.94653C145.597 7.13722 145.158 7.23256 144.638 7.23256H134.109C133.725 7.23256 133.451 7.30066 133.286 7.43687C133.122 7.54583 133.04 7.77739 133.04 8.13152V12.0543C133.04 12.4356 133.122 12.6944 133.286 12.8306C133.451 12.9396 133.725 12.9941 134.109 12.9941H146.2C146.721 12.9941 147.174 13.0894 147.558 13.2801C147.941 13.4436 148.243 13.6751 148.462 13.9748C148.682 14.2472 148.846 14.5605 148.956 14.9146C149.066 15.2687 149.12 15.6229 149.12 15.977C149.12 16.3584 149.066 16.7398 148.956 17.1211C148.846 17.4753 148.682 17.8022 148.462 18.1018C148.243 18.3742 147.941 18.6058 147.558 18.7965C147.174 18.9872 146.721 19.0825 146.2 19.0825H130.654C129.475 19.0825 128.516 19.0008 127.775 18.8373C127.035 18.6739 126.446 18.3879 126.007 17.9792C125.596 17.5706 125.308 17.0258 125.143 16.3448C125.006 15.6365 124.938 14.7375 124.938 13.6479V6.49704C124.938 5.40739 125.006 4.52205 125.143 3.84102C125.308 3.13275 125.596 2.5743 126.007 2.16568C126.446 1.75706 127.035 1.47103 127.775 1.30758C128.516 1.14413 129.475 1.06241 130.654 1.06241H144.638ZM151.876 4.04533C151.876 2.71051 152.273 1.70258 153.069 1.02155C153.891 0.340516 154.851 0 155.948 0C157.017 0 157.963 0.354137 158.785 1.06241C159.608 1.74344 160.019 2.73775 160.019 4.04533V6.61963H161.294C161.925 6.61963 162.446 6.7286 162.857 6.94653C163.268 7.13722 163.597 7.40963 163.844 7.76376C164.091 8.09066 164.269 8.45842 164.379 8.86704C164.488 9.27565 164.543 9.68427 164.543 10.0929C164.543 10.5015 164.488 10.9238 164.379 11.3596C164.269 11.7682 164.091 12.136 163.844 12.4629C163.597 12.7898 163.254 13.0622 162.816 13.2801C162.405 13.4708 161.897 13.5662 161.294 13.5662H160.019V19.6954H151.876V4.04533Z" stroke="black"/>
<path d="M167.584 38.5328C168.05 38.2876 168.407 37.9335 168.653 37.4704C168.928 37.0345 169.065 36.5169 169.065 35.9176V35.8768C167.913 35.7678 166.995 35.3728 166.309 34.6918C165.624 34.0107 165.281 33.0845 165.281 31.9132C165.281 30.6601 165.679 29.6794 166.474 28.9711C167.269 28.2356 168.324 27.8678 169.641 27.8678C170.957 27.8678 172.012 28.2764 172.807 29.0937C173.602 29.8837 174 30.8916 174 32.1175V32.4852C174 34.8825 173.548 36.803 172.643 38.2468C171.738 39.7178 170.559 40.7257 169.106 41.2705C168.749 41.4067 168.393 41.5021 168.037 41.5566C167.68 41.6383 167.337 41.6519 167.008 41.5974C166.652 41.543 166.309 41.4067 165.98 41.1888C165.651 40.9709 165.514 40.5895 165.569 40.0447C165.624 39.3909 166.008 38.9823 166.72 38.8188C166.858 38.7643 166.995 38.7235 167.132 38.6962C167.269 38.669 167.42 38.6145 167.584 38.5328Z" stroke="black"/>
<path d="M7.49727 77.1954C6.3457 77.1954 5.45461 76.8957 4.82399 76.2964C4.22079 75.6971 3.91919 74.9207 3.91919 73.9673C3.91919 73.0138 4.22079 72.2375 4.82399 71.6382C5.45461 71.0388 6.3457 70.7392 7.49727 70.7392H32.9551C34.2437 70.7392 35.2856 70.8345 36.0808 71.0252C36.8759 71.2159 37.4928 71.5564 37.9315 72.0468C38.3702 72.5371 38.6581 73.1909 38.7952 74.0081C38.9597 74.7981 39.0419 75.8061 39.0419 77.0319V85H30.7342V78.1761C30.7342 77.5223 30.4052 77.1954 29.7471 77.1954H7.49727ZM4.78287 68.3692C3.82323 68.3692 3.06923 68.0559 2.52086 67.4294C1.99992 66.7756 1.73944 66.0809 1.73944 65.3454C1.73944 64.6099 1.98621 63.9561 2.47974 63.384C2.97326 62.7847 3.74097 62.4851 4.78287 62.4851H5.52316V59.0527C5.52316 57.8268 5.87959 56.9551 6.59247 56.4375C7.33276 55.8927 8.27869 55.6203 9.43025 55.6203C10.5818 55.6203 11.514 55.8927 12.2269 56.4375C12.9672 56.9551 13.3373 57.8268 13.3373 59.0527V62.4851H16.7098V59.0527C16.7098 57.8268 17.0662 56.9551 17.7791 56.4375C18.5194 55.8927 19.4653 55.6203 20.6169 55.6203C21.7684 55.6203 22.7007 55.8927 23.4135 56.4375C24.1538 56.9551 24.524 57.8268 24.524 59.0527V62.4851H25.9223C26.9642 62.4851 27.7319 62.7847 28.2254 63.384C28.719 63.9561 28.9657 64.6099 28.9657 65.3454C28.9657 66.0809 28.6915 66.7756 28.1432 67.4294C27.6222 68.0559 26.8819 68.3692 25.9223 68.3692H4.78287ZM30.5286 50.676C30.5286 49.3412 30.9398 48.3332 31.7624 47.6522C32.6124 46.9712 33.5857 46.6307 34.6824 46.6307C35.2034 46.6307 35.7106 46.726 36.2041 46.9167C36.7251 47.0801 37.1775 47.3389 37.5613 47.6931C37.9452 48.02 38.2468 48.4422 38.4661 48.9598C38.7129 49.4501 38.8363 50.0222 38.8363 50.676V69.1456H30.5286V50.676ZM5.31752 54.1901C4.82399 54.1901 4.3853 54.0948 4.00145 53.9041C3.64501 53.7134 3.3297 53.4682 3.05552 53.1686C2.80875 52.8689 2.61683 52.5284 2.47974 52.147C2.34264 51.7656 2.2741 51.3843 2.2741 51.0029C2.2741 50.6215 2.32894 50.2401 2.43861 49.8587C2.5757 49.4774 2.76763 49.1369 3.01439 48.8372C3.26115 48.5375 3.57646 48.2924 3.96032 48.1017C4.34417 47.911 4.79657 47.8157 5.31752 47.8157H24.524C25.0449 47.8157 25.4973 47.911 25.8812 48.1017C26.265 48.2924 26.5803 48.5375 26.8271 48.8372C27.0739 49.1369 27.2521 49.4774 27.3618 49.8587C27.4989 50.2401 27.5674 50.6215 27.5674 51.0029C27.5674 51.3843 27.4989 51.7656 27.3618 52.147C27.2247 52.5284 27.019 52.8689 26.7449 53.1686C26.4981 53.4682 26.1828 53.7134 25.7989 53.9041C25.4425 54.0948 25.0175 54.1901 24.524 54.1901H5.31752Z" stroke="black"/>
<path d="M43.6046 56.4784C43.6046 54.8167 43.8788 53.4001 44.4272 52.2287C45.003 51.0574 45.7981 50.1039 46.8126 49.3684C47.827 48.6057 49.0334 48.0608 50.4318 47.7339C51.8575 47.3798 53.4204 47.2027 55.1203 47.2027C58.0815 47.2027 60.5491 47.7476 62.5232 48.8372C64.4973 49.8996 65.7311 51.6294 66.2247 54.0267H71.9002V50.5943C71.9002 49.2867 72.3115 48.306 73.134 47.6522C73.9566 46.9712 74.9025 46.6307 75.9718 46.6307C76.4928 46.6307 77 46.726 77.4935 46.9167C77.9871 47.0801 78.4258 47.3253 78.8096 47.6522C79.1935 47.9791 79.4951 48.3877 79.7144 48.8781C79.9612 49.3684 80.0846 49.9405 80.0846 50.5943V67.3476H71.9002V60.4011H66.1835C65.6352 62.7439 64.3739 64.4328 62.3998 65.468C60.4531 66.5032 58.0266 67.0208 55.1203 67.0208C53.3929 67.0208 51.8164 66.8573 50.3906 66.5304C48.9649 66.1763 47.7448 65.6314 46.7303 64.8959C45.7433 64.1332 44.9755 63.1661 44.4272 61.9947C43.8788 60.8234 43.6046 59.4068 43.6046 57.7451V56.4784ZM51.3366 85C50.185 85 49.2254 84.891 48.4577 84.6731C47.7174 84.4552 47.1279 84.1147 46.6892 83.6516C46.2505 83.1885 45.9352 82.5755 45.7433 81.8128C45.5787 81.05 45.4965 80.1238 45.4965 79.0342V72.5371C45.4965 71.1478 45.8941 70.1535 46.6892 69.5542C47.5117 68.9276 48.4988 68.6144 49.6503 68.6144C50.6922 68.6144 51.5833 68.8732 52.3236 69.3907C53.0913 69.9083 53.5437 70.7392 53.6808 71.8833H72.1059C72.243 70.7392 72.6954 69.9083 73.4631 69.3907C74.2308 68.8732 75.1493 68.6144 76.2186 68.6144C77.3702 68.6144 78.3298 68.9276 79.0975 69.5542C79.8926 70.1535 80.2902 71.1478 80.2902 72.5371V85H51.3366ZM51.6245 58.1537C51.6245 59.1889 51.9398 59.9653 52.5704 60.4828C53.2284 60.9732 54.0784 61.2184 55.1203 61.2184C56.1622 61.2184 56.9984 60.9732 57.6291 60.4828C58.2871 59.9653 58.6161 59.1889 58.6161 58.1537V56.0698C58.6161 55.0346 58.2871 54.2718 57.6291 53.7815C56.9984 53.2639 56.1622 53.0051 55.1203 53.0051C54.0784 53.0051 53.2284 53.2639 52.5704 53.7815C51.9398 54.2718 51.6245 55.0346 51.6245 56.0698V58.1537ZM72.0647 79.5654V77.1137H53.722V78.5438C53.722 79.0069 53.7905 79.293 53.9276 79.4019C54.0647 79.5109 54.3663 79.5654 54.8324 79.5654H72.0647Z" stroke="black"/>
<path d="M89.089 72.7414C88.3213 72.7414 87.7592 72.4963 87.4028 72.0059C87.0738 71.5156 86.9093 70.9707 86.9093 70.3714C86.9093 69.8266 87.0875 69.309 87.4439 68.8187C87.8004 68.3011 88.3487 68.0423 89.089 68.0423H115.657C117.439 68.0423 118.687 68.3556 119.4 68.9821C120.14 69.5814 120.51 70.6711 120.51 72.2511V78.6255H96.0396C95.738 78.6255 95.5049 78.7073 95.3404 78.8707C95.2033 79.0069 95.1347 79.184 95.1347 79.4019V79.5245C95.1347 79.7424 95.2033 79.9195 95.3404 80.0557C95.5049 80.1919 95.738 80.26 96.0396 80.26H119.276C120.072 80.26 120.647 80.5188 121.004 81.0364C121.388 81.5267 121.58 82.0852 121.58 82.7117C121.58 83.2566 121.401 83.7741 121.045 84.2645C120.689 84.7548 120.099 85 119.276 85H92.1324C91.2276 85 90.4188 84.8502 89.7059 84.5505C88.9931 84.2509 88.3899 83.8559 87.8963 83.3655C87.4302 82.8752 87.0738 82.3031 86.827 81.6493C86.5803 80.9955 86.4569 80.3145 86.4569 79.6062V79.1159C86.4569 77.6721 86.9367 76.528 87.8963 75.6835C88.8834 74.8118 90.2954 74.3759 92.1324 74.3759H112.161V73.3544C112.161 73.1364 112.12 72.9866 112.038 72.9049C111.956 72.7959 111.778 72.7414 111.503 72.7414H89.089ZM96.492 66.8982C95.0388 66.8982 93.6542 66.7347 92.3381 66.4078C91.022 66.0809 89.8704 65.5906 88.8834 64.9368C87.8963 64.2558 87.1012 63.4113 86.498 62.4034C85.9222 61.3954 85.6343 60.2104 85.6343 58.8484V57.3365C85.6343 56.5192 85.8537 55.7701 86.2924 55.0891C85.3327 55.0618 84.6061 54.7758 84.1126 54.231C83.6191 53.6861 83.3723 53.0596 83.3723 52.3513C83.3723 51.6158 83.6191 50.962 84.1126 50.39C84.6336 49.8179 85.4013 49.5319 86.4158 49.5319H92.3792C92.4615 48.4422 92.8727 47.5977 93.613 46.9984C94.3533 46.3991 95.313 46.0995 96.492 46.0995C97.6709 46.0995 98.6306 46.4127 99.3709 47.0393C100.111 47.6386 100.522 48.4694 100.605 49.5319H106.568C107.61 49.5319 108.364 49.8179 108.83 50.39C109.324 50.962 109.57 51.6158 109.57 52.3513C109.57 53.0868 109.337 53.727 108.871 54.2718C108.405 54.7894 107.679 55.0618 106.692 55.0891C107.13 55.8246 107.35 56.5737 107.35 57.3365V58.8484C107.35 60.2104 107.048 61.3954 106.445 62.4034C105.869 63.4113 105.088 64.2558 104.1 64.9368C103.113 65.5906 101.962 66.0809 100.646 66.4078C99.3297 66.7347 97.9451 66.8982 96.492 66.8982ZM112.079 50.676C112.079 49.3412 112.477 48.3332 113.272 47.6522C114.094 46.9712 115.054 46.6307 116.151 46.6307C117.22 46.6307 118.166 46.9848 118.989 47.6931C119.811 48.3741 120.222 49.3684 120.222 50.676V53.2911H121.497C122.128 53.2911 122.649 53.4001 123.06 53.618C123.471 53.8087 123.8 54.0812 124.047 54.4353C124.294 54.7622 124.472 55.1299 124.582 55.5386C124.692 55.9472 124.746 56.3558 124.746 56.7644C124.746 57.173 124.692 57.5953 124.582 58.0311C124.472 58.4398 124.294 58.8075 124.047 59.1344C123.8 59.4613 123.458 59.7337 123.019 59.9516C122.608 60.1423 122.101 60.2377 121.497 60.2377H120.222V67.0208H112.079V50.676ZM96.492 61.4635C97.3419 61.4635 98.1096 61.2456 98.7951 60.8097C99.5079 60.3466 99.8644 59.6384 99.8644 58.6849V57.2548C99.8644 56.3013 99.5079 55.6067 98.7951 55.1708C98.1096 54.7077 97.3419 54.4761 96.492 54.4761C95.642 54.4761 94.8606 54.7077 94.1477 55.1708C93.4622 55.6067 93.1195 56.3013 93.1195 57.2548V58.6849C93.1195 59.6384 93.4622 60.3466 94.1477 60.8097C94.8606 61.2456 95.642 61.4635 96.492 61.4635Z" stroke="black"/>
<path d="M134.244 85C133.093 85 132.133 84.891 131.365 84.6731C130.625 84.4552 130.036 84.1147 129.597 83.6516C129.158 83.1885 128.843 82.5755 128.651 81.8128C128.487 81.05 128.404 80.1238 128.404 79.0342V74.8662C128.404 73.4769 128.816 72.4554 129.638 71.8016C130.488 71.1478 131.489 70.8209 132.64 70.8209C133.792 70.8209 134.765 71.1478 135.56 71.8016C136.356 72.4554 136.753 73.4769 136.753 74.8662V77.6449C136.753 78.108 136.822 78.394 136.959 78.503C137.096 78.6119 137.397 78.6664 137.864 78.6664H160.196C161.457 78.6664 162.348 78.9933 162.869 79.6471C163.39 80.2736 163.65 80.9955 163.65 81.8128C163.65 82.6572 163.376 83.3928 162.828 84.0193C162.307 84.6731 161.43 85 160.196 85H134.244ZM137.864 69.1864C136.109 69.1864 134.505 68.9958 133.052 68.6144C131.626 68.233 130.392 67.6473 129.35 66.8573C128.336 66.0673 127.541 65.073 126.965 63.8744C126.389 62.6758 126.101 61.2456 126.101 59.5839V56.8461C126.101 55.1844 126.389 53.7543 126.965 52.5556C127.541 51.3298 128.336 50.3219 129.35 49.5319C130.392 48.7419 131.626 48.1562 133.052 47.7748C134.505 47.3934 136.109 47.2027 137.864 47.2027C139.618 47.2027 141.209 47.3934 142.634 47.7748C144.088 48.1562 145.321 48.7419 146.336 49.5319C147.378 50.3219 148.187 51.3298 148.762 52.5556C149.338 53.7543 149.626 55.1844 149.626 56.8461V59.5839C149.626 61.2456 149.338 62.6758 148.762 63.8744C148.187 65.073 147.378 66.0673 146.336 66.8573C145.321 67.6473 144.088 68.233 142.634 68.6144C141.209 68.9958 139.618 69.1864 137.864 69.1864ZM154.273 50.676C154.273 49.3412 154.685 48.3332 155.507 47.6522C156.357 46.9712 157.331 46.6307 158.427 46.6307C158.948 46.6307 159.455 46.726 159.949 46.9167C160.47 47.0801 160.922 47.3389 161.306 47.6931C161.69 48.02 161.992 48.4422 162.211 48.9598C162.458 49.4501 162.581 50.0222 162.581 50.676V75.52H154.273V50.676ZM137.864 63.1797C138.96 63.1797 139.851 62.9209 140.537 62.4034C141.222 61.8858 141.565 61.0549 141.565 59.9108V56.5192C141.565 55.3751 141.222 54.5443 140.537 54.0267C139.851 53.4818 138.96 53.2094 137.864 53.2094C136.767 53.2094 135.876 53.4818 135.19 54.0267C134.505 54.5443 134.162 55.3751 134.162 56.5192V59.9108C134.162 61.0549 134.505 61.8858 135.19 62.4034C135.876 62.9209 136.767 63.1797 137.864 63.1797Z" stroke="black"/>
</svg>
