<svg width="140" height="74" viewBox="0 0 140 74" fill="none" xmlns="http://www.w3.org/2000/svg">
<path d="M6.25419 15.6661C5.26146 15.6661 4.45625 15.5903 3.83855 15.4386C3.22085 15.2653 2.73552 14.9944 2.38255 14.6261C2.05164 14.236 1.82 13.7268 1.68764 13.0985C1.57733 12.4701 1.52218 11.6792 1.52218 10.7258V5.62291C1.52218 4.69117 1.57733 3.91112 1.68764 3.28274C1.82 2.63269 2.05164 2.12349 2.38255 1.75513C2.73552 1.3651 3.22085 1.09425 3.83855 0.942568C4.45625 0.769222 5.26146 0.682548 6.25419 0.682548H24.6858C25.6786 0.682548 26.4838 0.769222 27.1015 0.942568C27.7192 1.09425 28.1935 1.3651 28.5244 1.75513C28.8774 2.12349 29.109 2.63269 29.2193 3.28274C29.3517 3.91112 29.4179 4.69117 29.4179 5.62291V15.6661H6.25419ZM18.8618 23.2392V30.6822H12.1113V23.2392H2.77964C1.78691 23.2392 1.06994 22.9683 0.628728 22.4266C0.209576 21.8849 0 21.2782 0 20.6065C0 20.2815 0.0441213 19.9673 0.132364 19.6639C0.242667 19.3389 0.408122 19.0464 0.628728 18.7864C0.849334 18.5263 1.13612 18.3205 1.48909 18.1688C1.84206 18.0171 2.27224 17.9413 2.77964 17.9413H28.1935C28.7009 17.9413 29.1311 18.0171 29.484 18.1688C29.837 18.3205 30.1238 18.5263 30.3444 18.7864C30.565 19.0464 30.7194 19.3389 30.8077 19.6639C30.918 19.9673 30.9731 20.2815 30.9731 20.6065C30.9731 21.2782 30.7525 21.8849 30.3113 22.4266C29.8922 22.9683 29.1862 23.2392 28.1935 23.2392H18.8618ZM8.10728 9.75071C8.10728 10.1191 8.1514 10.3574 8.23965 10.4658C8.34995 10.5524 8.57055 10.5958 8.90146 10.5958H22.8328V6.56548C22.8328 6.21878 22.7776 6.0021 22.6673 5.91543C22.557 5.80709 22.3364 5.75292 22.0055 5.75292H8.90146C8.57055 5.75292 8.34995 5.80709 8.23965 5.91543C8.1514 6.0021 8.10728 6.21878 8.10728 6.56548V9.75071Z" fill="#191919"/>
<path d="M39.5086 24.6693V19.8589C37.81 19.6206 36.5635 19.003 35.7694 18.0063C34.9972 17.0096 34.6112 15.7961 34.6112 14.366V13.716C34.6112 12.9143 34.7325 12.1667 34.9752 11.4733C35.2399 10.7799 35.626 10.1732 36.1334 9.6532C36.6628 9.13316 37.3246 8.7323 38.1188 8.45061C38.913 8.14726 39.8616 7.99558 40.9646 7.99558H55.4254V7.02051C55.4254 6.80383 55.3702 6.59798 55.2599 6.40297C55.1496 6.20795 54.907 6.11044 54.5319 6.11044H37.3577C36.5635 6.11044 35.9348 5.85042 35.4715 5.33039C35.0303 4.81035 34.8097 4.21447 34.8097 3.54276C34.8097 2.89271 35.0303 2.30767 35.4715 1.78763C35.9348 1.24592 36.5635 0.97507 37.3577 0.97507H56.3188C57.466 0.97507 58.4146 1.10508 59.1647 1.3651C59.9147 1.60345 60.5104 1.95014 60.9516 2.40517C61.3928 2.83854 61.7016 3.36941 61.8781 3.99779C62.0767 4.62617 62.1759 5.33039 62.1759 6.11044V13.0659H42.6854C41.8912 13.0659 41.4941 13.3693 41.4941 13.976V14.106C41.4941 14.7127 41.8912 15.0161 42.6854 15.0161H60.2567C60.7199 15.0161 61.106 15.0919 61.4148 15.2436C61.7458 15.3953 62.0105 15.5903 62.209 15.8286C62.4296 16.067 62.5841 16.3379 62.6723 16.6412C62.7605 16.9229 62.8047 17.2154 62.8047 17.5188C62.8047 18.1472 62.6061 18.7105 62.209 19.2089C61.8119 19.7073 61.1611 19.9564 60.2567 19.9564H57.9072V24.6693H61.3818C62.3965 24.6693 63.1135 24.9401 63.5327 25.4818C63.9518 26.0236 64.1614 26.6194 64.1614 27.2695C64.1614 27.9412 63.9408 28.5371 63.4996 29.0571C63.0804 29.5988 62.3745 29.8697 61.3818 29.8697H35.9679C34.9752 29.8697 34.2582 29.5988 33.817 29.0571C33.3978 28.5371 33.1883 27.9412 33.1883 27.2695C33.1883 26.6194 33.3978 26.0236 33.817 25.4818C34.2361 24.9401 34.9531 24.6693 35.9679 24.6693H39.5086ZM46.0276 24.6693H51.3883V19.9564H46.0276V24.6693Z" fill="#191919"/>
<path d="M71.5387 29.0896C70.6563 29.0896 69.9283 29.0029 69.3547 28.8296C68.7812 28.6779 68.3289 28.4179 67.998 28.0495C67.6671 27.7028 67.4355 27.2478 67.3031 26.6844C67.1707 26.0994 67.1045 25.3952 67.1045 24.5718V4.0953C67.1045 3.03355 67.3803 2.27517 67.9318 1.82013C68.4833 1.34343 69.2113 1.10508 70.1158 1.10508C70.9982 1.10508 71.6932 1.34343 72.2005 1.82013C72.73 2.29683 72.9947 3.05522 72.9947 4.0953V9.19817H75.9729V4.0953C75.9729 3.03355 76.2376 2.27517 76.7671 1.82013C77.2966 1.34343 78.0025 1.10508 78.8849 1.10508C79.7894 1.10508 80.4954 1.34343 81.0027 1.82013C81.5322 2.29683 81.7969 3.05522 81.7969 4.0953V29.0896H71.5387ZM91.0955 17.0962H89.474V30.5197H83.7162V2.7627C83.7162 1.85263 84.003 1.17008 84.5766 0.715052C85.1501 0.238351 85.823 0 86.5951 0C87.3452 0 88.007 0.238351 88.5806 0.715052C89.1762 1.17008 89.474 1.85263 89.474 2.7627V11.7659H91.0955V2.7627C91.0955 1.85263 91.3933 1.17008 91.9889 0.715052C92.5846 0.238351 93.2684 0 94.0406 0C94.4156 0 94.7796 0.0650045 95.1326 0.195014C95.4855 0.303355 95.7944 0.476701 96.0591 0.715052C96.3459 0.953403 96.5665 1.24592 96.7209 1.59262C96.8974 1.91764 96.9857 2.30767 96.9857 2.7627V30.5197H91.0955V17.0962ZM75.9729 24.2143V14.301H72.9947V23.4342C72.9947 23.7809 73.0388 23.9976 73.1271 24.0842C73.2374 24.1709 73.4801 24.2143 73.8551 24.2143H75.9729Z" fill="#191919"/>
<path d="M106.282 30.5197C105.532 30.5197 104.859 30.4005 104.264 30.1622C103.69 29.9238 103.205 29.5988 102.808 29.1871C102.411 28.7754 102.102 28.3096 101.881 27.7895C101.683 27.2478 101.583 26.6844 101.583 26.0994V25.7094C101.583 24.5393 101.98 23.6075 102.775 22.9142C103.591 22.2208 104.76 21.8741 106.282 21.8741H122.265V21.029C122.265 20.834 122.232 20.704 122.166 20.639C122.1 20.5523 121.956 20.509 121.736 20.509H103.767C103.128 20.509 102.664 20.314 102.378 19.9239C102.091 19.5339 101.947 19.0897 101.947 18.5914C101.947 18.1363 102.091 17.7138 102.378 17.3238C102.664 16.9121 103.128 16.7062 103.767 16.7062H124.946C126.424 16.7062 127.46 16.9554 128.056 17.4538C128.674 17.9521 128.983 18.8405 128.983 20.119V25.3193H109.294C109.051 25.3193 108.863 25.3843 108.731 25.5144C108.621 25.6227 108.566 25.7635 108.566 25.9369V26.0344C108.566 26.2077 108.621 26.3594 108.731 26.4894C108.863 26.5978 109.051 26.6519 109.294 26.6519H127.957C128.619 26.6519 129.093 26.8578 129.38 27.2695C129.689 27.6812 129.843 28.1362 129.843 28.6346C129.843 29.0896 129.7 29.5121 129.413 29.9022C129.126 30.3139 128.641 30.5197 127.957 30.5197H106.282ZM116.375 0.845062C116.794 0.845062 117.147 0.920901 117.434 1.07258C117.743 1.22426 117.985 1.41927 118.162 1.65762C118.36 1.89597 118.493 2.16682 118.559 2.47018C118.647 2.77353 118.691 3.06606 118.691 3.34774C118.691 3.62943 118.647 3.91112 118.559 4.1928C118.471 4.47449 118.338 4.73451 118.162 4.97286C117.985 5.18954 117.743 5.37372 117.434 5.5254C117.147 5.67708 116.794 5.75292 116.375 5.75292H107.904C107.595 5.75292 107.374 5.80709 107.242 5.91543C107.11 6.0021 107.043 6.18628 107.043 6.46797V9.5882C107.043 9.89155 107.11 10.0974 107.242 10.2057C107.374 10.2924 107.595 10.3358 107.904 10.3358H117.632C118.052 10.3358 118.416 10.4116 118.724 10.5633C119.033 10.6933 119.276 10.8775 119.452 11.1158C119.629 11.3325 119.761 11.5817 119.85 11.8634C119.938 12.145 119.982 12.4267 119.982 12.7084C119.982 13.0118 119.938 13.3151 119.85 13.6185C119.761 13.9002 119.629 14.1602 119.452 14.3985C119.276 14.6152 119.033 14.7994 118.724 14.9511C118.416 15.1028 118.052 15.1786 117.632 15.1786H105.124C104.175 15.1786 103.403 15.1136 102.808 14.9836C102.212 14.8536 101.738 14.6261 101.385 14.301C101.054 13.976 100.822 13.5426 100.69 13.0009C100.58 12.4376 100.524 11.7225 100.524 10.8558V5.16787C100.524 4.30115 100.58 3.59693 100.69 3.05522C100.822 2.49185 101.054 2.04765 101.385 1.72262C101.738 1.3976 102.212 1.17008 102.808 1.04008C103.403 0.910067 104.175 0.845062 105.124 0.845062H116.375ZM122.199 3.21773C122.199 2.15599 122.519 1.35426 123.159 0.812558C123.82 0.270853 124.593 0 125.475 0C126.335 0 127.096 0.281687 127.758 0.845062C128.42 1.38677 128.751 2.17766 128.751 3.21773V5.26538H129.777C130.284 5.26538 130.703 5.35206 131.034 5.5254C131.365 5.67708 131.63 5.89376 131.828 6.17545C132.027 6.43547 132.17 6.72799 132.259 7.05301C132.347 7.37804 132.391 7.70306 132.391 8.02808C132.391 8.35311 132.347 8.68896 132.259 9.03566C132.17 9.36068 132.027 9.6532 131.828 9.91322C131.63 10.1732 131.354 10.3899 131.001 10.5633C130.67 10.7149 130.262 10.7908 129.777 10.7908H128.751V15.6661H122.199V3.21773Z" fill="#191919"/>
<path d="M134.838 71.5363C135.213 71.3413 135.5 71.0596 135.698 70.6913C135.919 70.3446 136.029 69.9329 136.029 69.4562V69.4237C135.103 69.337 134.364 69.0228 133.812 68.4811C133.26 67.9394 132.985 67.2027 132.985 66.2709C132.985 65.2742 133.305 64.4941 133.944 63.9308C134.584 63.3457 135.433 63.0532 136.492 63.0532C137.551 63.0532 138.401 63.3782 139.04 64.0283C139.68 64.6566 140 65.4584 140 66.4334V66.726C140 68.6328 139.636 70.1604 138.908 71.3088C138.18 72.4789 137.231 73.2806 136.062 73.714C135.775 73.8223 135.489 73.8982 135.202 73.9415C134.915 74.0065 134.639 74.0173 134.375 73.974C134.088 73.9307 133.812 73.8223 133.547 73.649C133.283 73.4756 133.172 73.1723 133.216 72.7389C133.26 72.2189 133.569 71.8938 134.143 71.7638C134.253 71.7205 134.364 71.688 134.474 71.6663C134.584 71.6447 134.705 71.6013 134.838 71.5363Z" fill="#191919"/>
<path d="M6.03228 61.4027C5.10574 61.4027 4.38877 61.1643 3.88137 60.6876C3.39604 60.2109 3.15337 59.5934 3.15337 58.835C3.15337 58.0766 3.39604 57.4591 3.88137 56.9824C4.38877 56.5057 5.10574 56.2673 6.03228 56.2673H26.5156C27.5524 56.2673 28.3907 56.3432 29.0305 56.4948C29.6702 56.6465 30.1666 56.9174 30.5196 57.3074C30.8726 57.6974 31.1042 58.2175 31.2145 58.8675C31.3469 59.4959 31.413 60.2976 31.413 61.2727V67.6106H24.7287V62.1827C24.7287 61.6627 24.4639 61.4027 23.9345 61.4027H6.03228ZM3.84828 54.3822C3.07616 54.3822 2.46949 54.133 2.02828 53.6346C1.60913 53.1146 1.39955 52.5621 1.39955 51.977C1.39955 51.392 1.5981 50.8719 1.99519 50.4169C2.39228 49.9402 3.00998 49.7018 3.84828 49.7018H4.44392V46.9716C4.44392 45.9966 4.73071 45.3032 5.30428 44.8915C5.89992 44.4581 6.66101 44.2415 7.58756 44.2415C8.51411 44.2415 9.26417 44.4581 9.83774 44.8915C10.4334 45.3032 10.7312 45.9966 10.7312 46.9716V49.7018H13.4447V46.9716C13.4447 45.9966 13.7314 45.3032 14.305 44.8915C14.9007 44.4581 15.6617 44.2415 16.5883 44.2415C17.5148 44.2415 18.2649 44.4581 18.8385 44.8915C19.4341 45.3032 19.7319 45.9966 19.7319 46.9716V49.7018H20.857C21.6953 49.7018 22.313 49.9402 22.7101 50.4169C23.1072 50.8719 23.3058 51.392 23.3058 51.977C23.3058 52.5621 23.0852 53.1146 22.6439 53.6346C22.2248 54.133 21.6292 54.3822 20.857 54.3822H3.84828ZM24.5632 40.3087C24.5632 39.2469 24.8941 38.4452 25.5559 37.9035C26.2398 37.3618 27.023 37.0909 27.9054 37.0909C28.3246 37.0909 28.7327 37.1668 29.1298 37.3184C29.5489 37.4485 29.9129 37.6543 30.2218 37.936C30.5306 38.196 30.7733 38.5319 30.9498 38.9436C31.1483 39.3336 31.2476 39.7886 31.2476 40.3087V54.9997H24.5632V40.3087ZM4.27846 43.1039C3.88137 43.1039 3.5284 43.028 3.21955 42.8763C2.93277 42.7247 2.67907 42.5297 2.45846 42.2913C2.25992 42.053 2.10549 41.7821 1.99519 41.4787C1.88489 41.1754 1.82973 40.872 1.82973 40.5687C1.82973 40.2653 1.87386 39.962 1.9621 39.6586C2.0724 39.3553 2.22683 39.0844 2.42537 38.8461C2.62392 38.6077 2.87761 38.4127 3.18646 38.261C3.49531 38.1093 3.85931 38.0335 4.27846 38.0335H19.7319C20.1511 38.0335 20.5151 38.1093 20.8239 38.261C21.1328 38.4127 21.3865 38.6077 21.585 38.8461C21.7836 39.0844 21.927 39.3553 22.0152 39.6586C22.1255 39.962 22.1807 40.2653 22.1807 40.5687C22.1807 40.872 22.1255 41.1754 22.0152 41.4787C21.9049 41.7821 21.7395 42.053 21.5188 42.2913C21.3203 42.5297 21.0666 42.7247 20.7578 42.8763C20.471 43.028 20.129 43.1039 19.7319 43.1039H4.27846Z" fill="#191919"/>
<path d="M35.0842 44.924C35.0842 43.6022 35.3048 42.4755 35.746 41.5438C36.2093 40.612 36.849 39.8536 37.6653 39.2686C38.4815 38.6619 39.4522 38.2285 40.5773 37.9685C41.7244 37.6868 42.9819 37.546 44.3497 37.546C46.7322 37.546 48.7177 37.9793 50.306 38.8461C51.8944 39.6911 52.8871 41.0671 53.2842 42.9739H57.8508V40.2437C57.8508 39.2036 58.1817 38.4235 58.8435 37.9035C59.5053 37.3618 60.2664 37.0909 61.1268 37.0909C61.5459 37.0909 61.954 37.1668 62.3511 37.3184C62.7482 37.4485 63.1012 37.6435 63.41 37.9035C63.7189 38.1635 63.9616 38.4885 64.138 38.8786C64.3366 39.2686 64.4359 39.7236 64.4359 40.2437V53.5696H57.8508V48.0442H53.2511C52.8099 49.9077 51.7951 51.2511 50.2067 52.0745C48.6404 52.8979 46.6881 53.3096 44.3497 53.3096C42.9598 53.3096 41.6913 53.1796 40.5442 52.9196C39.397 52.6379 38.4153 52.2045 37.5991 51.6195C36.8049 51.0128 36.1872 50.2436 35.746 49.3118C35.3048 48.3801 35.0842 47.2533 35.0842 45.9316V44.924ZM41.3053 67.6106C40.3787 67.6106 39.6066 67.524 38.9889 67.3506C38.3933 67.1773 37.919 66.9064 37.566 66.5381C37.213 66.1697 36.9593 65.6822 36.8049 65.0755C36.6726 64.4687 36.6064 63.732 36.6064 62.8653V57.6974C36.6064 56.5923 36.9263 55.8014 37.566 55.3247C38.2278 54.8264 39.022 54.5772 39.9486 54.5772C40.7869 54.5772 41.5038 54.783 42.0995 55.1947C42.7172 55.6064 43.0812 56.2673 43.1915 57.1774H58.0162C58.1265 56.2673 58.4905 55.6064 59.1082 55.1947C59.7259 54.783 60.4649 54.5772 61.3253 54.5772C62.2519 54.5772 63.024 54.8264 63.6417 55.3247C64.2814 55.8014 64.6013 56.5923 64.6013 57.6974V67.6106H41.3053ZM41.5369 46.2566C41.5369 47.08 41.7906 47.6975 42.298 48.1092C42.8275 48.4993 43.5113 48.6943 44.3497 48.6943C45.188 48.6943 45.8608 48.4993 46.3682 48.1092C46.8977 47.6975 47.1624 47.08 47.1624 46.2566V44.599C47.1624 43.7756 46.8977 43.1689 46.3682 42.7788C45.8608 42.3671 45.188 42.1613 44.3497 42.1613C43.5113 42.1613 42.8275 42.3671 42.298 42.7788C41.7906 43.1689 41.5369 43.7756 41.5369 44.599V46.2566ZM57.9831 63.2878V61.3377H43.2246V62.4753C43.2246 62.8436 43.2797 63.0711 43.39 63.1578C43.5003 63.2445 43.743 63.2878 44.118 63.2878H57.9831Z" fill="#191919"/>
<path d="M71.6808 57.8599C71.0631 57.8599 70.6109 57.6649 70.3241 57.2749C70.0594 56.8849 69.927 56.4515 69.927 55.9748C69.927 55.5414 70.0704 55.1297 70.3572 54.7397C70.644 54.328 71.0852 54.1222 71.6808 54.1222H93.0576C94.4915 54.1222 95.4953 54.3713 96.0689 54.8697C96.6645 55.3464 96.9623 56.2132 96.9623 57.4699V62.5403H77.2732C77.0305 62.5403 76.843 62.6053 76.7106 62.7353C76.6003 62.8436 76.5452 62.9845 76.5452 63.1578V63.2553C76.5452 63.4287 76.6003 63.5695 76.7106 63.6779C76.843 63.7862 77.0305 63.8404 77.2732 63.8404H95.9696C96.6093 63.8404 97.0726 64.0462 97.3594 64.4579C97.6683 64.8479 97.8227 65.2921 97.8227 65.7905C97.8227 66.2239 97.6793 66.6356 97.3925 67.0256C97.1057 67.4156 96.6314 67.6106 95.9696 67.6106H74.1296C73.4016 67.6106 72.7508 67.4915 72.1772 67.2531C71.6036 67.0148 71.1183 66.7006 70.7212 66.3105C70.3462 65.9205 70.0594 65.4655 69.8608 64.9454C69.6623 64.4254 69.563 63.8837 69.563 63.3203V62.9303C69.563 61.7819 69.9491 60.8718 70.7212 60.2001C71.5154 59.5067 72.6515 59.16 74.1296 59.16H90.2448V58.3475C90.2448 58.1741 90.2118 58.0549 90.1456 57.9899C90.0794 57.9033 89.936 57.8599 89.7154 57.8599H71.6808ZM77.6372 53.2121C76.468 53.2121 75.3539 53.0821 74.295 52.8221C73.2361 52.5621 72.3096 52.172 71.5154 51.652C70.7212 51.1103 70.0814 50.4386 69.5961 49.6368C69.1328 48.8351 68.9012 47.8925 68.9012 46.8091V45.6065C68.9012 44.9565 69.0777 44.3606 69.4306 43.8189C68.6585 43.7972 68.0739 43.5697 67.6768 43.1364C67.2797 42.703 67.0812 42.2046 67.0812 41.6413C67.0812 41.0562 67.2797 40.5362 67.6768 40.0811C68.096 39.6261 68.7137 39.3986 69.5299 39.3986H74.3281C74.3943 38.5319 74.7252 37.8601 75.3208 37.3834C75.9165 36.9067 76.6886 36.6684 77.6372 36.6684C78.5858 36.6684 79.3579 36.9176 79.9536 37.416C80.5492 37.8927 80.8801 38.5535 80.9463 39.3986H85.7445C86.5828 39.3986 87.1895 39.6261 87.5645 40.0811C87.9616 40.5362 88.1601 41.0562 88.1601 41.6413C88.1601 42.2263 87.9726 42.7355 87.5976 43.1689C87.2225 43.5806 86.6379 43.7972 85.8438 43.8189C86.1967 44.404 86.3732 44.9998 86.3732 45.6065V46.8091C86.3732 47.8925 86.1305 48.8351 85.6452 49.6368C85.1819 50.4386 84.5532 51.1103 83.759 51.652C82.9648 52.172 82.0383 52.5621 80.9794 52.8221C79.9205 53.0821 78.8064 53.2121 77.6372 53.2121ZM90.1787 40.3087C90.1787 39.2469 90.4985 38.4452 91.1383 37.9035C91.8001 37.3618 92.5722 37.0909 93.4547 37.0909C94.315 37.0909 95.0761 37.3726 95.7379 37.936C96.3998 38.4777 96.7307 39.2686 96.7307 40.3087V42.3888H97.7565C98.2639 42.3888 98.683 42.4755 99.0139 42.6488C99.3449 42.8005 99.6096 43.0172 99.8081 43.2989C100.007 43.5589 100.15 43.8514 100.238 44.1764C100.327 44.5015 100.371 44.8265 100.371 45.1515C100.371 45.4765 100.327 45.8124 100.238 46.1591C100.15 46.4841 100.007 46.7766 99.8081 47.0367C99.6096 47.2967 99.3338 47.5134 98.9809 47.6867C98.6499 47.8384 98.2418 47.9142 97.7565 47.9142H96.7307V53.3096H90.1787V40.3087ZM77.6372 48.8893C78.3211 48.8893 78.9388 48.7159 79.4903 48.3692C80.0639 48.0009 80.3507 47.4375 80.3507 46.6791V45.5415C80.3507 44.7832 80.0639 44.2306 79.4903 43.8839C78.9388 43.5156 78.3211 43.3314 77.6372 43.3314C76.9533 43.3314 76.3246 43.5156 75.751 43.8839C75.1995 44.2306 74.9237 44.7832 74.9237 45.5415V46.6791C74.9237 47.4375 75.1995 48.0009 75.751 48.3692C76.3246 48.7159 76.9533 48.8893 77.6372 48.8893Z" fill="#191919"/>
<path d="M108.013 67.6106C107.086 67.6106 106.314 67.524 105.696 67.3506C105.101 67.1773 104.626 66.9064 104.273 66.5381C103.92 66.1697 103.667 65.6822 103.512 65.0755C103.38 64.4687 103.314 63.732 103.314 62.8653V59.5501C103.314 58.445 103.645 57.6324 104.307 57.1124C104.99 56.5923 105.796 56.3323 106.722 56.3323C107.649 56.3323 108.432 56.5923 109.072 57.1124C109.711 57.6324 110.031 58.445 110.031 59.5501V61.7602C110.031 62.1286 110.086 62.3561 110.197 62.4428C110.307 62.5294 110.55 62.5728 110.925 62.5728H128.893C129.908 62.5728 130.625 62.8328 131.044 63.3528C131.463 63.8512 131.673 64.4254 131.673 65.0755C131.673 65.7472 131.452 66.3322 131.011 66.8306C130.592 67.3506 129.886 67.6106 128.893 67.6106H108.013ZM110.925 55.0322C109.513 55.0322 108.222 54.8806 107.053 54.5772C105.906 54.2738 104.913 53.808 104.075 53.1796C103.259 52.5512 102.619 51.7603 102.156 50.8069C101.692 49.8535 101.461 48.7159 101.461 47.3942V45.2165C101.461 43.8948 101.692 42.7572 102.156 41.8038C102.619 40.8287 103.259 40.027 104.075 39.3986C104.913 38.7702 105.906 38.3043 107.053 38.001C108.222 37.6976 109.513 37.546 110.925 37.546C112.337 37.546 113.616 37.6976 114.763 38.001C115.933 38.3043 116.925 38.7702 117.741 39.3986C118.58 40.027 119.231 40.8287 119.694 41.8038C120.157 42.7572 120.389 43.8948 120.389 45.2165V47.3942C120.389 48.7159 120.157 49.8535 119.694 50.8069C119.231 51.7603 118.58 52.5512 117.741 53.1796C116.925 53.808 115.933 54.2738 114.763 54.5772C113.616 54.8806 112.337 55.0322 110.925 55.0322ZM124.128 40.3087C124.128 39.2469 124.459 38.4452 125.121 37.9035C125.805 37.3618 126.588 37.0909 127.47 37.0909C127.889 37.0909 128.298 37.1668 128.695 37.3184C129.114 37.4485 129.478 37.6543 129.787 37.936C130.095 38.196 130.338 38.5319 130.515 38.9436C130.713 39.3336 130.812 39.7886 130.812 40.3087V60.0701H124.128V40.3087ZM110.925 50.2544C111.807 50.2544 112.524 50.0485 113.076 49.6368C113.627 49.2251 113.903 48.5643 113.903 47.6542V44.9565C113.903 44.0464 113.627 43.3856 113.076 42.9739C112.524 42.5405 111.807 42.3238 110.925 42.3238C110.042 42.3238 109.325 42.5405 108.774 42.9739C108.222 43.3856 107.947 44.0464 107.947 44.9565V47.6542C107.947 48.5643 108.222 49.2251 108.774 49.6368C109.325 50.0485 110.042 50.2544 110.925 50.2544Z" fill="#191919"/>
<path d="M6.25419 15.6661C5.26146 15.6661 4.45625 15.5903 3.83855 15.4386C3.22085 15.2653 2.73552 14.9944 2.38255 14.6261C2.05164 14.236 1.82 13.7268 1.68764 13.0985C1.57733 12.4701 1.52218 11.6792 1.52218 10.7258V5.62291C1.52218 4.69117 1.57733 3.91112 1.68764 3.28274C1.82 2.63269 2.05164 2.12349 2.38255 1.75513C2.73552 1.3651 3.22085 1.09425 3.83855 0.942568C4.45625 0.769222 5.26146 0.682548 6.25419 0.682548H24.6858C25.6786 0.682548 26.4838 0.769222 27.1015 0.942568C27.7192 1.09425 28.1935 1.3651 28.5244 1.75513C28.8774 2.12349 29.109 2.63269 29.2193 3.28274C29.3517 3.91112 29.4179 4.69117 29.4179 5.62291V15.6661H6.25419ZM18.8618 23.2392V30.6822H12.1113V23.2392H2.77964C1.78691 23.2392 1.06994 22.9683 0.628728 22.4266C0.209576 21.8849 0 21.2782 0 20.6065C0 20.2815 0.0441213 19.9673 0.132364 19.6639C0.242667 19.3389 0.408122 19.0464 0.628728 18.7864C0.849334 18.5263 1.13612 18.3205 1.48909 18.1688C1.84206 18.0171 2.27224 17.9413 2.77964 17.9413H28.1935C28.7009 17.9413 29.1311 18.0171 29.484 18.1688C29.837 18.3205 30.1238 18.5263 30.3444 18.7864C30.565 19.0464 30.7194 19.3389 30.8077 19.6639C30.918 19.9673 30.9731 20.2815 30.9731 20.6065C30.9731 21.2782 30.7525 21.8849 30.3113 22.4266C29.8922 22.9683 29.1862 23.2392 28.1935 23.2392H18.8618ZM8.10728 9.75071C8.10728 10.1191 8.1514 10.3574 8.23965 10.4658C8.34995 10.5524 8.57055 10.5958 8.90146 10.5958H22.8328V6.56548C22.8328 6.21878 22.7776 6.0021 22.6673 5.91543C22.557 5.80709 22.3364 5.75292 22.0055 5.75292H8.90146C8.57055 5.75292 8.34995 5.80709 8.23965 5.91543C8.1514 6.0021 8.10728 6.21878 8.10728 6.56548V9.75071Z" stroke="black"/>
<path d="M39.5086 24.6693V19.8589C37.81 19.6206 36.5635 19.003 35.7694 18.0063C34.9972 17.0096 34.6112 15.7961 34.6112 14.366V13.716C34.6112 12.9143 34.7325 12.1667 34.9752 11.4733C35.2399 10.7799 35.626 10.1732 36.1334 9.6532C36.6628 9.13316 37.3246 8.7323 38.1188 8.45061C38.913 8.14726 39.8616 7.99558 40.9646 7.99558H55.4254V7.02051C55.4254 6.80383 55.3702 6.59798 55.2599 6.40297C55.1496 6.20795 54.907 6.11044 54.5319 6.11044H37.3577C36.5635 6.11044 35.9348 5.85042 35.4715 5.33039C35.0303 4.81035 34.8097 4.21447 34.8097 3.54276C34.8097 2.89271 35.0303 2.30767 35.4715 1.78763C35.9348 1.24592 36.5635 0.97507 37.3577 0.97507H56.3188C57.466 0.97507 58.4146 1.10508 59.1647 1.3651C59.9147 1.60345 60.5104 1.95014 60.9516 2.40517C61.3928 2.83854 61.7016 3.36941 61.8781 3.99779C62.0767 4.62617 62.1759 5.33039 62.1759 6.11044V13.0659H42.6854C41.8912 13.0659 41.4941 13.3693 41.4941 13.976V14.106C41.4941 14.7127 41.8912 15.0161 42.6854 15.0161H60.2567C60.7199 15.0161 61.106 15.0919 61.4148 15.2436C61.7458 15.3953 62.0105 15.5903 62.209 15.8286C62.4296 16.067 62.5841 16.3379 62.6723 16.6412C62.7605 16.9229 62.8047 17.2154 62.8047 17.5188C62.8047 18.1472 62.6061 18.7105 62.209 19.2089C61.8119 19.7073 61.1611 19.9564 60.2567 19.9564H57.9072V24.6693H61.3818C62.3965 24.6693 63.1135 24.9401 63.5327 25.4818C63.9518 26.0236 64.1614 26.6194 64.1614 27.2695C64.1614 27.9412 63.9408 28.5371 63.4996 29.0571C63.0804 29.5988 62.3745 29.8697 61.3818 29.8697H35.9679C34.9752 29.8697 34.2582 29.5988 33.817 29.0571C33.3978 28.5371 33.1883 27.9412 33.1883 27.2695C33.1883 26.6194 33.3978 26.0236 33.817 25.4818C34.2361 24.9401 34.9531 24.6693 35.9679 24.6693H39.5086ZM46.0276 24.6693H51.3883V19.9564H46.0276V24.6693Z" stroke="black"/>
<path d="M71.5387 29.0896C70.6563 29.0896 69.9283 29.0029 69.3547 28.8296C68.7812 28.6779 68.3289 28.4179 67.998 28.0495C67.6671 27.7028 67.4355 27.2478 67.3031 26.6844C67.1707 26.0994 67.1045 25.3952 67.1045 24.5718V4.0953C67.1045 3.03355 67.3803 2.27517 67.9318 1.82013C68.4833 1.34343 69.2113 1.10508 70.1158 1.10508C70.9982 1.10508 71.6932 1.34343 72.2005 1.82013C72.73 2.29683 72.9947 3.05522 72.9947 4.0953V9.19817H75.9729V4.0953C75.9729 3.03355 76.2376 2.27517 76.7671 1.82013C77.2966 1.34343 78.0025 1.10508 78.8849 1.10508C79.7894 1.10508 80.4954 1.34343 81.0027 1.82013C81.5322 2.29683 81.7969 3.05522 81.7969 4.0953V29.0896H71.5387ZM91.0955 17.0962H89.474V30.5197H83.7162V2.7627C83.7162 1.85263 84.003 1.17008 84.5766 0.715052C85.1501 0.238351 85.823 0 86.5951 0C87.3452 0 88.007 0.238351 88.5806 0.715052C89.1762 1.17008 89.474 1.85263 89.474 2.7627V11.7659H91.0955V2.7627C91.0955 1.85263 91.3933 1.17008 91.9889 0.715052C92.5846 0.238351 93.2684 0 94.0406 0C94.4156 0 94.7796 0.0650045 95.1326 0.195014C95.4855 0.303355 95.7944 0.476701 96.0591 0.715052C96.3459 0.953403 96.5665 1.24592 96.7209 1.59262C96.8974 1.91764 96.9857 2.30767 96.9857 2.7627V30.5197H91.0955V17.0962ZM75.9729 24.2143V14.301H72.9947V23.4342C72.9947 23.7809 73.0388 23.9976 73.1271 24.0842C73.2374 24.1709 73.4801 24.2143 73.8551 24.2143H75.9729Z" stroke="black"/>
<path d="M106.282 30.5197C105.532 30.5197 104.859 30.4005 104.264 30.1622C103.69 29.9238 103.205 29.5988 102.808 29.1871C102.411 28.7754 102.102 28.3096 101.881 27.7895C101.683 27.2478 101.583 26.6844 101.583 26.0994V25.7094C101.583 24.5393 101.98 23.6075 102.775 22.9142C103.591 22.2208 104.76 21.8741 106.282 21.8741H122.265V21.029C122.265 20.834 122.232 20.704 122.166 20.639C122.1 20.5523 121.956 20.509 121.736 20.509H103.767C103.128 20.509 102.664 20.314 102.378 19.9239C102.091 19.5339 101.947 19.0897 101.947 18.5914C101.947 18.1363 102.091 17.7138 102.378 17.3238C102.664 16.9121 103.128 16.7062 103.767 16.7062H124.946C126.424 16.7062 127.46 16.9554 128.056 17.4538C128.674 17.9521 128.983 18.8405 128.983 20.119V25.3193H109.294C109.051 25.3193 108.863 25.3843 108.731 25.5144C108.621 25.6227 108.566 25.7635 108.566 25.9369V26.0344C108.566 26.2077 108.621 26.3594 108.731 26.4894C108.863 26.5978 109.051 26.6519 109.294 26.6519H127.957C128.619 26.6519 129.093 26.8578 129.38 27.2695C129.689 27.6812 129.843 28.1362 129.843 28.6346C129.843 29.0896 129.7 29.5121 129.413 29.9022C129.126 30.3139 128.641 30.5197 127.957 30.5197H106.282ZM116.375 0.845062C116.794 0.845062 117.147 0.920901 117.434 1.07258C117.743 1.22426 117.985 1.41927 118.162 1.65762C118.36 1.89597 118.493 2.16682 118.559 2.47018C118.647 2.77353 118.691 3.06606 118.691 3.34774C118.691 3.62943 118.647 3.91112 118.559 4.1928C118.471 4.47449 118.338 4.73451 118.162 4.97286C117.985 5.18954 117.743 5.37372 117.434 5.5254C117.147 5.67708 116.794 5.75292 116.375 5.75292H107.904C107.595 5.75292 107.374 5.80709 107.242 5.91543C107.11 6.0021 107.043 6.18628 107.043 6.46797V9.5882C107.043 9.89155 107.11 10.0974 107.242 10.2057C107.374 10.2924 107.595 10.3358 107.904 10.3358H117.632C118.052 10.3358 118.416 10.4116 118.724 10.5633C119.033 10.6933 119.276 10.8775 119.452 11.1158C119.629 11.3325 119.761 11.5817 119.85 11.8634C119.938 12.145 119.982 12.4267 119.982 12.7084C119.982 13.0118 119.938 13.3151 119.85 13.6185C119.761 13.9002 119.629 14.1602 119.452 14.3985C119.276 14.6152 119.033 14.7994 118.724 14.9511C118.416 15.1028 118.052 15.1786 117.632 15.1786H105.124C104.175 15.1786 103.403 15.1136 102.808 14.9836C102.212 14.8536 101.738 14.6261 101.385 14.301C101.054 13.976 100.822 13.5426 100.69 13.0009C100.58 12.4376 100.524 11.7225 100.524 10.8558V5.16787C100.524 4.30115 100.58 3.59693 100.69 3.05522C100.822 2.49185 101.054 2.04765 101.385 1.72262C101.738 1.3976 102.212 1.17008 102.808 1.04008C103.403 0.910067 104.175 0.845062 105.124 0.845062H116.375ZM122.199 3.21773C122.199 2.15599 122.519 1.35426 123.159 0.812558C123.82 0.270853 124.593 0 125.475 0C126.335 0 127.096 0.281687 127.758 0.845062C128.42 1.38677 128.751 2.17766 128.751 3.21773V5.26538H129.777C130.284 5.26538 130.703 5.35206 131.034 5.5254C131.365 5.67708 131.63 5.89376 131.828 6.17545C132.027 6.43547 132.17 6.72799 132.259 7.05301C132.347 7.37804 132.391 7.70306 132.391 8.02808C132.391 8.35311 132.347 8.68896 132.259 9.03566C132.17 9.36068 132.027 9.6532 131.828 9.91322C131.63 10.1732 131.354 10.3899 131.001 10.5633C130.67 10.7149 130.262 10.7908 129.777 10.7908H128.751V15.6661H122.199V3.21773Z" stroke="black"/>
<path d="M134.838 71.5363C135.213 71.3413 135.5 71.0596 135.698 70.6913C135.919 70.3446 136.029 69.9329 136.029 69.4562V69.4237C135.103 69.337 134.364 69.0228 133.812 68.4811C133.26 67.9394 132.985 67.2027 132.985 66.2709C132.985 65.2742 133.305 64.4941 133.944 63.9308C134.584 63.3457 135.433 63.0532 136.492 63.0532C137.551 63.0532 138.401 63.3782 139.04 64.0283C139.68 64.6566 140 65.4584 140 66.4334V66.726C140 68.6328 139.636 70.1604 138.908 71.3088C138.18 72.4789 137.231 73.2806 136.062 73.714C135.775 73.8223 135.489 73.8982 135.202 73.9415C134.915 74.0065 134.639 74.0173 134.375 73.974C134.088 73.9307 133.812 73.8223 133.547 73.649C133.283 73.4756 133.172 73.1723 133.216 72.7389C133.26 72.2189 133.569 71.8938 134.143 71.7638C134.253 71.7205 134.364 71.688 134.474 71.6663C134.584 71.6447 134.705 71.6013 134.838 71.5363Z" stroke="black"/>
<path d="M6.03228 61.4027C5.10574 61.4027 4.38877 61.1643 3.88137 60.6876C3.39604 60.2109 3.15337 59.5934 3.15337 58.835C3.15337 58.0766 3.39604 57.4591 3.88137 56.9824C4.38877 56.5057 5.10574 56.2673 6.03228 56.2673H26.5156C27.5524 56.2673 28.3907 56.3432 29.0305 56.4948C29.6702 56.6465 30.1666 56.9174 30.5196 57.3074C30.8726 57.6974 31.1042 58.2175 31.2145 58.8675C31.3469 59.4959 31.413 60.2976 31.413 61.2727V67.6106H24.7287V62.1827C24.7287 61.6627 24.4639 61.4027 23.9345 61.4027H6.03228ZM3.84828 54.3822C3.07616 54.3822 2.46949 54.133 2.02828 53.6346C1.60913 53.1146 1.39955 52.5621 1.39955 51.977C1.39955 51.392 1.5981 50.8719 1.99519 50.4169C2.39228 49.9402 3.00998 49.7018 3.84828 49.7018H4.44392V46.9716C4.44392 45.9966 4.73071 45.3032 5.30428 44.8915C5.89992 44.4581 6.66101 44.2415 7.58756 44.2415C8.51411 44.2415 9.26417 44.4581 9.83774 44.8915C10.4334 45.3032 10.7312 45.9966 10.7312 46.9716V49.7018H13.4447V46.9716C13.4447 45.9966 13.7314 45.3032 14.305 44.8915C14.9007 44.4581 15.6617 44.2415 16.5883 44.2415C17.5148 44.2415 18.2649 44.4581 18.8385 44.8915C19.4341 45.3032 19.7319 45.9966 19.7319 46.9716V49.7018H20.857C21.6953 49.7018 22.313 49.9402 22.7101 50.4169C23.1072 50.8719 23.3058 51.392 23.3058 51.977C23.3058 52.5621 23.0852 53.1146 22.6439 53.6346C22.2248 54.133 21.6292 54.3822 20.857 54.3822H3.84828ZM24.5632 40.3087C24.5632 39.2469 24.8941 38.4452 25.5559 37.9035C26.2398 37.3618 27.023 37.0909 27.9054 37.0909C28.3246 37.0909 28.7327 37.1668 29.1298 37.3184C29.5489 37.4485 29.9129 37.6543 30.2218 37.936C30.5306 38.196 30.7733 38.5319 30.9498 38.9436C31.1483 39.3336 31.2476 39.7886 31.2476 40.3087V54.9997H24.5632V40.3087ZM4.27846 43.1039C3.88137 43.1039 3.5284 43.028 3.21955 42.8763C2.93277 42.7247 2.67907 42.5297 2.45846 42.2913C2.25992 42.053 2.10549 41.7821 1.99519 41.4787C1.88489 41.1754 1.82973 40.872 1.82973 40.5687C1.82973 40.2653 1.87386 39.962 1.9621 39.6586C2.0724 39.3553 2.22683 39.0844 2.42537 38.8461C2.62392 38.6077 2.87761 38.4127 3.18646 38.261C3.49531 38.1093 3.85931 38.0335 4.27846 38.0335H19.7319C20.1511 38.0335 20.5151 38.1093 20.8239 38.261C21.1328 38.4127 21.3865 38.6077 21.585 38.8461C21.7836 39.0844 21.927 39.3553 22.0152 39.6586C22.1255 39.962 22.1807 40.2653 22.1807 40.5687C22.1807 40.872 22.1255 41.1754 22.0152 41.4787C21.9049 41.7821 21.7395 42.053 21.5188 42.2913C21.3203 42.5297 21.0666 42.7247 20.7578 42.8763C20.471 43.028 20.129 43.1039 19.7319 43.1039H4.27846Z" stroke="black"/>
<path d="M35.0842 44.924C35.0842 43.6022 35.3048 42.4755 35.746 41.5438C36.2093 40.612 36.849 39.8536 37.6653 39.2686C38.4815 38.6619 39.4522 38.2285 40.5773 37.9685C41.7244 37.6868 42.9819 37.546 44.3497 37.546C46.7322 37.546 48.7177 37.9793 50.306 38.8461C51.8944 39.6911 52.8871 41.0671 53.2842 42.9739H57.8508V40.2437C57.8508 39.2036 58.1817 38.4235 58.8435 37.9035C59.5053 37.3618 60.2664 37.0909 61.1268 37.0909C61.5459 37.0909 61.954 37.1668 62.3511 37.3184C62.7482 37.4485 63.1012 37.6435 63.41 37.9035C63.7189 38.1635 63.9616 38.4885 64.138 38.8786C64.3366 39.2686 64.4359 39.7236 64.4359 40.2437V53.5696H57.8508V48.0442H53.2511C52.8099 49.9077 51.7951 51.2511 50.2067 52.0745C48.6404 52.8979 46.6881 53.3096 44.3497 53.3096C42.9598 53.3096 41.6913 53.1796 40.5442 52.9196C39.397 52.6379 38.4153 52.2045 37.5991 51.6195C36.8049 51.0128 36.1872 50.2436 35.746 49.3118C35.3048 48.3801 35.0842 47.2533 35.0842 45.9316V44.924ZM41.3053 67.6106C40.3787 67.6106 39.6066 67.524 38.9889 67.3506C38.3933 67.1773 37.919 66.9064 37.566 66.5381C37.213 66.1697 36.9593 65.6822 36.8049 65.0755C36.6726 64.4687 36.6064 63.732 36.6064 62.8653V57.6974C36.6064 56.5923 36.9263 55.8014 37.566 55.3247C38.2278 54.8264 39.022 54.5772 39.9486 54.5772C40.7869 54.5772 41.5038 54.783 42.0995 55.1947C42.7172 55.6064 43.0812 56.2673 43.1915 57.1774H58.0162C58.1265 56.2673 58.4905 55.6064 59.1082 55.1947C59.7259 54.783 60.4649 54.5772 61.3253 54.5772C62.2519 54.5772 63.024 54.8264 63.6417 55.3247C64.2814 55.8014 64.6013 56.5923 64.6013 57.6974V67.6106H41.3053ZM41.5369 46.2566C41.5369 47.08 41.7906 47.6975 42.298 48.1092C42.8275 48.4993 43.5113 48.6943 44.3497 48.6943C45.188 48.6943 45.8608 48.4993 46.3682 48.1092C46.8977 47.6975 47.1624 47.08 47.1624 46.2566V44.599C47.1624 43.7756 46.8977 43.1689 46.3682 42.7788C45.8608 42.3671 45.188 42.1613 44.3497 42.1613C43.5113 42.1613 42.8275 42.3671 42.298 42.7788C41.7906 43.1689 41.5369 43.7756 41.5369 44.599V46.2566ZM57.9831 63.2878V61.3377H43.2246V62.4753C43.2246 62.8436 43.2797 63.0711 43.39 63.1578C43.5003 63.2445 43.743 63.2878 44.118 63.2878H57.9831Z" stroke="black"/>
<path d="M71.6808 57.8599C71.0631 57.8599 70.6109 57.6649 70.3241 57.2749C70.0594 56.8849 69.927 56.4515 69.927 55.9748C69.927 55.5414 70.0704 55.1297 70.3572 54.7397C70.644 54.328 71.0852 54.1222 71.6808 54.1222H93.0576C94.4915 54.1222 95.4953 54.3713 96.0689 54.8697C96.6645 55.3464 96.9623 56.2132 96.9623 57.4699V62.5403H77.2732C77.0305 62.5403 76.843 62.6053 76.7106 62.7353C76.6003 62.8436 76.5452 62.9845 76.5452 63.1578V63.2553C76.5452 63.4287 76.6003 63.5695 76.7106 63.6779C76.843 63.7862 77.0305 63.8404 77.2732 63.8404H95.9696C96.6093 63.8404 97.0726 64.0462 97.3594 64.4579C97.6683 64.8479 97.8227 65.2921 97.8227 65.7905C97.8227 66.2239 97.6793 66.6356 97.3925 67.0256C97.1057 67.4156 96.6314 67.6106 95.9696 67.6106H74.1296C73.4016 67.6106 72.7508 67.4915 72.1772 67.2531C71.6036 67.0148 71.1183 66.7006 70.7212 66.3105C70.3462 65.9205 70.0594 65.4655 69.8608 64.9454C69.6623 64.4254 69.563 63.8837 69.563 63.3203V62.9303C69.563 61.7819 69.9491 60.8718 70.7212 60.2001C71.5154 59.5067 72.6515 59.16 74.1296 59.16H90.2448V58.3475C90.2448 58.1741 90.2118 58.0549 90.1456 57.9899C90.0794 57.9033 89.936 57.8599 89.7154 57.8599H71.6808ZM77.6372 53.2121C76.468 53.2121 75.3539 53.0821 74.295 52.8221C73.2361 52.5621 72.3096 52.172 71.5154 51.652C70.7212 51.1103 70.0814 50.4386 69.5961 49.6368C69.1328 48.8351 68.9012 47.8925 68.9012 46.8091V45.6065C68.9012 44.9565 69.0777 44.3606 69.4306 43.8189C68.6585 43.7972 68.0739 43.5697 67.6768 43.1364C67.2797 42.703 67.0812 42.2046 67.0812 41.6413C67.0812 41.0562 67.2797 40.5362 67.6768 40.0811C68.096 39.6261 68.7137 39.3986 69.5299 39.3986H74.3281C74.3943 38.5319 74.7252 37.8601 75.3208 37.3834C75.9165 36.9067 76.6886 36.6684 77.6372 36.6684C78.5858 36.6684 79.3579 36.9176 79.9536 37.416C80.5492 37.8927 80.8801 38.5535 80.9463 39.3986H85.7445C86.5828 39.3986 87.1895 39.6261 87.5645 40.0811C87.9616 40.5362 88.1601 41.0562 88.1601 41.6413C88.1601 42.2263 87.9726 42.7355 87.5976 43.1689C87.2225 43.5806 86.6379 43.7972 85.8438 43.8189C86.1967 44.404 86.3732 44.9998 86.3732 45.6065V46.8091C86.3732 47.8925 86.1305 48.8351 85.6452 49.6368C85.1819 50.4386 84.5532 51.1103 83.759 51.652C82.9648 52.172 82.0383 52.5621 80.9794 52.8221C79.9205 53.0821 78.8064 53.2121 77.6372 53.2121ZM90.1787 40.3087C90.1787 39.2469 90.4985 38.4452 91.1383 37.9035C91.8001 37.3618 92.5722 37.0909 93.4547 37.0909C94.315 37.0909 95.0761 37.3726 95.7379 37.936C96.3998 38.4777 96.7307 39.2686 96.7307 40.3087V42.3888H97.7565C98.2639 42.3888 98.683 42.4755 99.0139 42.6488C99.3449 42.8005 99.6096 43.0172 99.8081 43.2989C100.007 43.5589 100.15 43.8514 100.238 44.1764C100.327 44.5015 100.371 44.8265 100.371 45.1515C100.371 45.4765 100.327 45.8124 100.238 46.1591C100.15 46.4841 100.007 46.7766 99.8081 47.0367C99.6096 47.2967 99.3338 47.5134 98.9809 47.6867C98.6499 47.8384 98.2418 47.9142 97.7565 47.9142H96.7307V53.3096H90.1787V40.3087ZM77.6372 48.8893C78.3211 48.8893 78.9388 48.7159 79.4903 48.3692C80.0639 48.0009 80.3507 47.4375 80.3507 46.6791V45.5415C80.3507 44.7832 80.0639 44.2306 79.4903 43.8839C78.9388 43.5156 78.3211 43.3314 77.6372 43.3314C76.9533 43.3314 76.3246 43.5156 75.751 43.8839C75.1995 44.2306 74.9237 44.7832 74.9237 45.5415V46.6791C74.9237 47.4375 75.1995 48.0009 75.751 48.3692C76.3246 48.7159 76.9533 48.8893 77.6372 48.8893Z" stroke="black"/>
<path d="M108.013 67.6106C107.086 67.6106 106.314 67.524 105.696 67.3506C105.101 67.1773 104.626 66.9064 104.273 66.5381C103.92 66.1697 103.667 65.6822 103.512 65.0755C103.38 64.4687 103.314 63.732 103.314 62.8653V59.5501C103.314 58.445 103.645 57.6324 104.307 57.1124C104.99 56.5923 105.796 56.3323 106.722 56.3323C107.649 56.3323 108.432 56.5923 109.072 57.1124C109.711 57.6324 110.031 58.445 110.031 59.5501V61.7602C110.031 62.1286 110.086 62.3561 110.197 62.4428C110.307 62.5294 110.55 62.5728 110.925 62.5728H128.893C129.908 62.5728 130.625 62.8328 131.044 63.3528C131.463 63.8512 131.673 64.4254 131.673 65.0755C131.673 65.7472 131.452 66.3322 131.011 66.8306C130.592 67.3506 129.886 67.6106 128.893 67.6106H108.013ZM110.925 55.0322C109.513 55.0322 108.222 54.8806 107.053 54.5772C105.906 54.2738 104.913 53.808 104.075 53.1796C103.259 52.5512 102.619 51.7603 102.156 50.8069C101.692 49.8535 101.461 48.7159 101.461 47.3942V45.2165C101.461 43.8948 101.692 42.7572 102.156 41.8038C102.619 40.8287 103.259 40.027 104.075 39.3986C104.913 38.7702 105.906 38.3043 107.053 38.001C108.222 37.6976 109.513 37.546 110.925 37.546C112.337 37.546 113.616 37.6976 114.763 38.001C115.933 38.3043 116.925 38.7702 117.741 39.3986C118.58 40.027 119.231 40.8287 119.694 41.8038C120.157 42.7572 120.389 43.8948 120.389 45.2165V47.3942C120.389 48.7159 120.157 49.8535 119.694 50.8069C119.231 51.7603 118.58 52.5512 117.741 53.1796C116.925 53.808 115.933 54.2738 114.763 54.5772C113.616 54.8806 112.337 55.0322 110.925 55.0322ZM124.128 40.3087C124.128 39.2469 124.459 38.4452 125.121 37.9035C125.805 37.3618 126.588 37.0909 127.47 37.0909C127.889 37.0909 128.298 37.1668 128.695 37.3184C129.114 37.4485 129.478 37.6543 129.787 37.936C130.095 38.196 130.338 38.5319 130.515 38.9436C130.713 39.3336 130.812 39.7886 130.812 40.3087V60.0701H124.128V40.3087ZM110.925 50.2544C111.807 50.2544 112.524 50.0485 113.076 49.6368C113.627 49.2251 113.903 48.5643 113.903 47.6542V44.9565C113.903 44.0464 113.627 43.3856 113.076 42.9739C112.524 42.5405 111.807 42.3238 110.925 42.3238C110.042 42.3238 109.325 42.5405 108.774 42.9739C108.222 43.3856 107.947 44.0464 107.947 44.9565V47.6542C107.947 48.5643 108.222 49.2251 108.774 49.6368C109.325 50.0485 110.042 50.2544 110.925 50.2544Z" stroke="black"/>
</svg>
