<svg width="48" height="48" viewBox="0 0 48 48" fill="none" xmlns="http://www.w3.org/2000/svg">
<path d="M27.2295 24.6794L27.583 24.3258L27.2295 23.9723L18.9795 15.7223C18.6546 15.3973 18.487 14.9769 18.5008 14.413C18.5147 13.8419 18.6977 13.4111 19.0295 13.0794C19.4479 12.6609 19.8785 12.4882 20.3374 12.5006C20.8167 12.5136 21.2392 12.6962 21.6224 13.0794L31.5724 23.0294C31.7627 23.2196 31.8989 23.4235 31.9886 23.6412C32.0809 23.8654 32.1259 24.0925 32.1259 24.3258C32.1259 24.5591 32.0809 24.7862 31.9886 25.0104C31.8989 25.2282 31.7627 25.432 31.5724 25.6223L21.6724 35.5223C21.2982 35.8965 20.879 36.0639 20.3891 36.051C19.888 36.0378 19.4399 35.8668 19.0305 35.5212C18.685 35.1118 18.5139 34.6637 18.5008 34.1627C18.4879 33.6727 18.6553 33.2536 19.0295 32.8794L27.2295 24.6794Z" fill="#00D6A9" stroke="#00D6A9"/>
</svg>
