<svg width="48" height="48" viewBox="0 0 48 48" fill="none" xmlns="http://www.w3.org/2000/svg">
<g filter="url(#filter0_dd_18_8)">
<path d="M24.6759 35.8758C24.2426 35.3758 24.0176 34.8091 24.0009 34.1758C23.9843 33.5425 24.2093 32.9925 24.6759 32.5258L32.8759 24.3258L24.6259 16.0758C24.1926 15.6425 23.9843 15.0841 24.0009 14.4008C24.0176 13.7175 24.2426 13.1591 24.6759 12.7258C25.1759 12.2258 25.7343 11.9841 26.3509 12.0008C26.9676 12.0175 27.5093 12.2591 27.9759 12.7258L37.9259 22.6758C38.1593 22.9091 38.3343 23.1675 38.4509 23.4508C38.5676 23.7341 38.6259 24.0258 38.6259 24.3258C38.6259 24.6258 38.5676 24.9175 38.4509 25.2008C38.3343 25.4841 38.1593 25.7425 37.9259 25.9758L28.0259 35.8758C27.5593 36.3425 27.0093 36.5675 26.3759 36.5508C25.7426 36.5341 25.1759 36.3091 24.6759 35.8758Z" fill="#00D6A9"/>
</g>
<defs>
<filter id="filter0_dd_18_8" x="-6" y="-2" width="60" height="60" filterUnits="userSpaceOnUse" color-interpolation-filters="sRGB">
<feFlood flood-opacity="0" result="BackgroundImageFix"/>
<feColorMatrix in="SourceAlpha" type="matrix" values="0 0 0 0 0 0 0 0 0 0 0 0 0 0 0 0 0 0 127 0" result="hardAlpha"/>
<feOffset dy="4"/>
<feGaussianBlur stdDeviation="3"/>
<feComposite in2="hardAlpha" operator="out"/>
<feColorMatrix type="matrix" values="0 0 0 0 0 0 0 0 0 0 0 0 0 0 0 0 0 0 0.25 0"/>
<feBlend mode="normal" in2="BackgroundImageFix" result="effect1_dropShadow_18_8"/>
<feColorMatrix in="SourceAlpha" type="matrix" values="0 0 0 0 0 0 0 0 0 0 0 0 0 0 0 0 0 0 127 0" result="hardAlpha"/>
<feOffset dy="2"/>
<feGaussianBlur stdDeviation="1"/>
<feComposite in2="hardAlpha" operator="out"/>
<feColorMatrix type="matrix" values="0 0 0 0 0 0 0 0 0 0.94 0 0 0 0 1 0 0 0 0.4 0"/>
<feBlend mode="normal" in2="effect1_dropShadow_18_8" result="effect2_dropShadow_18_8"/>
<feBlend mode="normal" in="SourceGraphic" in2="effect2_dropShadow_18_8" result="shape"/>
</filter>
</defs>
</svg>
